<svg width="26" height="26" viewBox="0 0 26 26" fill="none" xmlns="http://www.w3.org/2000/svg">
<circle cx="13" cy="13" r="13" fill="#F2B723"/>
<path d="M12.6774 7.11926L6.1774 12.6193H6.1774C5.96643 12.7974 5.93984 13.1129 6.11801 13.3239C6.21333 13.4367 6.35368 13.5017 6.5014 13.5013H7.7514C7.88948 13.5013 8.0014 13.6132 8.0014 13.7513V18.5003C8.0014 18.7764 8.22526 19.0003 8.5014 19.0003H11.0014C11.2775 19.0003 11.5014 18.7764 11.5014 18.5003V16.2503C11.5014 15.4218 12.173 14.7503 13.0014 14.7503C13.8298 14.7503 14.5014 15.4218 14.5014 16.2503V18.5003C14.5014 18.7764 14.7253 19.0003 15.0014 19.0003H17.5014C17.7775 19.0003 18.0014 18.7764 18.0014 18.5003V13.7503C18.0014 13.6122 18.1133 13.5003 18.2514 13.5003H19.5014C19.7775 13.5005 20.0016 13.2768 20.0018 13.0006C20.0019 12.8533 19.937 12.7133 19.8244 12.6183L13.3244 7.11826V7.11826C13.1376 6.9602 12.8638 6.96063 12.6774 7.11926V7.11926Z" fill="black"/>
</svg>
