<svg width="318" height="68" viewBox="0 0 318 68" fill="none" xmlns="http://www.w3.org/2000/svg">
<path d="M9.248 10.896H2.784V6.784H8.912V5.68H2.784V1.744H9.248V0.639999H1.616V12H9.248V10.896ZM12.2293 12V-9.53674e-07H11.0933V12H12.2293ZM21.8562 8.256C21.8562 8.256 21.8722 8 21.8722 7.824C21.8722 5.52 20.3842 3.664 17.9522 3.664C15.5042 3.664 13.9522 5.664 13.9522 7.92C13.9522 10.208 15.3922 12.192 17.9682 12.192C19.9042 12.192 21.2482 11.008 21.7282 9.456H20.5442C20.1922 10.448 19.2322 11.168 17.9842 11.168C16.2722 11.168 15.2002 9.904 15.0882 8.256H21.8562ZM17.9522 4.688C19.5522 4.688 20.5922 5.76 20.7362 7.328H15.1202C15.3122 5.824 16.3682 4.688 17.9522 4.688ZM30.982 3.856H29.894V5.36C29.334 4.32 28.294 3.664 26.806 3.664C24.31 3.664 22.966 5.696 22.966 7.936C22.966 10.176 24.31 12.192 26.806 12.192C28.294 12.192 29.334 11.536 29.894 10.496V12H30.982V3.856ZM24.118 7.936C24.118 6.16 25.206 4.688 27.03 4.688C28.854 4.688 29.894 6.16 29.894 7.936C29.894 9.712 28.854 11.168 27.03 11.168C25.206 11.168 24.118 9.712 24.118 7.936ZM34.3945 3.856H33.3065V12H34.4425V7.152C34.4425 5.52 35.5145 4.656 36.8905 4.656C38.3465 4.656 39.0345 5.552 39.0345 7.024V12H40.1705V6.8C40.1705 4.992 39.0985 3.664 37.0825 3.664C35.4985 3.664 34.6825 4.576 34.3945 5.104V3.856ZM45.9344 12.192C48.5104 12.192 50.0944 10.176 50.0944 7.936C50.0944 5.696 48.5104 3.664 45.9344 3.664C43.3744 3.664 41.7904 5.696 41.7904 7.936C41.7904 10.176 43.3744 12.192 45.9344 12.192ZM42.9424 7.936C42.9424 6.096 44.1264 4.688 45.9344 4.688C47.7584 4.688 48.9424 6.096 48.9424 7.936C48.9424 9.76 47.7584 11.168 45.9344 11.168C44.1264 11.168 42.9424 9.76 42.9424 7.936ZM55.7708 3.792C55.7708 3.792 55.5788 3.776 55.4988 3.776C53.9948 3.776 53.1948 4.56 52.8908 5.12V3.856H51.8028V12H52.9388V7.376C52.9388 5.68 53.9788 4.848 55.3708 4.848C55.5788 4.848 55.7708 4.864 55.7708 4.864V3.792ZM68.0513 12H69.2353L72.0833 3.856H70.8833L68.6593 10.656L66.4513 3.856H65.2673L63.0273 10.656L60.8353 3.856H59.6193L62.4353 12H63.6193L65.8433 5.296H65.8593L68.0513 12ZM76.6771 12.192C79.2531 12.192 80.8371 10.176 80.8371 7.936C80.8371 5.696 79.2531 3.664 76.6771 3.664C74.1171 3.664 72.5331 5.696 72.5331 7.936C72.5331 10.176 74.1171 12.192 76.6771 12.192ZM73.6851 7.936C73.6851 6.096 74.8691 4.688 76.6771 4.688C78.5011 4.688 79.6851 6.096 79.6851 7.936C79.6851 9.76 78.5011 11.168 76.6771 11.168C74.8691 11.168 73.6851 9.76 73.6851 7.936ZM86.5135 3.792C86.5135 3.792 86.3215 3.776 86.2415 3.776C84.7375 3.776 83.9375 4.56 83.6335 5.12V3.856H82.5455V12H83.6815V7.376C83.6815 5.68 84.7215 4.848 86.1135 4.848C86.3215 4.848 86.5135 4.864 86.5135 4.864V3.792ZM93.3163 3.856L88.8203 8.384V-9.53674e-07H87.6843V12H88.8203V9.776L90.6603 7.984L93.6843 12H95.0923L91.4603 7.216L94.8363 3.856H93.3163ZM98.6654 12.192C100.873 12.192 101.913 11.024 101.913 9.792C101.913 6.368 96.8734 8.272 96.8734 6.016C96.8734 5.28 97.4974 4.656 98.7614 4.656C100.057 4.656 100.665 5.36 100.761 6.24H101.897C101.801 5.136 101.049 3.664 98.7934 3.664C96.8574 3.664 95.7694 4.816 95.7694 6.064C95.7694 9.408 100.809 7.488 100.809 9.824C100.809 10.64 100.041 11.2 98.6654 11.2C97.2574 11.2 96.5534 10.496 96.4734 9.456H95.3214C95.4174 10.88 96.3134 12.192 98.6654 12.192ZM114.759 12H115.943L118.791 3.856H117.591L115.367 10.656L113.159 3.856H111.975L109.735 10.656L107.543 3.856H106.327L109.143 12H110.327L112.551 5.296H112.567L114.759 12ZM120.675 1.84C121.139 1.84 121.491 1.52 121.491 1.056C121.491 0.575999 121.139 0.24 120.675 0.24C120.195 0.24 119.859 0.575999 119.859 1.056C119.859 1.52 120.195 1.84 120.675 1.84ZM120.099 12H121.235V3.856H120.099V12ZM125.038 4.816H126.702V3.856H125.038V1.536H123.902V3.856H122.35V4.816H123.902V12H125.038V4.816ZM128.887 -9.53674e-07H127.751V12H128.887V7.184C128.887 5.52 129.959 4.656 131.335 4.656C132.791 4.656 133.479 5.552 133.479 7.024V12H134.615V6.8C134.615 4.992 133.543 3.664 131.527 3.664C130.007 3.664 129.175 4.496 128.887 4.992V-9.53674e-07ZM141.409 15.328H142.561L147.393 3.856H146.193L143.393 10.688L140.625 3.856H139.393L142.801 12L141.409 15.328ZM151.829 12.192C154.405 12.192 155.989 10.176 155.989 7.936C155.989 5.696 154.405 3.664 151.829 3.664C149.269 3.664 147.685 5.696 147.685 7.936C147.685 10.176 149.269 12.192 151.829 12.192ZM148.837 7.936C148.837 6.096 150.021 4.688 151.829 4.688C153.653 4.688 154.837 6.096 154.837 7.936C154.837 9.76 153.653 11.168 151.829 11.168C150.021 11.168 148.837 9.76 148.837 7.936ZM160.993 12.192C163.297 12.192 164.369 10.72 164.369 8.912V3.856H163.233V8.832C163.233 10.304 162.449 11.2 160.993 11.2C159.537 11.2 158.753 10.304 158.753 8.832V3.856H157.617V8.912C157.617 10.72 158.689 12.192 160.993 12.192ZM170.57 3.792C170.57 3.792 170.378 3.776 170.298 3.776C168.794 3.776 167.994 4.56 167.69 5.12V3.856H166.602V12H167.738V7.376C167.738 5.68 168.778 4.848 170.17 4.848C170.378 4.848 170.57 4.864 170.57 4.864V3.792ZM178.034 12.192C180.242 12.192 181.282 11.024 181.282 9.792C181.282 6.368 176.242 8.272 176.242 6.016C176.242 5.28 176.866 4.656 178.13 4.656C179.426 4.656 180.034 5.36 180.13 6.24H181.266C181.17 5.136 180.418 3.664 178.162 3.664C176.226 3.664 175.138 4.816 175.138 6.064C175.138 9.408 180.178 7.488 180.178 9.824C180.178 10.64 179.41 11.2 178.034 11.2C176.626 11.2 175.922 10.496 175.842 9.456H174.69C174.786 10.88 175.682 12.192 178.034 12.192ZM182.41 7.936C182.41 10.16 183.946 12.192 186.426 12.192C188.634 12.192 189.914 10.72 190.234 9.104H189.082C188.746 10.368 187.818 11.168 186.426 11.168C184.714 11.168 183.562 9.808 183.562 7.936C183.562 6.048 184.714 4.688 186.426 4.688C187.818 4.688 188.746 5.488 189.082 6.752H190.234C189.914 5.136 188.634 3.664 186.426 3.664C183.946 3.664 182.41 5.696 182.41 7.936ZM192.918 -9.53674e-07H191.782V12H192.918V7.184C192.918 5.52 193.99 4.656 195.366 4.656C196.822 4.656 197.51 5.552 197.51 7.024V12H198.646V6.8C198.646 4.992 197.574 3.664 195.558 3.664C194.038 3.664 193.206 4.496 192.918 4.992V-9.53674e-07ZM208.17 8.256C208.17 8.256 208.186 8 208.186 7.824C208.186 5.52 206.698 3.664 204.266 3.664C201.818 3.664 200.266 5.664 200.266 7.92C200.266 10.208 201.706 12.192 204.282 12.192C206.218 12.192 207.562 11.008 208.042 9.456H206.858C206.506 10.448 205.546 11.168 204.298 11.168C202.586 11.168 201.514 9.904 201.402 8.256H208.17ZM204.266 4.688C205.866 4.688 206.906 5.76 207.05 7.328H201.434C201.626 5.824 202.682 4.688 204.266 4.688ZM216.159 5.328C215.615 4.352 214.607 3.664 213.119 3.664C210.623 3.664 209.279 5.68 209.279 7.936C209.279 10.176 210.623 12.192 213.119 12.192C214.607 12.192 215.647 11.536 216.207 10.496V12H217.295V-9.53674e-07H216.159V5.328ZM216.207 7.936C216.207 9.712 215.167 11.168 213.343 11.168C211.519 11.168 210.431 9.712 210.431 7.936C210.431 6.128 211.519 4.688 213.343 4.688C215.167 4.688 216.207 6.128 216.207 7.936ZM222.916 12.192C225.22 12.192 226.292 10.72 226.292 8.912V3.856H225.156V8.832C225.156 10.304 224.372 11.2 222.916 11.2C221.46 11.2 220.676 10.304 220.676 8.832V3.856H219.54V8.912C219.54 10.72 220.612 12.192 222.916 12.192ZM229.66 12V-9.53674e-07H228.524V12H229.66ZM239.287 8.256C239.287 8.256 239.303 8 239.303 7.824C239.303 5.52 237.815 3.664 235.383 3.664C232.935 3.664 231.383 5.664 231.383 7.92C231.383 10.208 232.823 12.192 235.399 12.192C237.335 12.192 238.679 11.008 239.159 9.456H237.975C237.623 10.448 236.663 11.168 235.415 11.168C233.703 11.168 232.631 9.904 232.519 8.256H239.287ZM235.383 4.688C236.983 4.688 238.023 5.76 238.167 7.328H232.551C232.743 5.824 233.799 4.688 235.383 4.688ZM246.163 4.816H247.827V3.856H246.163V1.536H245.027V3.856H243.475V4.816H245.027V12H246.163V4.816ZM252.241 12.192C254.817 12.192 256.401 10.176 256.401 7.936C256.401 5.696 254.817 3.664 252.241 3.664C249.681 3.664 248.097 5.696 248.097 7.936C248.097 10.176 249.681 12.192 252.241 12.192ZM249.249 7.936C249.249 6.096 250.433 4.688 252.241 4.688C254.065 4.688 255.249 6.096 255.249 7.936C255.249 9.76 254.065 11.168 252.241 11.168C250.433 11.168 249.249 9.76 249.249 7.936ZM262.931 -9.53674e-07H261.795V12H262.931V7.184C262.931 5.52 264.003 4.656 265.379 4.656C266.835 4.656 267.523 5.552 267.523 7.024V12H268.659V6.8C268.659 4.992 267.587 3.664 265.571 3.664C264.051 3.664 263.219 4.496 262.931 4.992V-9.53674e-07ZM278.294 3.856H277.206V5.36C276.646 4.32 275.606 3.664 274.118 3.664C271.622 3.664 270.278 5.696 270.278 7.936C270.278 10.176 271.622 12.192 274.118 12.192C275.606 12.192 276.646 11.536 277.206 10.496V12H278.294V3.856ZM271.43 7.936C271.43 6.16 272.518 4.688 274.342 4.688C276.166 4.688 277.206 6.16 277.206 7.936C277.206 9.712 276.166 11.168 274.342 11.168C272.518 11.168 271.43 9.712 271.43 7.936ZM283.483 10.688L280.715 3.856H279.483L282.891 12H284.043L287.483 3.856H286.299L283.483 10.688ZM295.601 8.256C295.601 8.256 295.617 8 295.617 7.824C295.617 5.52 294.129 3.664 291.697 3.664C289.249 3.664 287.697 5.664 287.697 7.92C287.697 10.208 289.137 12.192 291.713 12.192C293.649 12.192 294.993 11.008 295.473 9.456H294.289C293.937 10.448 292.977 11.168 291.729 11.168C290.017 11.168 288.945 9.904 288.833 8.256H295.601ZM291.697 4.688C293.297 4.688 294.337 5.76 294.481 7.328H288.865C289.057 5.824 290.113 4.688 291.697 4.688ZM308.412 3.856H307.324V5.36C306.764 4.32 305.724 3.664 304.236 3.664C301.74 3.664 300.396 5.696 300.396 7.936C300.396 10.176 301.74 12.192 304.236 12.192C305.724 12.192 306.764 11.536 307.324 10.496V12H308.412V3.856ZM301.548 7.936C301.548 6.16 302.636 4.688 304.46 4.688C306.284 4.688 307.324 6.16 307.324 7.936C307.324 9.712 306.284 11.168 304.46 11.168C302.636 11.168 301.548 9.712 301.548 7.936ZM8.816 38H10L12.848 29.856H11.648L9.424 36.656L7.216 29.856H6.032L3.792 36.656L1.6 29.856H0.384L3.2 38H4.384L6.608 31.296H6.624L8.816 38ZM15.2918 26H14.1558V38H15.2918V33.184C15.2918 31.52 16.3638 30.656 17.7398 30.656C19.1958 30.656 19.8838 31.552 19.8838 33.024V38H21.0198V32.8C21.0198 30.992 19.9478 29.664 17.9318 29.664C16.4118 29.664 15.5798 30.496 15.2918 30.992V26ZM23.8237 27.84C24.2877 27.84 24.6397 27.52 24.6397 27.056C24.6397 26.576 24.2877 26.24 23.8237 26.24C23.3437 26.24 23.0077 26.576 23.0077 27.056C23.0077 27.52 23.3437 27.84 23.8237 27.84ZM23.2477 38H24.3837V29.856H23.2477V38ZM28.1866 30.816H29.8506V29.856H28.1866V27.536H27.0506V29.856H25.4986V30.816H27.0506V38H28.1866V30.816ZM38.0244 34.256C38.0244 34.256 38.0404 34 38.0404 33.824C38.0404 31.52 36.5524 29.664 34.1204 29.664C31.6724 29.664 30.1204 31.664 30.1204 33.92C30.1204 36.208 31.5604 38.192 34.1364 38.192C36.0724 38.192 37.4164 37.008 37.8964 35.456H36.7124C36.3604 36.448 35.4004 37.168 34.1524 37.168C32.4404 37.168 31.3684 35.904 31.2564 34.256H38.0244ZM34.1204 30.688C35.7204 30.688 36.7604 31.76 36.9044 33.328H31.2884C31.4804 31.824 32.5364 30.688 34.1204 30.688ZM43.9822 33.392H39.0542V34.464H43.9822V33.392ZM51.9193 31.344C51.3433 30.32 50.3193 29.664 48.8473 29.664C46.3993 29.664 45.0073 31.632 45.0073 33.824C45.0073 36.016 46.3993 37.984 48.8473 37.984C50.3193 37.984 51.3113 37.312 51.8713 36.336V37.856C51.8713 39.376 50.8953 40.48 49.2313 40.48C47.9033 40.48 46.9753 39.856 46.6553 38.912H45.4873C45.7593 40.144 46.8953 41.504 49.1993 41.504C51.7593 41.504 53.0073 39.792 53.0073 37.6V29.856H51.9193V31.344ZM51.9193 33.824C51.9193 35.584 50.8473 36.976 49.0553 36.976C47.2793 36.976 46.1593 35.584 46.1593 33.824C46.1593 32.064 47.2793 30.688 49.0553 30.688C50.8473 30.688 51.9193 32.064 51.9193 33.824ZM56.3901 38V26H55.2541V38H56.3901ZM62.257 38.192C64.833 38.192 66.417 36.176 66.417 33.936C66.417 31.696 64.833 29.664 62.257 29.664C59.697 29.664 58.113 31.696 58.113 33.936C58.113 36.176 59.697 38.192 62.257 38.192ZM59.265 33.936C59.265 32.096 60.449 30.688 62.257 30.688C64.081 30.688 65.265 32.096 65.265 33.936C65.265 35.76 64.081 37.168 62.257 37.168C60.449 37.168 59.265 35.76 59.265 33.936ZM70.7082 36.688L67.9402 29.856H66.7082L70.1162 38H71.2682L74.7082 29.856H73.5242L70.7082 36.688ZM82.8259 34.256C82.8259 34.256 82.8419 34 82.8419 33.824C82.8419 31.52 81.3539 29.664 78.9219 29.664C76.4739 29.664 74.9219 31.664 74.9219 33.92C74.9219 36.208 76.3619 38.192 78.9379 38.192C80.8739 38.192 82.2179 37.008 82.6979 35.456H81.5139C81.1619 36.448 80.2019 37.168 78.9539 37.168C77.2419 37.168 76.1699 35.904 76.0579 34.256H82.8259ZM78.9219 30.688C80.5219 30.688 81.5619 31.76 81.7059 33.328H76.0899C76.2819 31.824 77.3379 30.688 78.9219 30.688ZM94.5013 31.328C93.9573 30.352 92.9493 29.664 91.4613 29.664C88.9653 29.664 87.6213 31.68 87.6213 33.936C87.6213 36.176 88.9653 38.192 91.4613 38.192C92.9493 38.192 93.9893 37.536 94.5493 36.496V38H95.6373V26H94.5013V31.328ZM94.5493 33.936C94.5493 35.712 93.5093 37.168 91.6853 37.168C89.8613 37.168 88.7733 35.712 88.7733 33.936C88.7733 32.128 89.8613 30.688 91.6853 30.688C93.5093 30.688 94.5493 32.128 94.5493 33.936ZM105.258 34.256C105.258 34.256 105.274 34 105.274 33.824C105.274 31.52 103.786 29.664 101.354 29.664C98.9059 29.664 97.3539 31.664 97.3539 33.92C97.3539 36.208 98.7939 38.192 101.37 38.192C103.306 38.192 104.65 37.008 105.13 35.456H103.946C103.594 36.448 102.634 37.168 101.386 37.168C99.6739 37.168 98.6019 35.904 98.4899 34.256H105.258ZM101.354 30.688C102.954 30.688 103.994 31.76 104.138 33.328H98.5219C98.7139 31.824 99.7699 30.688 101.354 30.688ZM108.112 38V26H106.976V38H108.112ZM111.019 27.84C111.483 27.84 111.835 27.52 111.835 27.056C111.835 26.576 111.483 26.24 111.019 26.24C110.539 26.24 110.203 26.576 110.203 27.056C110.203 27.52 110.539 27.84 111.019 27.84ZM110.443 38H111.579V29.856H110.443V38ZM116.773 36.688L114.005 29.856H112.773L116.181 38H117.333L120.773 29.856H119.589L116.773 36.688ZM128.891 34.256C128.891 34.256 128.907 34 128.907 33.824C128.907 31.52 127.419 29.664 124.987 29.664C122.539 29.664 120.987 31.664 120.987 33.92C120.987 36.208 122.427 38.192 125.003 38.192C126.939 38.192 128.283 37.008 128.763 35.456H127.579C127.227 36.448 126.267 37.168 125.019 37.168C123.307 37.168 122.235 35.904 122.123 34.256H128.891ZM124.987 30.688C126.587 30.688 127.627 31.76 127.771 33.328H122.155C122.347 31.824 123.403 30.688 124.987 30.688ZM134.577 29.792C134.577 29.792 134.385 29.776 134.305 29.776C132.801 29.776 132.001 30.56 131.697 31.12V29.856H130.609V38H131.745V33.376C131.745 31.68 132.785 30.848 134.177 30.848C134.385 30.848 134.577 30.864 134.577 30.864V29.792ZM136.628 41.328H137.78L142.612 29.856H141.412L138.612 36.688L135.844 29.856H134.612L138.02 38L136.628 41.328ZM150.086 38.192C152.294 38.192 153.334 37.024 153.334 35.792C153.334 32.368 148.294 34.272 148.294 32.016C148.294 31.28 148.918 30.656 150.182 30.656C151.478 30.656 152.086 31.36 152.182 32.24H153.318C153.222 31.136 152.47 29.664 150.214 29.664C148.278 29.664 147.19 30.816 147.19 32.064C147.19 35.408 152.23 33.488 152.23 35.824C152.23 36.64 151.462 37.2 150.086 37.2C148.678 37.2 147.974 36.496 147.894 35.456H146.742C146.838 36.88 147.734 38.192 150.086 38.192ZM162.366 34.256C162.366 34.256 162.382 34 162.382 33.824C162.382 31.52 160.894 29.664 158.462 29.664C156.014 29.664 154.462 31.664 154.462 33.92C154.462 36.208 155.902 38.192 158.478 38.192C160.414 38.192 161.758 37.008 162.238 35.456H161.054C160.702 36.448 159.742 37.168 158.494 37.168C156.782 37.168 155.71 35.904 155.598 34.256H162.366ZM158.462 30.688C160.062 30.688 161.102 31.76 161.246 33.328H155.63C155.822 31.824 156.878 30.688 158.462 30.688ZM168.052 29.792C168.052 29.792 167.86 29.776 167.78 29.776C166.276 29.776 165.476 30.56 165.172 31.12V29.856H164.084V38H165.22V33.376C165.22 31.68 166.26 30.848 167.652 30.848C167.86 30.848 168.052 30.864 168.052 30.864V29.792ZM172.087 36.688L169.319 29.856H168.087L171.495 38H172.647L176.087 29.856H174.903L172.087 36.688ZM177.844 27.84C178.308 27.84 178.66 27.52 178.66 27.056C178.66 26.576 178.308 26.24 177.844 26.24C177.364 26.24 177.028 26.576 177.028 27.056C177.028 27.52 177.364 27.84 177.844 27.84ZM177.268 38H178.404V29.856H177.268V38ZM180.127 33.936C180.127 36.16 181.663 38.192 184.143 38.192C186.351 38.192 187.631 36.72 187.951 35.104H186.799C186.463 36.368 185.535 37.168 184.143 37.168C182.431 37.168 181.279 35.808 181.279 33.936C181.279 32.048 182.431 30.688 184.143 30.688C185.535 30.688 186.463 31.488 186.799 32.752H187.951C187.631 31.136 186.351 29.664 184.143 29.664C181.663 29.664 180.127 31.696 180.127 33.936ZM196.701 34.256C196.701 34.256 196.717 34 196.717 33.824C196.717 31.52 195.229 29.664 192.797 29.664C190.349 29.664 188.797 31.664 188.797 33.92C188.797 36.208 190.237 38.192 192.813 38.192C194.749 38.192 196.093 37.008 196.573 35.456H195.389C195.037 36.448 194.077 37.168 192.829 37.168C191.117 37.168 190.045 35.904 189.933 34.256H196.701ZM192.797 30.688C194.397 30.688 195.437 31.76 195.581 33.328H189.965C190.157 31.824 191.213 30.688 192.797 30.688ZM208.376 31.328C207.832 30.352 206.824 29.664 205.336 29.664C202.84 29.664 201.496 31.68 201.496 33.936C201.496 36.176 202.84 38.192 205.336 38.192C206.824 38.192 207.864 37.536 208.424 36.496V38H209.512V26H208.376V31.328ZM208.424 33.936C208.424 35.712 207.384 37.168 205.56 37.168C203.736 37.168 202.648 35.712 202.648 33.936C202.648 32.128 203.736 30.688 205.56 30.688C207.384 30.688 208.424 32.128 208.424 33.936ZM219.133 34.256C219.133 34.256 219.149 34 219.149 33.824C219.149 31.52 217.661 29.664 215.229 29.664C212.781 29.664 211.229 31.664 211.229 33.92C211.229 36.208 212.669 38.192 215.245 38.192C217.181 38.192 218.525 37.008 219.005 35.456H217.821C217.469 36.448 216.509 37.168 215.261 37.168C213.549 37.168 212.477 35.904 212.365 34.256H219.133ZM215.229 30.688C216.829 30.688 217.869 31.76 218.013 33.328H212.397C212.589 31.824 213.645 30.688 215.229 30.688ZM221.987 38V26H220.851V38H221.987ZM224.894 27.84C225.358 27.84 225.71 27.52 225.71 27.056C225.71 26.576 225.358 26.24 224.894 26.24C224.414 26.24 224.078 26.576 224.078 27.056C224.078 27.52 224.414 27.84 224.894 27.84ZM224.318 38H225.454V29.856H224.318V38ZM230.648 36.688L227.88 29.856H226.648L230.056 38H231.208L234.648 29.856H233.464L230.648 36.688ZM242.766 34.256C242.766 34.256 242.782 34 242.782 33.824C242.782 31.52 241.294 29.664 238.862 29.664C236.414 29.664 234.862 31.664 234.862 33.92C234.862 36.208 236.302 38.192 238.878 38.192C240.814 38.192 242.158 37.008 242.638 35.456H241.454C241.102 36.448 240.142 37.168 238.894 37.168C237.182 37.168 236.11 35.904 235.998 34.256H242.766ZM238.862 30.688C240.462 30.688 241.502 31.76 241.646 33.328H236.03C236.222 31.824 237.278 30.688 238.862 30.688ZM248.452 29.792C248.452 29.792 248.26 29.776 248.18 29.776C246.676 29.776 245.876 30.56 245.572 31.12V29.856H244.484V38H245.62V33.376C245.62 31.68 246.66 30.848 248.052 30.848C248.26 30.848 248.452 30.864 248.452 30.864V29.792ZM254.188 41.328H255.34L260.172 29.856H258.972L256.172 36.688L253.404 29.856H252.172L255.58 38L254.188 41.328ZM264.608 38.192C267.184 38.192 268.768 36.176 268.768 33.936C268.768 31.696 267.184 29.664 264.608 29.664C262.048 29.664 260.464 31.696 260.464 33.936C260.464 36.176 262.048 38.192 264.608 38.192ZM261.616 33.936C261.616 32.096 262.8 30.688 264.608 30.688C266.432 30.688 267.616 32.096 267.616 33.936C267.616 35.76 266.432 37.168 264.608 37.168C262.8 37.168 261.616 35.76 261.616 33.936ZM273.773 38.192C276.077 38.192 277.149 36.72 277.149 34.912V29.856H276.013V34.832C276.013 36.304 275.229 37.2 273.773 37.2C272.317 37.2 271.533 36.304 271.533 34.832V29.856H270.397V34.912C270.397 36.72 271.469 38.192 273.773 38.192ZM283.349 29.792C283.349 29.792 283.157 29.776 283.077 29.776C281.573 29.776 280.773 30.56 280.469 31.12V29.856H279.381V38H280.517V33.376C280.517 31.68 281.557 30.848 282.949 30.848C283.157 30.848 283.349 30.864 283.349 30.864V29.792ZM289.293 29.856H288.205V38H289.341V33.152C289.341 31.52 290.413 30.656 291.789 30.656C293.245 30.656 293.933 31.552 293.933 33.024V38H295.069V32.8C295.069 30.992 293.997 29.664 291.981 29.664C290.397 29.664 289.581 30.576 289.293 31.104V29.856ZM304.593 34.256C304.593 34.256 304.609 34 304.609 33.824C304.609 31.52 303.121 29.664 300.689 29.664C298.241 29.664 296.689 31.664 296.689 33.92C296.689 36.208 298.129 38.192 300.705 38.192C302.641 38.192 303.985 37.008 304.465 35.456H303.281C302.929 36.448 301.969 37.168 300.721 37.168C299.009 37.168 297.937 35.904 297.825 34.256H304.593ZM300.689 30.688C302.289 30.688 303.329 31.76 303.473 33.328H297.857C298.049 31.824 299.105 30.688 300.689 30.688ZM313.376 38H314.56L317.408 29.856H316.208L313.984 36.656L311.776 29.856H310.592L308.352 36.656L306.16 29.856H304.944L307.76 38H308.944L311.168 31.296H311.184L313.376 38ZM4.256 62.688L1.488 55.856H0.256L3.664 64H4.816L8.256 55.856H7.072L4.256 62.688ZM16.3737 60.256C16.3737 60.256 16.3897 60 16.3897 59.824C16.3897 57.52 14.9017 55.664 12.4697 55.664C10.0217 55.664 8.46966 57.664 8.46966 59.92C8.46966 62.208 9.90966 64.192 12.4857 64.192C14.4217 64.192 15.7657 63.008 16.2457 61.456H15.0617C14.7097 62.448 13.7497 63.168 12.5017 63.168C10.7897 63.168 9.71766 61.904 9.60566 60.256H16.3737ZM12.4697 56.688C14.0697 56.688 15.1097 57.76 15.2537 59.328H9.63766C9.82966 57.824 10.8857 56.688 12.4697 56.688ZM19.2274 52H18.0914V64H19.2274V59.184C19.2274 57.52 20.2994 56.656 21.6754 56.656C23.1314 56.656 23.8194 57.552 23.8194 59.024V64H24.9554V58.8C24.9554 56.992 23.8834 55.664 21.8674 55.664C20.3474 55.664 19.5154 56.496 19.2274 56.992V52ZM27.7594 53.84C28.2234 53.84 28.5754 53.52 28.5754 53.056C28.5754 52.576 28.2234 52.24 27.7594 52.24C27.2794 52.24 26.9434 52.576 26.9434 53.056C26.9434 53.52 27.2794 53.84 27.7594 53.84ZM27.1834 64H28.3194V55.856H27.1834V64ZM30.0423 59.936C30.0423 62.16 31.5783 64.192 34.0583 64.192C36.2663 64.192 37.5463 62.72 37.8663 61.104H36.7143C36.3783 62.368 35.4503 63.168 34.0583 63.168C32.3463 63.168 31.1943 61.808 31.1943 59.936C31.1943 58.048 32.3463 56.688 34.0583 56.688C35.4503 56.688 36.3783 57.488 36.7143 58.752H37.8663C37.5463 57.136 36.2663 55.664 34.0583 55.664C31.5783 55.664 30.0423 57.696 30.0423 59.936ZM40.5501 64V52H39.4141V64H40.5501ZM50.177 60.256C50.177 60.256 50.193 60 50.193 59.824C50.193 57.52 48.705 55.664 46.273 55.664C43.825 55.664 42.273 57.664 42.273 59.92C42.273 62.208 43.713 64.192 46.289 64.192C48.225 64.192 49.569 63.008 50.049 61.456H48.865C48.513 62.448 47.553 63.168 46.305 63.168C44.593 63.168 43.521 61.904 43.409 60.256H50.177ZM46.273 56.688C47.873 56.688 48.913 57.76 49.057 59.328H43.441C43.633 57.824 44.689 56.688 46.273 56.688ZM59.5484 55.792C59.5484 55.792 59.3564 55.776 59.2764 55.776C57.7724 55.776 56.9724 56.56 56.6684 57.12V55.856H55.5804V64H56.7164V59.376C56.7164 57.68 57.7564 56.848 59.1484 56.848C59.3564 56.848 59.5484 56.864 59.5484 56.864V55.792ZM61.2952 53.84C61.7592 53.84 62.1112 53.52 62.1112 53.056C62.1112 52.576 61.7592 52.24 61.2952 52.24C60.8152 52.24 60.4792 52.576 60.4792 53.056C60.4792 53.52 60.8152 53.84 61.2952 53.84ZM60.7192 64H61.8552V55.856H60.7192V64ZM70.4901 57.344C69.9141 56.32 68.8901 55.664 67.4181 55.664C64.9701 55.664 63.5781 57.632 63.5781 59.824C63.5781 62.016 64.9701 63.984 67.4181 63.984C68.8901 63.984 69.8821 63.312 70.4421 62.336V63.856C70.4421 65.376 69.4661 66.48 67.8021 66.48C66.4741 66.48 65.5461 65.856 65.2261 64.912H64.0581C64.3301 66.144 65.4661 67.504 67.7701 67.504C70.3301 67.504 71.5781 65.792 71.5781 63.6V55.856H70.4901V57.344ZM70.4901 59.824C70.4901 61.584 69.4181 62.976 67.6261 62.976C65.8501 62.976 64.7301 61.584 64.7301 59.824C64.7301 58.064 65.8501 56.688 67.6261 56.688C69.4181 56.688 70.4901 58.064 70.4901 59.824ZM74.9609 52H73.8249V64H74.9609V59.184C74.9609 57.52 76.0329 56.656 77.4089 56.656C78.8649 56.656 79.5529 57.552 79.5529 59.024V64H80.6889V58.8C80.6889 56.992 79.6169 55.664 77.6009 55.664C76.0809 55.664 75.2489 56.496 74.9609 56.992V52ZM84.3888 56.816H86.0528V55.856H84.3888V53.536H83.2528V55.856H81.7008V56.816H83.2528V64H84.3888V56.816ZM92.2601 56.816H93.9241V55.856H92.2601V53.536H91.1241V55.856H89.5721V56.816H91.1241V64H92.2601V56.816ZM98.3379 64.192C100.914 64.192 102.498 62.176 102.498 59.936C102.498 57.696 100.914 55.664 98.3379 55.664C95.7779 55.664 94.1939 57.696 94.1939 59.936C94.1939 62.176 95.7779 64.192 98.3379 64.192ZM95.3459 59.936C95.3459 58.096 96.5299 56.688 98.3379 56.688C100.162 56.688 101.346 58.096 101.346 59.936C101.346 61.76 100.162 63.168 98.3379 63.168C96.5299 63.168 95.3459 61.76 95.3459 59.936ZM108.772 67.328H109.924L114.756 55.856H113.556L110.756 62.688L107.988 55.856H106.756L110.164 64L108.772 67.328ZM119.192 64.192C121.768 64.192 123.352 62.176 123.352 59.936C123.352 57.696 121.768 55.664 119.192 55.664C116.632 55.664 115.048 57.696 115.048 59.936C115.048 62.176 116.632 64.192 119.192 64.192ZM116.2 59.936C116.2 58.096 117.384 56.688 119.192 56.688C121.016 56.688 122.2 58.096 122.2 59.936C122.2 61.76 121.016 63.168 119.192 63.168C117.384 63.168 116.2 61.76 116.2 59.936ZM128.356 64.192C130.66 64.192 131.732 62.72 131.732 60.912V55.856H130.596V60.832C130.596 62.304 129.812 63.2 128.356 63.2C126.9 63.2 126.116 62.304 126.116 60.832V55.856H124.98V60.912C124.98 62.72 126.052 64.192 128.356 64.192ZM137.933 55.792C137.933 55.792 137.741 55.776 137.661 55.776C136.157 55.776 135.357 56.56 135.053 57.12V55.856H133.965V64H135.101V59.376C135.101 57.68 136.141 56.848 137.533 56.848C137.741 56.848 137.933 56.864 137.933 56.864V55.792ZM149.061 57.328C148.517 56.352 147.509 55.664 146.021 55.664C143.525 55.664 142.181 57.68 142.181 59.936C142.181 62.176 143.525 64.192 146.021 64.192C147.509 64.192 148.549 63.536 149.109 62.496V64H150.197V52H149.061V57.328ZM149.109 59.936C149.109 61.712 148.069 63.168 146.245 63.168C144.421 63.168 143.333 61.712 143.333 59.936C143.333 58.128 144.421 56.688 146.245 56.688C148.069 56.688 149.109 58.128 149.109 59.936ZM156.058 64.192C158.634 64.192 160.218 62.176 160.218 59.936C160.218 57.696 158.634 55.664 156.058 55.664C153.498 55.664 151.914 57.696 151.914 59.936C151.914 62.176 153.498 64.192 156.058 64.192ZM153.066 59.936C153.066 58.096 154.25 56.688 156.058 56.688C157.882 56.688 159.066 58.096 159.066 59.936C159.066 61.76 157.882 63.168 156.058 63.168C154.25 63.168 153.066 61.76 153.066 59.936ZM165.462 64.192C168.038 64.192 169.622 62.176 169.622 59.936C169.622 57.696 168.038 55.664 165.462 55.664C162.902 55.664 161.318 57.696 161.318 59.936C161.318 62.176 162.902 64.192 165.462 64.192ZM162.47 59.936C162.47 58.096 163.654 56.688 165.462 56.688C167.286 56.688 168.47 58.096 168.47 59.936C168.47 61.76 167.286 63.168 165.462 63.168C163.654 63.168 162.47 61.76 162.47 59.936ZM175.298 55.792C175.298 55.792 175.106 55.776 175.026 55.776C173.522 55.776 172.722 56.56 172.418 57.12V55.856H171.33V64H172.466V59.376C172.466 57.68 173.506 56.848 174.898 56.848C175.106 56.848 175.298 56.864 175.298 56.864V55.792ZM175.399 64.128C175.895 64.128 176.279 63.776 176.279 63.264C176.279 62.768 175.895 62.4 175.399 62.4C174.887 62.4 174.519 62.768 174.519 63.264C174.519 63.776 174.887 64.128 175.399 64.128Z" fill="black"/>
</svg>
