<svg width="388" height="167" viewBox="0 0 388 167" fill="none" xmlns="http://www.w3.org/2000/svg">
<path d="M20.33 1.5C25.5233 1.5 29.4183 2.89333 32.015 5.68C34.6117 8.46666 35.91 12.5517 35.91 17.935V51.565C35.91 56.9483 34.6117 61.0333 32.015 63.82C29.4183 66.6067 25.5233 68 20.33 68H3.8V1.5H20.33ZM14.25 58.5H20.14C21.85 58.5 23.1483 57.9933 24.035 56.98C24.985 55.9667 25.46 54.32 25.46 52.04V17.46C25.46 15.18 24.985 13.5333 24.035 12.52C23.1483 11.5067 21.85 11 20.14 11H14.25V58.5ZM66.9161 29.525V39.025H52.5711V58.5H70.6211V68H42.1211V1.5H70.6211V11H52.5711V29.525H66.9161ZM87.0884 1.5V58.5H104.283V68H76.6384V1.5H87.0884ZM118.823 1.5V68H108.373V1.5H118.823ZM149.755 1.5H159.35L149.09 68H133.51L123.25 1.5H133.795L141.775 55.745L149.755 1.5ZM188.565 29.525V39.025H174.22V58.5H192.27V68H163.77V1.5H192.27V11H174.22V29.525H188.565ZM220.137 68C219.757 66.9233 219.504 65.91 219.377 64.96C219.25 64.01 219.187 62.3 219.187 59.83V49.38C219.187 46.34 218.649 44.1867 217.572 42.92C216.495 41.59 214.754 40.925 212.347 40.925H208.737V68H198.287V1.5H214.057C219.44 1.5 223.367 2.76666 225.837 5.3C228.307 7.77 229.542 11.6017 229.542 16.795V22.02C229.542 28.86 227.262 33.3567 222.702 35.51C225.172 36.5233 226.945 38.2333 228.022 40.64C229.099 42.9833 229.637 45.9917 229.637 49.665V59.925C229.637 61.825 229.7 63.3767 229.827 64.58C229.954 65.72 230.27 66.86 230.777 68H220.137ZM208.737 31.425H212.822C214.912 31.425 216.464 30.8867 217.477 29.81C218.554 28.7333 219.092 26.9283 219.092 24.395V17.84C219.092 15.4333 218.649 13.6917 217.762 12.615C216.939 11.5383 215.609 11 213.772 11H208.737V31.425ZM260.846 29.525V39.025H246.501V58.5H264.551V68H236.051V1.5H264.551V11H246.501V29.525H260.846ZM287.099 1.5C292.292 1.5 296.187 2.89333 298.784 5.68C301.38 8.46666 302.679 12.5517 302.679 17.935V51.565C302.679 56.9483 301.38 61.0333 298.784 63.82C296.187 66.6067 292.292 68 287.099 68H270.569V1.5H287.099ZM281.019 58.5H286.909C288.619 58.5 289.917 57.9933 290.804 56.98C291.754 55.9667 292.229 54.32 292.229 52.04V17.46C292.229 15.18 291.754 13.5333 290.804 12.52C289.917 11.5067 288.619 11 286.909 11H281.019V58.5ZM352.442 1.5V11H341.517V68H331.067V11H320.142V1.5H352.442ZM355.732 17.46C355.732 12.14 357.093 8.02333 359.817 5.10999C362.54 2.19666 366.467 0.74 371.597 0.74C376.727 0.74 380.653 2.19666 383.377 5.10999C386.1 8.02333 387.462 12.14 387.462 17.46V52.04C387.462 57.36 386.1 61.4767 383.377 64.39C380.653 67.3033 376.727 68.76 371.597 68.76C366.467 68.76 362.54 67.3033 359.817 64.39C357.093 61.4767 355.732 57.36 355.732 52.04V17.46ZM366.182 52.705C366.182 57.075 367.987 59.26 371.597 59.26C375.207 59.26 377.012 57.075 377.012 52.705V16.795C377.012 12.425 375.207 10.24 371.597 10.24C367.987 10.24 366.182 12.425 366.182 16.795V52.705ZM0.38 99.5H11.305L19.285 129.805L27.265 99.5H37.24L24.035 143.96V166H13.585V143.96L0.38 99.5ZM38.7612 115.46C38.7612 110.14 40.1228 106.023 42.8462 103.11C45.5695 100.197 49.4962 98.74 54.6262 98.74C59.7562 98.74 63.6828 100.197 66.4062 103.11C69.1295 106.023 70.4912 110.14 70.4912 115.46V150.04C70.4912 155.36 69.1295 159.477 66.4062 162.39C63.6828 165.303 59.7562 166.76 54.6262 166.76C49.4962 166.76 45.5695 165.303 42.8462 162.39C40.1228 159.477 38.7612 155.36 38.7612 150.04V115.46ZM49.2112 150.705C49.2112 155.075 51.0162 157.26 54.6262 157.26C58.2362 157.26 60.0412 155.075 60.0412 150.705V114.795C60.0412 110.425 58.2362 108.24 54.6262 108.24C51.0162 108.24 49.2112 110.425 49.2112 114.795V150.705ZM86.799 150.8C86.799 155.107 88.604 157.26 92.214 157.26C95.824 157.26 97.629 155.107 97.629 150.8V99.5H107.509V150.135C107.509 155.518 106.179 159.667 103.519 162.58C100.859 165.43 96.9956 166.855 91.929 166.855C86.8623 166.855 82.999 165.43 80.339 162.58C77.679 159.667 76.349 155.518 76.349 150.135V99.5H86.799V150.8ZM136.067 166C135.687 164.923 135.434 163.91 135.307 162.96C135.181 162.01 135.117 160.3 135.117 157.83V147.38C135.117 144.34 134.579 142.187 133.502 140.92C132.426 139.59 130.684 138.925 128.277 138.925H124.667V166H114.217V99.5H129.987C135.371 99.5 139.297 100.767 141.767 103.3C144.237 105.77 145.472 109.602 145.472 114.795V120.02C145.472 126.86 143.192 131.357 138.632 133.51C141.102 134.523 142.876 136.233 143.952 138.64C145.029 140.983 145.567 143.992 145.567 147.665V157.925C145.567 159.825 145.631 161.377 145.757 162.58C145.884 163.72 146.201 164.86 146.707 166H136.067ZM124.667 129.425H128.752C130.842 129.425 132.394 128.887 133.407 127.81C134.484 126.733 135.022 124.928 135.022 122.395V115.84C135.022 113.433 134.579 111.692 133.692 110.615C132.869 109.538 131.539 109 129.702 109H124.667V129.425ZM182.804 99.5C187.998 99.5 191.893 100.893 194.489 103.68C197.086 106.467 198.384 110.552 198.384 115.935V149.565C198.384 154.948 197.086 159.033 194.489 161.82C191.893 164.607 187.998 166 182.804 166H166.274V99.5H182.804ZM176.724 156.5H182.614C184.324 156.5 185.623 155.993 186.509 154.98C187.459 153.967 187.934 152.32 187.934 150.04V115.46C187.934 113.18 187.459 111.533 186.509 110.52C185.623 109.507 184.324 109 182.614 109H176.724V156.5ZM203.741 115.46C203.741 110.14 205.102 106.023 207.826 103.11C210.549 100.197 214.476 98.74 219.606 98.74C224.736 98.74 228.662 100.197 231.386 103.11C234.109 106.023 235.471 110.14 235.471 115.46V150.04C235.471 155.36 234.109 159.477 231.386 162.39C228.662 165.303 224.736 166.76 219.606 166.76C214.476 166.76 210.549 165.303 207.826 162.39C205.102 159.477 203.741 155.36 203.741 150.04V115.46ZM214.191 150.705C214.191 155.075 215.996 157.26 219.606 157.26C223.216 157.26 225.021 155.075 225.021 150.705V114.795C225.021 110.425 223.216 108.24 219.606 108.24C215.996 108.24 214.191 110.425 214.191 114.795V150.705ZM240.948 115.46C240.948 110.14 242.31 106.023 245.033 103.11C247.757 100.197 251.683 98.74 256.813 98.74C261.943 98.74 265.87 100.197 268.593 103.11C271.317 106.023 272.678 110.14 272.678 115.46V150.04C272.678 155.36 271.317 159.477 268.593 162.39C265.87 165.303 261.943 166.76 256.813 166.76C251.683 166.76 247.757 165.303 245.033 162.39C242.31 159.477 240.948 155.36 240.948 150.04V115.46ZM251.398 150.705C251.398 155.075 253.203 157.26 256.813 157.26C260.423 157.26 262.228 155.075 262.228 150.705V114.795C262.228 110.425 260.423 108.24 256.813 108.24C253.203 108.24 251.398 110.425 251.398 114.795V150.705ZM300.861 166C300.481 164.923 300.228 163.91 300.101 162.96C299.974 162.01 299.911 160.3 299.911 157.83V147.38C299.911 144.34 299.373 142.187 298.296 140.92C297.219 139.59 295.478 138.925 293.071 138.925H289.461V166H279.011V99.5H294.781C300.164 99.5 304.091 100.767 306.561 103.3C309.031 105.77 310.266 109.602 310.266 114.795V120.02C310.266 126.86 307.986 131.357 303.426 133.51C305.896 134.523 307.669 136.233 308.746 138.64C309.823 140.983 310.361 143.992 310.361 147.665V157.925C310.361 159.825 310.424 161.377 310.551 162.58C310.678 163.72 310.994 164.86 311.501 166H300.861ZM289.461 129.425H293.546C295.636 129.425 297.188 128.887 298.201 127.81C299.278 126.733 299.816 124.928 299.816 122.395V115.84C299.816 113.433 299.373 111.692 298.486 110.615C297.663 109.538 296.333 109 294.496 109H289.461V129.425ZM326.845 166H316.775V155.93H326.845V166Z" fill="#2B3144"/>
</svg>
