<svg width="542" height="167" viewBox="0 0 542 167" fill="none" xmlns="http://www.w3.org/2000/svg">
<path d="M33.06 1.5V11H22.135V68H11.685V11H0.76V1.5H33.06ZM59.0541 68C58.6741 66.9233 58.4207 65.91 58.2941 64.96C58.1674 64.01 58.1041 62.3 58.1041 59.83V49.38C58.1041 46.34 57.5657 44.1867 56.4891 42.92C55.4124 41.59 53.6707 40.925 51.2641 40.925H47.6541V68H37.2041V1.5H52.9741C58.3574 1.5 62.2841 2.76666 64.7541 5.3C67.2241 7.77 68.4591 11.6017 68.4591 16.795V22.02C68.4591 28.86 66.1791 33.3567 61.6191 35.51C64.0891 36.5233 65.8624 38.2333 66.9391 40.64C68.0157 42.9833 68.5541 45.9917 68.5541 49.665V59.925C68.5541 61.825 68.6174 63.3767 68.7441 64.58C68.8707 65.72 69.1874 66.86 69.6941 68H59.0541ZM47.6541 31.425H51.7391C53.8291 31.425 55.3807 30.8867 56.3941 29.81C57.4707 28.7333 58.0091 26.9283 58.0091 24.395V17.84C58.0091 15.4333 57.5657 13.6917 56.6791 12.615C55.8557 11.5383 54.5257 11 52.6891 11H47.6541V31.425ZM98.2435 68L96.4385 55.935H83.6135L81.8085 68H72.2135L82.8535 1.5H98.1485L108.788 68H98.2435ZM95.0135 46.91L89.9785 13.28L84.9435 46.91H95.0135ZM129.727 1.5C134.92 1.5 138.815 2.89333 141.412 5.68C144.008 8.46666 145.307 12.5517 145.307 17.935V51.565C145.307 56.9483 144.008 61.0333 141.412 63.82C138.815 66.6067 134.92 68 129.727 68H113.197V1.5H129.727ZM123.647 58.5H129.537C131.247 58.5 132.545 57.9933 133.432 56.98C134.382 55.9667 134.857 54.32 134.857 52.04V17.46C134.857 15.18 134.382 13.5333 133.432 12.52C132.545 11.5067 131.247 11 129.537 11H123.647V58.5ZM176.313 29.525V39.025H161.968V58.5H180.018V68H151.518V1.5H180.018V11H161.968V29.525H176.313ZM210.778 1.5V68H200.328V1.5H210.778ZM227.271 68H217.866V1.5H230.976L241.711 41.305V1.5H251.021V68H240.286L227.271 19.835V68ZM268.917 1.5H279.842L287.822 31.805L295.802 1.5H305.777L292.572 45.96V68H282.122V45.96L268.917 1.5ZM307.298 17.46C307.298 12.14 308.66 8.02333 311.383 5.10999C314.107 2.19666 318.033 0.74 323.163 0.74C328.293 0.74 332.22 2.19666 334.943 5.10999C337.667 8.02333 339.028 12.14 339.028 17.46V52.04C339.028 57.36 337.667 61.4767 334.943 64.39C332.22 67.3033 328.293 68.76 323.163 68.76C318.033 68.76 314.107 67.3033 311.383 64.39C308.66 61.4767 307.298 57.36 307.298 52.04V17.46ZM317.748 52.705C317.748 57.075 319.553 59.26 323.163 59.26C326.773 59.26 328.578 57.075 328.578 52.705V16.795C328.578 12.425 326.773 10.24 323.163 10.24C319.553 10.24 317.748 12.425 317.748 16.795V52.705ZM355.336 52.8C355.336 57.1067 357.141 59.26 360.751 59.26C364.361 59.26 366.166 57.1067 366.166 52.8V1.5H376.046V52.135C376.046 57.5183 374.716 61.6667 372.056 64.58C369.396 67.43 365.533 68.855 360.466 68.855C355.399 68.855 351.536 67.43 348.876 64.58C346.216 61.6667 344.886 57.5183 344.886 52.135V1.5H355.336V52.8ZM404.604 68C404.224 66.9233 403.971 65.91 403.844 64.96C403.718 64.01 403.654 62.3 403.654 59.83V49.38C403.654 46.34 403.116 44.1867 402.039 42.92C400.963 41.59 399.221 40.925 396.814 40.925H393.204V68H382.754V1.5H398.524C403.908 1.5 407.834 2.76666 410.304 5.3C412.774 7.77 414.009 11.6017 414.009 16.795V22.02C414.009 28.86 411.729 33.3567 407.169 35.51C409.639 36.5233 411.413 38.2333 412.489 40.64C413.566 42.9833 414.104 45.9917 414.104 49.665V59.925C414.104 61.825 414.168 63.3767 414.294 64.58C414.421 65.72 414.738 66.86 415.244 68H404.604ZM393.204 31.425H397.289C399.379 31.425 400.931 30.8867 401.944 29.81C403.021 28.7333 403.559 26.9283 403.559 24.395V17.84C403.559 15.4333 403.116 13.6917 402.229 12.615C401.406 11.5383 400.076 11 398.239 11H393.204V31.425ZM465.116 52.04C465.116 57.4233 463.786 61.5717 461.126 64.485C458.466 67.335 454.603 68.76 449.536 68.76C444.47 68.76 440.606 67.335 437.946 64.485C435.286 61.5717 433.956 57.4233 433.956 52.04V17.46C433.956 12.0767 435.286 7.96 437.946 5.10999C440.606 2.19666 444.47 0.74 449.536 0.74C454.603 0.74 458.466 2.19666 461.126 5.10999C463.786 7.96 465.116 12.0767 465.116 17.46V23.92H455.236V16.795C455.236 12.425 453.431 10.24 449.821 10.24C446.211 10.24 444.406 12.425 444.406 16.795V52.705C444.406 57.0117 446.211 59.165 449.821 59.165C453.431 59.165 455.236 57.0117 455.236 52.705V43.205H465.116V52.04ZM494.274 68L492.469 55.935H479.644L477.839 68H468.244L478.884 1.5H494.179L504.819 68H494.274ZM491.044 46.91L486.009 13.28L480.974 46.91H491.044ZM531.077 68C530.697 66.9233 530.444 65.91 530.317 64.96C530.19 64.01 530.127 62.3 530.127 59.83V49.38C530.127 46.34 529.589 44.1867 528.512 42.92C527.435 41.59 525.694 40.925 523.287 40.925H519.677V68H509.227V1.5H524.997C530.38 1.5 534.307 2.76666 536.777 5.3C539.247 7.77 540.482 11.6017 540.482 16.795V22.02C540.482 28.86 538.202 33.3567 533.642 35.51C536.112 36.5233 537.885 38.2333 538.962 40.64C540.039 42.9833 540.577 45.9917 540.577 49.665V59.925C540.577 61.825 540.64 63.3767 540.767 64.58C540.894 65.72 541.21 66.86 541.717 68H531.077ZM519.677 31.425H523.762C525.852 31.425 527.404 30.8867 528.417 29.81C529.494 28.7333 530.032 26.9283 530.032 24.395V17.84C530.032 15.4333 529.589 13.6917 528.702 12.615C527.879 11.5383 526.549 11 524.712 11H519.677V31.425ZM28.595 127.525V137.025H14.25V156.5H32.3V166H3.8V99.5H32.3V109H14.25V127.525H28.595ZM62.0674 99.5H71.6624L61.4024 166H45.8223L35.5623 99.5H46.1074L54.0874 153.745L62.0674 99.5ZM100.877 127.525V137.025H86.5318V156.5H104.582V166H76.0818V99.5H104.582V109H86.5318V127.525H100.877ZM132.449 166C132.069 164.923 131.816 163.91 131.689 162.96C131.562 162.01 131.499 160.3 131.499 157.83V147.38C131.499 144.34 130.961 142.187 129.884 140.92C128.807 139.59 127.066 138.925 124.659 138.925H121.049V166H110.599V99.5H126.369C131.752 99.5 135.679 100.767 138.149 103.3C140.619 105.77 141.854 109.602 141.854 114.795V120.02C141.854 126.86 139.574 131.357 135.014 133.51C137.484 134.523 139.257 136.233 140.334 138.64C141.411 140.983 141.949 143.992 141.949 147.665V157.925C141.949 159.825 142.012 161.377 142.139 162.58C142.266 163.72 142.582 164.86 143.089 166H132.449ZM121.049 129.425H125.134C127.224 129.425 128.776 128.887 129.789 127.81C130.866 126.733 131.404 124.928 131.404 122.395V115.84C131.404 113.433 130.961 111.692 130.074 110.615C129.251 109.538 127.921 109 126.084 109H121.049V129.425ZM144.016 99.5H154.941L162.921 129.805L170.901 99.5H180.876L167.671 143.96V166H157.221V143.96L144.016 99.5ZM228.196 99.5H242.731V166H232.851V118.31L225.631 166H215.751L207.961 118.975V166H198.841V99.5H213.376L221.071 146.715L228.196 99.5ZM249.02 115.46C249.02 110.14 250.381 106.023 253.105 103.11C255.828 100.197 259.755 98.74 264.885 98.74C270.015 98.74 273.941 100.197 276.665 103.11C279.388 106.023 280.75 110.14 280.75 115.46V150.04C280.75 155.36 279.388 159.477 276.665 162.39C273.941 165.303 270.015 166.76 264.885 166.76C259.755 166.76 255.828 165.303 253.105 162.39C250.381 159.477 249.02 155.36 249.02 150.04V115.46ZM259.47 150.705C259.47 155.075 261.275 157.26 264.885 157.26C268.495 157.26 270.3 155.075 270.3 150.705V114.795C270.3 110.425 268.495 108.24 264.885 108.24C261.275 108.24 259.47 110.425 259.47 114.795V150.705ZM296.392 166H286.987V99.5H300.097L310.832 139.305V99.5H320.142V166H309.407L296.392 117.835V166ZM356.426 99.5V109H345.501V166H335.051V109H324.126V99.5H356.426ZM360.57 166V99.5H371.02V128H382.895V99.5H393.535V166H382.895V137.5H371.02V166H360.57ZM410.724 166H400.654V155.93H410.724V166Z" fill="#2B3144"/>
</svg>
