<svg width="392" height="65" viewBox="0 0 392 65" fill="none" xmlns="http://www.w3.org/2000/svg">
<path d="M5.888 12.24C8.528 12.24 10.4 10.608 10.4 7.312V0.639999H9.232V7.424C9.232 9.68 8.048 11.168 5.888 11.168C3.728 11.168 2.544 9.68 2.544 7.424V0.639999H1.376V7.312C1.376 10.608 3.232 12.24 5.888 12.24ZM15.3107 12.192C17.5187 12.192 18.5587 11.024 18.5587 9.792C18.5587 6.368 13.5187 8.272 13.5187 6.016C13.5187 5.28 14.1427 4.656 15.4067 4.656C16.7027 4.656 17.3107 5.36 17.4067 6.24H18.5427C18.4467 5.136 17.6947 3.664 15.4387 3.664C13.5027 3.664 12.4147 4.816 12.4147 6.064C12.4147 9.408 17.4547 7.488 17.4547 9.824C17.4547 10.64 16.6867 11.2 15.3107 11.2C13.9027 11.2 13.1987 10.496 13.1187 9.456H11.9667C12.0627 10.88 12.9587 12.192 15.3107 12.192ZM27.5906 8.256C27.5906 8.256 27.6066 8 27.6066 7.824C27.6066 5.52 26.1186 3.664 23.6866 3.664C21.2386 3.664 19.6866 5.664 19.6866 7.92C19.6866 10.208 21.1266 12.192 23.7026 12.192C25.6386 12.192 26.9826 11.008 27.4626 9.456H26.2786C25.9266 10.448 24.9666 11.168 23.7186 11.168C22.0066 11.168 20.9346 9.904 20.8226 8.256H27.5906ZM23.6866 4.688C25.2866 4.688 26.3266 5.76 26.4706 7.328H20.8546C21.0466 5.824 22.1026 4.688 23.6866 4.688ZM40.85 10.896H34.386V6.784H40.514V5.68H34.386V1.744H40.85V0.639999H33.218V12H40.85V10.896ZM43.8313 12V-9.53674e-07H42.6953V12H43.8313ZM53.4582 8.256C53.4582 8.256 53.4742 8 53.4742 7.824C53.4742 5.52 51.9862 3.664 49.5542 3.664C47.1062 3.664 45.5542 5.664 45.5542 7.92C45.5542 10.208 46.9942 12.192 49.5702 12.192C51.5062 12.192 52.8502 11.008 53.3302 9.456H52.1462C51.7942 10.448 50.8342 11.168 49.5862 11.168C47.8742 11.168 46.8022 9.904 46.6902 8.256H53.4582ZM49.5542 4.688C51.1542 4.688 52.1942 5.76 52.3382 7.328H46.7222C46.9142 5.824 47.9702 4.688 49.5542 4.688ZM62.584 3.856H61.496V5.36C60.936 4.32 59.896 3.664 58.408 3.664C55.912 3.664 54.568 5.696 54.568 7.936C54.568 10.176 55.912 12.192 58.408 12.192C59.896 12.192 60.936 11.536 61.496 10.496V12H62.584V3.856ZM55.72 7.936C55.72 6.16 56.808 4.688 58.632 4.688C60.456 4.688 61.496 6.16 61.496 7.936C61.496 9.712 60.456 11.168 58.632 11.168C56.808 11.168 55.72 9.712 55.72 7.936ZM65.9965 3.856H64.9085V12H66.0445V7.152C66.0445 5.52 67.1165 4.656 68.4925 4.656C69.9485 4.656 70.6365 5.552 70.6365 7.024V12H71.7725V6.8C71.7725 4.992 70.7005 3.664 68.6845 3.664C67.1005 3.664 66.2845 4.576 65.9965 5.104V3.856ZM77.5365 12.192C80.1125 12.192 81.6965 10.176 81.6965 7.936C81.6965 5.696 80.1125 3.664 77.5365 3.664C74.9765 3.664 73.3925 5.696 73.3925 7.936C73.3925 10.176 74.9765 12.192 77.5365 12.192ZM74.5445 7.936C74.5445 6.096 75.7285 4.688 77.5365 4.688C79.3605 4.688 80.5445 6.096 80.5445 7.936C80.5445 9.76 79.3605 11.168 77.5365 11.168C75.7285 11.168 74.5445 9.76 74.5445 7.936ZM87.3729 3.792C87.3729 3.792 87.1809 3.776 87.1009 3.776C85.5969 3.776 84.7969 4.56 84.4929 5.12V3.856H83.4049V12H84.5409V7.376C84.5409 5.68 85.5809 4.848 86.9729 4.848C87.1809 4.848 87.3729 4.864 87.3729 4.864V3.792ZM99.4133 0.639999H90.9813V1.76H94.6133V12H95.7813V1.76H99.4133V0.639999ZM103.383 3.792C103.383 3.792 103.191 3.776 103.111 3.776C101.607 3.776 100.807 4.56 100.503 5.12V3.856H99.415V12H100.551V7.376C100.551 5.68 101.591 4.848 102.983 4.848C103.191 4.848 103.383 4.864 103.383 4.864V3.792ZM111.602 3.856H110.514V5.36C109.954 4.32 108.914 3.664 107.426 3.664C104.93 3.664 103.586 5.696 103.586 7.936C103.586 10.176 104.93 12.192 107.426 12.192C108.914 12.192 109.954 11.536 110.514 10.496V12H111.602V3.856ZM104.738 7.936C104.738 6.16 105.826 4.688 107.65 4.688C109.474 4.688 110.514 6.16 110.514 7.936C110.514 9.712 109.474 11.168 107.65 11.168C105.826 11.168 104.738 9.712 104.738 7.936ZM120.199 5.328C119.655 4.352 118.647 3.664 117.159 3.664C114.663 3.664 113.319 5.68 113.319 7.936C113.319 10.176 114.663 12.192 117.159 12.192C118.647 12.192 119.687 11.536 120.247 10.496V12H121.335V-9.53674e-07H120.199V5.328ZM120.247 7.936C120.247 9.712 119.207 11.168 117.383 11.168C115.559 11.168 114.471 9.712 114.471 7.936C114.471 6.128 115.559 4.688 117.383 4.688C119.207 4.688 120.247 6.128 120.247 7.936ZM130.955 8.256C130.955 8.256 130.971 8 130.971 7.824C130.971 5.52 129.483 3.664 127.051 3.664C124.603 3.664 123.051 5.664 123.051 7.92C123.051 10.208 124.491 12.192 127.067 12.192C129.003 12.192 130.347 11.008 130.827 9.456H129.643C129.291 10.448 128.331 11.168 127.083 11.168C125.371 11.168 124.299 9.904 124.187 8.256H130.955ZM127.051 4.688C128.651 4.688 129.691 5.76 129.835 7.328H124.219C124.411 5.824 125.467 4.688 127.051 4.688ZM136.913 7.392H131.985V8.464H136.913V7.392ZM139.938 0.639999H138.77V12H139.938V0.639999ZM143.586 3.856H142.498V12H143.634V7.152C143.634 5.52 144.706 4.656 146.082 4.656C147.538 4.656 148.226 5.552 148.226 7.024V12H149.362V6.8C149.362 4.992 148.29 3.664 146.274 3.664C144.69 3.664 143.874 4.576 143.586 5.104V3.856ZM154.715 6.32C154.715 9.696 156.907 12.24 160.331 12.24C163.115 12.24 165.163 10.56 165.691 8H164.459C164.011 9.936 162.395 11.136 160.331 11.136C157.675 11.136 155.931 9.184 155.931 6.32C155.931 3.456 157.675 1.504 160.331 1.504C162.395 1.504 164.011 2.704 164.459 4.64H165.691C165.163 2.08 163.115 0.4 160.331 0.4C156.907 0.4 154.715 2.944 154.715 6.32ZM171.273 3.792C171.273 3.792 171.081 3.776 171.001 3.776C169.497 3.776 168.697 4.56 168.393 5.12V3.856H167.305V12H168.441V7.376C168.441 5.68 169.481 4.848 170.873 4.848C171.081 4.848 171.273 4.864 171.273 4.864V3.792ZM179.38 8.256C179.38 8.256 179.396 8 179.396 7.824C179.396 5.52 177.908 3.664 175.476 3.664C173.028 3.664 171.476 5.664 171.476 7.92C171.476 10.208 172.916 12.192 175.492 12.192C177.428 12.192 178.772 11.008 179.252 9.456H178.068C177.716 10.448 176.756 11.168 175.508 11.168C173.796 11.168 172.724 9.904 172.612 8.256H179.38ZM175.476 4.688C177.076 4.688 178.116 5.76 178.26 7.328H172.644C172.836 5.824 173.892 4.688 175.476 4.688ZM187.37 5.328C186.826 4.352 185.818 3.664 184.33 3.664C181.834 3.664 180.49 5.68 180.49 7.936C180.49 10.176 181.834 12.192 184.33 12.192C185.818 12.192 186.858 11.536 187.418 10.496V12H188.506V-9.53674e-07H187.37V5.328ZM187.418 7.936C187.418 9.712 186.378 11.168 184.554 11.168C182.73 11.168 181.642 9.712 181.642 7.936C181.642 6.128 182.73 4.688 184.554 4.688C186.378 4.688 187.418 6.128 187.418 7.936ZM191.406 1.84C191.87 1.84 192.222 1.52 192.222 1.056C192.222 0.575999 191.87 0.24 191.406 0.24C190.926 0.24 190.59 0.575999 190.59 1.056C190.59 1.52 190.926 1.84 191.406 1.84ZM190.83 12H191.966V3.856H190.83V12ZM195.769 4.816H197.433V3.856H195.769V1.536H194.633V3.856H193.081V4.816H194.633V12H195.769V4.816ZM201.091 12.192C203.299 12.192 204.339 11.024 204.339 9.792C204.339 6.368 199.299 8.272 199.299 6.016C199.299 5.28 199.923 4.656 201.187 4.656C202.483 4.656 203.091 5.36 203.187 6.24H204.323C204.227 5.136 203.475 3.664 201.219 3.664C199.283 3.664 198.195 4.816 198.195 6.064C198.195 9.408 203.235 7.488 203.235 9.824C203.235 10.64 202.467 11.2 201.091 11.2C199.683 11.2 198.979 10.496 198.899 9.456H197.747C197.843 10.88 198.739 12.192 201.091 12.192ZM211.233 4.816H212.897V3.856H211.233V1.536H210.097V3.856H208.545V4.816H210.097V12H211.233V4.816ZM217.31 12.192C219.886 12.192 221.47 10.176 221.47 7.936C221.47 5.696 219.886 3.664 217.31 3.664C214.75 3.664 213.166 5.696 213.166 7.936C213.166 10.176 214.75 12.192 217.31 12.192ZM214.318 7.936C214.318 6.096 215.502 4.688 217.31 4.688C219.134 4.688 220.318 6.096 220.318 7.936C220.318 9.76 219.134 11.168 217.31 11.168C215.502 11.168 214.318 9.76 214.318 7.936ZM228.336 4.816H230V3.856H228.336V1.536H227.2V3.856H225.648V4.816H227.2V12H228.336V4.816ZM235.018 3.792C235.018 3.792 234.826 3.776 234.746 3.776C233.242 3.776 232.442 4.56 232.138 5.12V3.856H231.05V12H232.186V7.376C232.186 5.68 233.226 4.848 234.618 4.848C234.826 4.848 235.018 4.864 235.018 4.864V3.792ZM243.238 3.856H242.15V5.36C241.59 4.32 240.55 3.664 239.062 3.664C236.566 3.664 235.222 5.696 235.222 7.936C235.222 10.176 236.566 12.192 239.062 12.192C240.55 12.192 241.59 11.536 242.15 10.496V12H243.238V3.856ZM236.374 7.936C236.374 6.16 237.462 4.688 239.286 4.688C241.11 4.688 242.15 6.16 242.15 7.936C242.15 9.712 241.11 11.168 239.286 11.168C237.462 11.168 236.374 9.712 236.374 7.936ZM251.834 5.328C251.29 4.352 250.282 3.664 248.794 3.664C246.298 3.664 244.954 5.68 244.954 7.936C244.954 10.176 246.298 12.192 248.794 12.192C250.282 12.192 251.322 11.536 251.882 10.496V12H252.97V-9.53674e-07H251.834V5.328ZM251.882 7.936C251.882 9.712 250.842 11.168 249.018 11.168C247.194 11.168 246.106 9.712 246.106 7.936C246.106 6.128 247.194 4.688 249.018 4.688C250.842 4.688 251.882 6.128 251.882 7.936ZM262.591 8.256C262.591 8.256 262.607 8 262.607 7.824C262.607 5.52 261.119 3.664 258.687 3.664C256.239 3.664 254.687 5.664 254.687 7.92C254.687 10.208 256.127 12.192 258.703 12.192C260.639 12.192 261.983 11.008 262.463 9.456H261.279C260.927 10.448 259.967 11.168 258.719 11.168C257.007 11.168 255.935 9.904 255.823 8.256H262.591ZM258.687 4.688C260.287 4.688 261.327 5.76 261.471 7.328H255.855C256.047 5.824 257.103 4.688 258.687 4.688ZM268.57 1.84C269.034 1.84 269.386 1.52 269.386 1.056C269.386 0.575999 269.034 0.24 268.57 0.24C268.09 0.24 267.754 0.575999 267.754 1.056C267.754 1.52 268.09 1.84 268.57 1.84ZM267.994 12H269.13V3.856H267.994V12ZM272.549 3.856H271.461V12H272.597V7.152C272.597 5.52 273.669 4.656 275.045 4.656C276.501 4.656 277.189 5.552 277.189 7.024V12H278.325V6.8C278.325 4.992 277.253 3.664 275.237 3.664C273.653 3.664 272.837 4.576 272.549 5.104V3.856ZM285.118 15.328H286.27L291.102 3.856H289.902L287.102 10.688L284.334 3.856H283.102L286.51 12L285.118 15.328ZM295.538 12.192C298.114 12.192 299.698 10.176 299.698 7.936C299.698 5.696 298.114 3.664 295.538 3.664C292.978 3.664 291.394 5.696 291.394 7.936C291.394 10.176 292.978 12.192 295.538 12.192ZM292.546 7.936C292.546 6.096 293.73 4.688 295.538 4.688C297.362 4.688 298.546 6.096 298.546 7.936C298.546 9.76 297.362 11.168 295.538 11.168C293.73 11.168 292.546 9.76 292.546 7.936ZM304.703 12.192C307.007 12.192 308.079 10.72 308.079 8.912V3.856H306.943V8.832C306.943 10.304 306.159 11.2 304.703 11.2C303.247 11.2 302.463 10.304 302.463 8.832V3.856H301.327V8.912C301.327 10.72 302.399 12.192 304.703 12.192ZM314.279 3.792C314.279 3.792 314.087 3.776 314.007 3.776C312.503 3.776 311.703 4.56 311.399 5.12V3.856H310.311V12H311.447V7.376C311.447 5.68 312.487 4.848 313.879 4.848C314.087 4.848 314.279 4.864 314.279 4.864V3.792ZM322 10.688L319.232 3.856H318L321.408 12H322.56L326 3.856H324.816L322 10.688ZM334.117 8.256C334.117 8.256 334.133 8 334.133 7.824C334.133 5.52 332.645 3.664 330.213 3.664C327.765 3.664 326.213 5.664 326.213 7.92C326.213 10.208 327.653 12.192 330.229 12.192C332.165 12.192 333.509 11.008 333.989 9.456H332.805C332.453 10.448 331.493 11.168 330.245 11.168C328.533 11.168 327.461 9.904 327.349 8.256H334.117ZM330.213 4.688C331.813 4.688 332.853 5.76 332.997 7.328H327.381C327.573 5.824 328.629 4.688 330.213 4.688ZM336.971 -9.53674e-07H335.835V12H336.971V7.184C336.971 5.52 338.043 4.656 339.419 4.656C340.875 4.656 341.563 5.552 341.563 7.024V12H342.699V6.8C342.699 4.992 341.627 3.664 339.611 3.664C338.091 3.664 337.259 4.496 336.971 4.992V-9.53674e-07ZM345.503 1.84C345.967 1.84 346.319 1.52 346.319 1.056C346.319 0.575999 345.967 0.24 345.503 0.24C345.023 0.24 344.687 0.575999 344.687 1.056C344.687 1.52 345.023 1.84 345.503 1.84ZM344.927 12H346.063V3.856H344.927V12ZM347.786 7.936C347.786 10.16 349.322 12.192 351.802 12.192C354.01 12.192 355.29 10.72 355.61 9.104H354.458C354.122 10.368 353.194 11.168 351.802 11.168C350.09 11.168 348.938 9.808 348.938 7.936C348.938 6.048 350.09 4.688 351.802 4.688C353.194 4.688 354.122 5.488 354.458 6.752H355.61C355.29 5.136 354.01 3.664 351.802 3.664C349.322 3.664 347.786 5.696 347.786 7.936ZM358.294 12V-9.53674e-07H357.158V12H358.294ZM367.921 8.256C367.921 8.256 367.937 8 367.937 7.824C367.937 5.52 366.449 3.664 364.017 3.664C361.569 3.664 360.017 5.664 360.017 7.92C360.017 10.208 361.457 12.192 364.033 12.192C365.969 12.192 367.313 11.008 367.793 9.456H366.609C366.257 10.448 365.297 11.168 364.049 11.168C362.337 11.168 361.265 9.904 361.153 8.256H367.921ZM364.017 4.688C365.617 4.688 366.657 5.76 366.801 7.328H361.185C361.377 5.824 362.433 4.688 364.017 4.688ZM373.692 3.856H372.108V4.816H373.692V12H374.828V4.816H376.668V3.856H374.828V2.464C374.828 1.424 375.324 1.04 376.204 1.04C376.492 1.04 376.652 1.072 376.652 1.072V0.0319996C376.652 0.0319996 376.444 -9.53674e-07 376.108 -9.53674e-07C374.684 -9.53674e-07 373.692 0.799999 373.692 2.512V3.856ZM381.186 12.192C383.762 12.192 385.346 10.176 385.346 7.936C385.346 5.696 383.762 3.664 381.186 3.664C378.626 3.664 377.042 5.696 377.042 7.936C377.042 10.176 378.626 12.192 381.186 12.192ZM378.194 7.936C378.194 6.096 379.378 4.688 381.186 4.688C383.01 4.688 384.194 6.096 384.194 7.936C384.194 9.76 383.01 11.168 381.186 11.168C379.378 11.168 378.194 9.76 378.194 7.936ZM391.023 3.792C391.023 3.792 390.831 3.776 390.751 3.776C389.247 3.776 388.447 4.56 388.143 5.12V3.856H387.055V12H388.191V7.376C388.191 5.68 389.231 4.848 390.623 4.848C390.831 4.848 391.023 4.864 391.023 4.864V3.792ZM4 38.192C6.208 38.192 7.248 37.024 7.248 35.792C7.248 32.368 2.208 34.272 2.208 32.016C2.208 31.28 2.832 30.656 4.096 30.656C5.392 30.656 6 31.36 6.096 32.24H7.232C7.136 31.136 6.384 29.664 4.128 29.664C2.192 29.664 1.104 30.816 1.104 32.064C1.104 35.408 6.144 33.488 6.144 35.824C6.144 36.64 5.376 37.2 4 37.2C2.592 37.2 1.888 36.496 1.808 35.456H0.656C0.752 36.88 1.648 38.192 4 38.192ZM12.5199 38.192C15.0959 38.192 16.6799 36.176 16.6799 33.936C16.6799 31.696 15.0959 29.664 12.5199 29.664C9.95991 29.664 8.37591 31.696 8.37591 33.936C8.37591 36.176 9.95991 38.192 12.5199 38.192ZM9.52791 33.936C9.52791 32.096 10.7119 30.688 12.5199 30.688C14.3439 30.688 15.5279 32.096 15.5279 33.936C15.5279 35.76 14.3439 37.168 12.5199 37.168C10.7119 37.168 9.52791 35.76 9.52791 33.936ZM25.0443 33.248C25.0443 31.52 26.1003 30.656 27.3803 30.656C28.8043 30.656 29.4123 31.648 29.4123 33.024V38H30.5483V32.8C30.5483 31.072 29.5563 29.664 27.5723 29.664C26.1163 29.664 25.1563 30.448 24.7083 31.232C24.2763 30.288 23.3803 29.664 22.0523 29.664C20.4683 29.664 19.7643 30.576 19.4763 31.104V29.856H18.3883V38H19.5243V33.152C19.5243 31.584 20.5323 30.656 21.8603 30.656C23.2843 30.656 23.9083 31.6 23.9083 33.024V38H25.0443V33.248ZM40.0887 34.256C40.0887 34.256 40.1047 34 40.1047 33.824C40.1047 31.52 38.6167 29.664 36.1847 29.664C33.7367 29.664 32.1847 31.664 32.1847 33.92C32.1847 36.208 33.6247 38.192 36.2007 38.192C38.1367 38.192 39.4807 37.008 39.9607 35.456H38.7767C38.4247 36.448 37.4647 37.168 36.2167 37.168C34.5047 37.168 33.4327 35.904 33.3207 34.256H40.0887ZM36.1847 30.688C37.7847 30.688 38.8247 31.76 38.9687 33.328H33.3527C33.5447 31.824 34.6007 30.688 36.1847 30.688ZM43.2785 30.816H44.9425V29.856H43.2785V27.536H42.1425V29.856H40.5905V30.816H42.1425V38H43.2785V30.816ZM47.1282 26H45.9922V38H47.1282V33.184C47.1282 31.52 48.2002 30.656 49.5762 30.656C51.0322 30.656 51.7202 31.552 51.7202 33.024V38H52.8562V32.8C52.8562 30.992 51.7842 29.664 49.7682 29.664C48.2482 29.664 47.4162 30.496 47.1282 30.992V26ZM55.6601 27.84C56.1241 27.84 56.4761 27.52 56.4761 27.056C56.4761 26.576 56.1241 26.24 55.6601 26.24C55.1801 26.24 54.8441 26.576 54.8441 27.056C54.8441 27.52 55.1801 27.84 55.6601 27.84ZM55.0841 38H56.2201V29.856H55.0841V38ZM59.639 29.856H58.551V38H59.687V33.152C59.687 31.52 60.759 30.656 62.135 30.656C63.591 30.656 64.279 31.552 64.279 33.024V38H65.415V32.8C65.415 30.992 64.343 29.664 62.327 29.664C60.743 29.664 59.927 30.576 59.639 31.104V29.856ZM73.9469 31.344C73.3709 30.32 72.3469 29.664 70.8749 29.664C68.4269 29.664 67.0349 31.632 67.0349 33.824C67.0349 36.016 68.4269 37.984 70.8749 37.984C72.3469 37.984 73.3389 37.312 73.8989 36.336V37.856C73.8989 39.376 72.9229 40.48 71.2589 40.48C69.9309 40.48 69.0029 39.856 68.6829 38.912H67.5149C67.7869 40.144 68.9229 41.504 71.2269 41.504C73.7869 41.504 75.0349 39.792 75.0349 37.6V29.856H73.9469V31.344ZM73.9469 33.824C73.9469 35.584 72.8749 36.976 71.0829 36.976C69.3069 36.976 68.1869 35.584 68.1869 33.824C68.1869 32.064 69.3069 30.688 71.0829 30.688C72.8749 30.688 73.9469 32.064 73.9469 33.824ZM88.2634 34.256C88.2634 34.256 88.2794 34 88.2794 33.824C88.2794 31.52 86.7914 29.664 84.3594 29.664C81.9114 29.664 80.3594 31.664 80.3594 33.92C80.3594 36.208 81.7994 38.192 84.3754 38.192C86.3114 38.192 87.6554 37.008 88.1354 35.456H86.9514C86.5994 36.448 85.6394 37.168 84.3914 37.168C82.6794 37.168 81.6074 35.904 81.4954 34.256H88.2634ZM84.3594 30.688C85.9594 30.688 86.9994 31.76 87.1434 33.328H81.5274C81.7194 31.824 82.7754 30.688 84.3594 30.688ZM91.1171 38V26H89.9811V38H91.1171ZM96.0561 38.192C98.2641 38.192 99.3041 37.024 99.3041 35.792C99.3041 32.368 94.2641 34.272 94.2641 32.016C94.2641 31.28 94.8881 30.656 96.1521 30.656C97.4481 30.656 98.0561 31.36 98.1521 32.24H99.2881C99.1921 31.136 98.4401 29.664 96.1841 29.664C94.2481 29.664 93.1601 30.816 93.1601 32.064C93.1601 35.408 98.2001 33.488 98.2001 35.824C98.2001 36.64 97.4321 37.2 96.0561 37.2C94.6481 37.2 93.9441 36.496 93.8641 35.456H92.7121C92.8081 36.88 93.7041 38.192 96.0561 38.192ZM108.336 34.256C108.336 34.256 108.352 34 108.352 33.824C108.352 31.52 106.864 29.664 104.432 29.664C101.984 29.664 100.432 31.664 100.432 33.92C100.432 36.208 101.872 38.192 104.448 38.192C106.384 38.192 107.728 37.008 108.208 35.456H107.024C106.672 36.448 105.712 37.168 104.464 37.168C102.752 37.168 101.68 35.904 101.568 34.256H108.336ZM104.432 30.688C106.032 30.688 107.072 31.76 107.216 33.328H101.6C101.792 31.824 102.848 30.688 104.432 30.688ZM114.315 27.84C114.779 27.84 115.131 27.52 115.131 27.056C115.131 26.576 114.779 26.24 114.315 26.24C113.835 26.24 113.499 26.576 113.499 27.056C113.499 27.52 113.835 27.84 114.315 27.84ZM113.739 38H114.875V29.856H113.739V38ZM118.294 29.856H117.206V38H118.342V33.152C118.342 31.52 119.414 30.656 120.79 30.656C122.246 30.656 122.934 31.552 122.934 33.024V38H124.07V32.8C124.07 30.992 122.998 29.664 120.982 29.664C119.398 29.664 118.582 30.576 118.294 31.104V29.856ZM133.52 38.192C136.096 38.192 137.68 36.176 137.68 33.936C137.68 31.696 136.096 29.664 133.52 29.664C130.96 29.664 129.376 31.696 129.376 33.936C129.376 36.176 130.96 38.192 133.52 38.192ZM130.528 33.936C130.528 32.096 131.712 30.688 133.52 30.688C135.344 30.688 136.528 32.096 136.528 33.936C136.528 35.76 135.344 37.168 133.52 37.168C131.712 37.168 130.528 35.76 130.528 33.936ZM142.684 38.192C144.988 38.192 146.06 36.72 146.06 34.912V29.856H144.924V34.832C144.924 36.304 144.14 37.2 142.684 37.2C141.228 37.2 140.444 36.304 140.444 34.832V29.856H139.308V34.912C139.308 36.72 140.38 38.192 142.684 38.192ZM152.261 29.792C152.261 29.792 152.069 29.776 151.989 29.776C150.485 29.776 149.685 30.56 149.381 31.12V29.856H148.293V38H149.429V33.376C149.429 31.68 150.469 30.848 151.861 30.848C152.069 30.848 152.261 30.864 152.261 30.864V29.792ZM158.253 38V26H157.117V38H158.253ZM163.88 38.192C166.184 38.192 167.256 36.72 167.256 34.912V29.856H166.12V34.832C166.12 36.304 165.336 37.2 163.88 37.2C162.424 37.2 161.64 36.304 161.64 34.832V29.856H160.504V34.912C160.504 36.72 161.576 38.192 163.88 38.192ZM176.304 29.856H174.912L172.416 33.008L169.904 29.856H168.496L171.728 33.888L168.416 38H169.808L172.4 34.736L174.992 38H176.416L173.072 33.872L176.304 29.856ZM180.955 38.192C183.259 38.192 184.331 36.72 184.331 34.912V29.856H183.195V34.832C183.195 36.304 182.411 37.2 180.955 37.2C179.499 37.2 178.715 36.304 178.715 34.832V29.856H177.579V34.912C177.579 36.72 178.651 38.192 180.955 38.192ZM190.531 29.792C190.531 29.792 190.339 29.776 190.259 29.776C188.755 29.776 187.955 30.56 187.651 31.12V29.856H186.563V38H187.699V33.376C187.699 31.68 188.739 30.848 190.131 30.848C190.339 30.848 190.531 30.864 190.531 30.864V29.792ZM192.278 27.84C192.742 27.84 193.094 27.52 193.094 27.056C193.094 26.576 192.742 26.24 192.278 26.24C191.798 26.24 191.462 26.576 191.462 27.056C191.462 27.52 191.798 27.84 192.278 27.84ZM191.702 38H192.838V29.856H191.702V38ZM198.705 38.192C201.281 38.192 202.865 36.176 202.865 33.936C202.865 31.696 201.281 29.664 198.705 29.664C196.145 29.664 194.561 31.696 194.561 33.936C194.561 36.176 196.145 38.192 198.705 38.192ZM195.713 33.936C195.713 32.096 196.897 30.688 198.705 30.688C200.529 30.688 201.713 32.096 201.713 33.936C201.713 35.76 200.529 37.168 198.705 37.168C196.897 37.168 195.713 35.76 195.713 33.936ZM207.869 38.192C210.173 38.192 211.245 36.72 211.245 34.912V29.856H210.109V34.832C210.109 36.304 209.325 37.2 207.869 37.2C206.413 37.2 205.629 36.304 205.629 34.832V29.856H204.493V34.912C204.493 36.72 205.565 38.192 207.869 38.192ZM216.085 38.192C218.293 38.192 219.333 37.024 219.333 35.792C219.333 32.368 214.293 34.272 214.293 32.016C214.293 31.28 214.917 30.656 216.181 30.656C217.477 30.656 218.085 31.36 218.181 32.24H219.317C219.221 31.136 218.469 29.664 216.213 29.664C214.277 29.664 213.189 30.816 213.189 32.064C213.189 35.408 218.229 33.488 218.229 35.824C218.229 36.64 217.461 37.2 216.085 37.2C214.677 37.2 213.973 36.496 213.893 35.456H212.741C212.837 36.88 213.733 38.192 216.085 38.192ZM225.331 27.84C225.795 27.84 226.147 27.52 226.147 27.056C226.147 26.576 225.795 26.24 225.331 26.24C224.851 26.24 224.515 26.576 224.515 27.056C224.515 27.52 224.851 27.84 225.331 27.84ZM224.755 38H225.891V29.856H224.755V38ZM229.31 29.856H228.222V38H229.358V33.152C229.358 31.52 230.43 30.656 231.806 30.656C233.262 30.656 233.95 31.552 233.95 33.024V38H235.086V32.8C235.086 30.992 234.014 29.664 231.998 29.664C230.414 29.664 229.598 30.576 229.31 31.104V29.856ZM239.756 36.688L236.988 29.856H235.756L239.164 38H240.316L243.756 29.856H242.572L239.756 36.688ZM251.874 34.256C251.874 34.256 251.89 34 251.89 33.824C251.89 31.52 250.402 29.664 247.97 29.664C245.522 29.664 243.97 31.664 243.97 33.92C243.97 36.208 245.41 38.192 247.986 38.192C249.922 38.192 251.266 37.008 251.746 35.456H250.562C250.21 36.448 249.25 37.168 248.002 37.168C246.29 37.168 245.218 35.904 245.106 34.256H251.874ZM247.97 30.688C249.57 30.688 250.61 31.76 250.754 33.328H245.138C245.33 31.824 246.386 30.688 247.97 30.688ZM254.679 29.856H253.591V38H254.727V33.152C254.727 31.52 255.799 30.656 257.175 30.656C258.631 30.656 259.319 31.552 259.319 33.024V38H260.455V32.8C260.455 30.992 259.383 29.664 257.367 29.664C255.783 29.664 254.967 30.576 254.679 31.104V29.856ZM264.155 30.816H265.819V29.856H264.155V27.536H263.019V29.856H261.467V30.816H263.019V38H264.155V30.816ZM270.233 38.192C272.809 38.192 274.393 36.176 274.393 33.936C274.393 31.696 272.809 29.664 270.233 29.664C267.673 29.664 266.089 31.696 266.089 33.936C266.089 36.176 267.673 38.192 270.233 38.192ZM267.241 33.936C267.241 32.096 268.425 30.688 270.233 30.688C272.057 30.688 273.241 32.096 273.241 33.936C273.241 35.76 272.057 37.168 270.233 37.168C268.425 37.168 267.241 35.76 267.241 33.936ZM280.07 29.792C280.07 29.792 279.878 29.776 279.798 29.776C278.294 29.776 277.494 30.56 277.19 31.12V29.856H276.102V38H277.238V33.376C277.238 31.68 278.278 30.848 279.67 30.848C279.878 30.848 280.07 30.864 280.07 30.864V29.792ZM282.12 41.328H283.272L288.104 29.856H286.904L284.104 36.688L281.336 29.856H280.104L283.512 38L282.12 41.328ZM288.215 38.128C288.711 38.128 289.095 37.776 289.095 37.264C289.095 36.768 288.711 36.4 288.215 36.4C287.703 36.4 287.335 36.768 287.335 37.264C287.335 37.776 287.703 38.128 288.215 38.128ZM299.625 28.512L306.249 38H307.481V26.64H306.313V36.144L299.689 26.64H298.457V38H299.625V28.512ZM313.548 38.192C316.124 38.192 317.708 36.176 317.708 33.936C317.708 31.696 316.124 29.664 313.548 29.664C310.988 29.664 309.404 31.696 309.404 33.936C309.404 36.176 310.988 38.192 313.548 38.192ZM310.556 33.936C310.556 32.096 311.74 30.688 313.548 30.688C315.372 30.688 316.556 32.096 316.556 33.936C316.556 35.76 315.372 37.168 313.548 37.168C311.74 37.168 310.556 35.76 310.556 33.936ZM320.889 30.816H322.553V29.856H320.889V27.536H319.753V29.856H318.201V30.816H319.753V38H320.889V30.816ZM324.738 26H323.602V38H324.738V33.184C324.738 31.52 325.81 30.656 327.186 30.656C328.642 30.656 329.33 31.552 329.33 33.024V38H330.466V32.8C330.466 30.992 329.394 29.664 327.378 29.664C325.858 29.664 325.026 30.496 324.738 30.992V26ZM333.27 27.84C333.734 27.84 334.086 27.52 334.086 27.056C334.086 26.576 333.734 26.24 333.27 26.24C332.79 26.24 332.454 26.576 332.454 27.056C332.454 27.52 332.79 27.84 333.27 27.84ZM332.694 38H333.83V29.856H332.694V38ZM337.249 29.856H336.161V38H337.297V33.152C337.297 31.52 338.369 30.656 339.745 30.656C341.201 30.656 341.889 31.552 341.889 33.024V38H343.025V32.8C343.025 30.992 341.953 29.664 339.937 29.664C338.353 29.664 337.537 30.576 337.249 31.104V29.856ZM351.557 31.344C350.981 30.32 349.957 29.664 348.485 29.664C346.037 29.664 344.645 31.632 344.645 33.824C344.645 36.016 346.037 37.984 348.485 37.984C349.957 37.984 350.949 37.312 351.509 36.336V37.856C351.509 39.376 350.533 40.48 348.869 40.48C347.541 40.48 346.613 39.856 346.293 38.912H345.125C345.397 40.144 346.533 41.504 348.837 41.504C351.397 41.504 352.645 39.792 352.645 37.6V29.856H351.557V31.344ZM351.557 33.824C351.557 35.584 350.485 36.976 348.693 36.976C346.917 36.976 345.797 35.584 345.797 33.824C345.797 32.064 346.917 30.688 348.693 30.688C350.485 30.688 351.557 32.064 351.557 33.824ZM361.186 38.192C363.394 38.192 364.434 37.024 364.434 35.792C364.434 32.368 359.394 34.272 359.394 32.016C359.394 31.28 360.018 30.656 361.282 30.656C362.578 30.656 363.186 31.36 363.282 32.24H364.418C364.322 31.136 363.57 29.664 361.314 29.664C359.378 29.664 358.29 30.816 358.29 32.064C358.29 35.408 363.33 33.488 363.33 35.824C363.33 36.64 362.562 37.2 361.186 37.2C359.778 37.2 359.074 36.496 358.994 35.456H357.842C357.938 36.88 358.834 38.192 361.186 38.192ZM373.578 29.856H372.49V31.36C371.93 30.32 370.89 29.664 369.402 29.664C366.906 29.664 365.562 31.696 365.562 33.936C365.562 36.176 366.906 38.192 369.402 38.192C370.89 38.192 371.93 37.536 372.49 36.496V38H373.578V29.856ZM366.714 33.936C366.714 32.16 367.802 30.688 369.626 30.688C371.45 30.688 372.49 32.16 372.49 33.936C372.49 35.712 371.45 37.168 369.626 37.168C367.802 37.168 366.714 35.712 366.714 33.936ZM376.782 41.328H377.934L382.766 29.856H381.566L378.766 36.688L375.998 29.856H374.766L378.174 38L376.782 41.328ZM386.477 38.192C388.685 38.192 389.725 37.024 389.725 35.792C389.725 32.368 384.685 34.272 384.685 32.016C384.685 31.28 385.309 30.656 386.573 30.656C387.869 30.656 388.477 31.36 388.573 32.24H389.709C389.613 31.136 388.861 29.664 386.605 29.664C384.669 29.664 383.581 30.816 383.581 32.064C383.581 35.408 388.621 33.488 388.621 35.824C388.621 36.64 387.853 37.2 386.477 37.2C385.069 37.2 384.365 36.496 384.285 35.456H383.133C383.229 36.88 384.125 38.192 386.477 38.192ZM4.432 55.824L5.2 52.64H4.224L3.136 55.824H4.432ZM1.968 55.824L2.752 52.64H1.776L0.688 55.824H1.968ZM11.0497 60.464C11.0497 62.176 10.1377 63.152 8.56966 63.152C6.96966 63.152 6.12166 62.048 6.12166 60.592C6.12166 60.16 6.15366 59.888 6.15366 59.888H4.96966C4.96966 59.888 4.93766 60.176 4.93766 60.592C4.93766 62.8 6.32966 64.208 8.56966 64.208C10.8577 64.208 12.2177 62.72 12.2177 60.432V52.64H11.0497V60.464ZM17.8874 64.192C20.1914 64.192 21.2634 62.72 21.2634 60.912V55.856H20.1274V60.832C20.1274 62.304 19.3434 63.2 17.8874 63.2C16.4314 63.2 15.6474 62.304 15.6474 60.832V55.856H14.5114V60.912C14.5114 62.72 15.5834 64.192 17.8874 64.192ZM24.5839 55.856H23.4959V64H24.6319V59.152C24.6319 57.52 25.7039 56.656 27.0799 56.656C28.5359 56.656 29.2239 57.552 29.2239 59.024V64H30.3599V58.8C30.3599 56.992 29.2879 55.664 27.2719 55.664C25.6879 55.664 24.8719 56.576 24.5839 57.104V55.856ZM39.8838 60.256C39.8838 60.256 39.8998 60 39.8998 59.824C39.8998 57.52 38.4118 55.664 35.9798 55.664C33.5318 55.664 31.9798 57.664 31.9798 59.92C31.9798 62.208 33.4198 64.192 35.9958 64.192C37.9318 64.192 39.2758 63.008 39.7558 61.456H38.5718C38.2198 62.448 37.2598 63.168 36.0118 63.168C34.2998 63.168 33.2278 61.904 33.1158 60.256H39.8838ZM35.9798 56.688C37.5798 56.688 38.6198 57.76 38.7638 59.328H33.1478C33.3398 57.824 34.3958 56.688 35.9798 56.688ZM41.6656 52.64L40.8976 55.824H41.8736L42.9616 52.64H41.6656ZM44.1296 52.64L43.3456 55.824H44.3216L45.4096 52.64H44.1296ZM51.8433 64V52H50.7073V64H51.8433ZM54.7502 53.84C55.2142 53.84 55.5662 53.52 55.5662 53.056C55.5662 52.576 55.2142 52.24 54.7502 52.24C54.2702 52.24 53.9342 52.576 53.9342 53.056C53.9342 53.52 54.2702 53.84 54.7502 53.84ZM54.1742 64H55.3102V55.856H54.1742V64ZM63.2731 55.856L58.7771 60.384V52H57.6411V64H58.7771V61.776L60.6171 59.984L63.6411 64H65.0491L61.4171 59.216L64.7931 55.856H63.2731ZM73.1384 60.256C73.1384 60.256 73.1544 60 73.1544 59.824C73.1544 57.52 71.6664 55.664 69.2344 55.664C66.7864 55.664 65.2344 57.664 65.2344 59.92C65.2344 62.208 66.6744 64.192 69.2504 64.192C71.1864 64.192 72.5304 63.008 73.0104 61.456H71.8264C71.4744 62.448 70.5144 63.168 69.2664 63.168C67.5544 63.168 66.4824 61.904 66.3704 60.256H73.1384ZM69.2344 56.688C70.8344 56.688 71.8744 57.76 72.0184 59.328H66.4024C66.5944 57.824 67.6504 56.688 69.2344 56.688ZM85.9498 55.856H84.8618V57.36C84.3018 56.32 83.2618 55.664 81.7738 55.664C79.2778 55.664 77.9338 57.696 77.9338 59.936C77.9338 62.176 79.2778 64.192 81.7738 64.192C83.2618 64.192 84.3018 63.536 84.8618 62.496V64H85.9498V55.856ZM79.0858 59.936C79.0858 58.16 80.1738 56.688 81.9978 56.688C83.8218 56.688 84.8618 58.16 84.8618 59.936C84.8618 61.712 83.8218 63.168 81.9978 63.168C80.1738 63.168 79.0858 61.712 79.0858 59.936ZM93.048 55.856H91.96V64H93.096V59.152C93.096 57.52 94.168 56.656 95.544 56.656C97 56.656 97.688 57.552 97.688 59.024V64H98.824V58.8C98.824 56.992 97.752 55.664 95.736 55.664C94.152 55.664 93.336 56.576 93.048 57.104V55.856ZM108.348 60.256C108.348 60.256 108.364 60 108.364 59.824C108.364 57.52 106.876 55.664 104.444 55.664C101.996 55.664 100.444 57.664 100.444 59.92C100.444 62.208 101.884 64.192 104.46 64.192C106.396 64.192 107.74 63.008 108.22 61.456H107.036C106.684 62.448 105.724 63.168 104.476 63.168C102.764 63.168 101.692 61.904 101.58 60.256H108.348ZM104.444 56.688C106.044 56.688 107.084 57.76 107.228 59.328H101.612C101.804 57.824 102.86 56.688 104.444 56.688ZM117.13 64H118.314L121.162 55.856H119.962L117.738 62.656L115.53 55.856H114.346L112.106 62.656L109.914 55.856H108.698L111.514 64H112.698L114.922 57.296H114.938L117.13 64ZM125.548 59.936C125.548 62.16 127.084 64.192 129.564 64.192C131.772 64.192 133.052 62.72 133.372 61.104H132.22C131.884 62.368 130.956 63.168 129.564 63.168C127.852 63.168 126.7 61.808 126.7 59.936C126.7 58.048 127.852 56.688 129.564 56.688C130.956 56.688 131.884 57.488 132.22 58.752H133.372C133.052 57.136 131.772 55.664 129.564 55.664C127.084 55.664 125.548 57.696 125.548 59.936ZM142.234 55.856H141.146V57.36C140.586 56.32 139.546 55.664 138.058 55.664C135.562 55.664 134.218 57.696 134.218 59.936C134.218 62.176 135.562 64.192 138.058 64.192C139.546 64.192 140.586 63.536 141.146 62.496V64H142.234V55.856ZM135.37 59.936C135.37 58.16 136.458 56.688 138.282 56.688C140.106 56.688 141.146 58.16 141.146 59.936C141.146 61.712 140.106 63.168 138.282 63.168C136.458 63.168 135.37 61.712 135.37 59.936ZM148.526 55.792C148.526 55.792 148.334 55.776 148.254 55.776C146.75 55.776 145.95 56.56 145.646 57.12V55.856H144.558V64H145.694V59.376C145.694 57.68 146.734 56.848 148.126 56.848C148.334 56.848 148.526 56.864 148.526 56.864V55.792ZM149.809 61.376H150.753L150.945 52.64H149.617L149.809 61.376ZM150.289 64.128C150.769 64.128 151.137 63.776 151.137 63.296C151.137 62.8 150.769 62.448 150.289 62.448C149.793 62.448 149.425 62.8 149.425 63.296C149.425 63.776 149.793 64.128 150.289 64.128Z" fill="black"/>
</svg>
