<svg width="46" height="20" viewBox="0 0 46 20" fill="none" xmlns="http://www.w3.org/2000/svg">
<g clip-path="url(#clip0)">
<path fill-rule="evenodd" clip-rule="evenodd" d="M22 -3.07382e-07C19.1498 10.7139 10.5092 18.7573 0 19.8685V20H22V-3.07382e-07Z" fill="#E1A817"/>
<path fill-rule="evenodd" clip-rule="evenodd" d="M22.5 0C22.2239 0 22 0.223857 22 0.5V19.5C22 19.7761 22.2239 20 22.5 20C22.7761 20 23 19.7761 23 19.5V0.5C23 0.223858 22.7761 0 22.5 0ZM19 3.5C19 3.22386 19.2239 3 19.5 3C19.7761 3 20 3.22386 20 3.5V19.5C20 19.7761 19.7761 20 19.5 20C19.2239 20 19 19.7761 19 19.5V3.5ZM16.5 7C16.2239 7 16 7.22386 16 7.5V19.5C16 19.7761 16.2239 20 16.5 20C16.7761 20 17 19.7761 17 19.5V7.5C17 7.22386 16.7761 7 16.5 7ZM13 11.5C13 11.2239 13.2239 11 13.5 11C13.7761 11 14 11.2239 14 11.5V19.5C14 19.7761 13.7761 20 13.5 20C13.2239 20 13 19.7761 13 19.5V11.5ZM10.5 14C10.2239 14 10 14.2239 10 14.5V19.5C10 19.7761 10.2239 20 10.5 20C10.7761 20 11 19.7761 11 19.5V14.5C11 14.2239 10.7761 14 10.5 14ZM7 16.5C7 16.2239 7.22386 16 7.5 16C7.77614 16 8 16.2239 8 16.5V19.5C8 19.7761 7.77614 20 7.5 20C7.22386 20 7 19.7761 7 19.5V16.5ZM4.5 18C4.22386 18 4 18.2239 4 18.5V19.5C4 19.7761 4.22386 20 4.5 20C4.77614 20 5 19.7761 5 19.5V18.5C5 18.2239 4.77614 18 4.5 18ZM1.5 19C1.22386 19 1 19.2239 1 19.5C1 19.7761 1.22386 20 1.5 20C1.77614 20 2 19.7761 2 19.5C2 19.2239 1.77614 19 1.5 19Z" fill="#AD810F"/>
<path d="M33.64 13V1.8H35.4V6.6H37.4V1.8H39.192V13H37.4V8.2H35.4V13H33.64ZM43.0601 1.8C43.9348 1.8 44.5908 2.03467 45.0281 2.504C45.4655 2.97333 45.6841 3.66133 45.6841 4.568V6.024C45.6841 6.93067 45.4655 7.61867 45.0281 8.088C44.5908 8.55733 43.9348 8.792 43.0601 8.792H42.2281V13H40.4681V1.8H43.0601ZM42.2281 7.192H43.0601C43.3481 7.192 43.5615 7.112 43.7001 6.952C43.8495 6.792 43.9241 6.52 43.9241 6.136V4.456C43.9241 4.072 43.8495 3.8 43.7001 3.64C43.5615 3.48 43.3481 3.4 43.0601 3.4H42.2281V7.192Z" fill="#1B1E28"/>
</g>
<defs>
<clipPath id="clip0">
<rect width="46" height="20" fill="white"/>
</clipPath>
</defs>
</svg>
