<svg width="234" height="47" viewBox="0 0 234 47" fill="none" xmlns="http://www.w3.org/2000/svg">
<path d="M7.6 1.2V39.6H19.184V46H0.56V1.2H7.6ZM37.9275 46L36.7115 37.872H28.0715L26.8555 46H20.3915L27.5595 1.2H37.8635L45.0315 46H37.9275ZM35.7515 31.792L32.3595 9.136L28.9675 31.792H35.7515ZM54.582 46H48.246V1.2H57.078L64.31 28.016V1.2H70.582V46H63.35L54.582 13.552V46ZM86.7585 1.2C90.2572 1.2 92.8812 2.13866 94.6305 4.016C96.3798 5.89333 97.2545 8.64533 97.2545 12.272V34.928C97.2545 38.5547 96.3798 41.3067 94.6305 43.184C92.8812 45.0613 90.2572 46 86.7585 46H75.6225V1.2H86.7585ZM82.6625 39.6H86.6305C87.7825 39.6 88.6572 39.2587 89.2545 38.576C89.8945 37.8933 90.2145 36.784 90.2145 35.248V11.952C90.2145 10.416 89.8945 9.30666 89.2545 8.624C88.6572 7.94133 87.7825 7.6 86.6305 7.6H82.6625V39.6ZM126.405 46C126.149 45.2747 125.978 44.592 125.893 43.952C125.808 43.312 125.765 42.16 125.765 40.496V33.456C125.765 31.408 125.402 29.9573 124.677 29.104C123.952 28.208 122.778 27.76 121.157 27.76H118.725V46H111.685V1.2H122.309C125.936 1.2 128.581 2.05333 130.245 3.76C131.909 5.424 132.741 8.00533 132.741 11.504V15.024C132.741 19.632 131.205 22.6613 128.133 24.112C129.797 24.7947 130.992 25.9467 131.717 27.568C132.442 29.1467 132.805 31.1733 132.805 33.648V40.56C132.805 41.84 132.848 42.8853 132.933 43.696C133.018 44.464 133.232 45.232 133.573 46H126.405ZM118.725 21.36H121.477C122.885 21.36 123.93 20.9973 124.613 20.272C125.338 19.5467 125.701 18.3307 125.701 16.624V12.208C125.701 10.5867 125.402 9.41333 124.805 8.688C124.25 7.96267 123.354 7.6 122.117 7.6H118.725V21.36ZM136.859 11.952C136.859 8.368 137.776 5.59466 139.611 3.632C141.446 1.66933 144.091 0.688 147.547 0.688C151.003 0.688 153.648 1.66933 155.483 3.632C157.318 5.59466 158.235 8.368 158.235 11.952V35.248C158.235 38.832 157.318 41.6053 155.483 43.568C153.648 45.5307 151.003 46.512 147.547 46.512C144.091 46.512 141.446 45.5307 139.611 43.568C137.776 41.6053 136.859 38.832 136.859 35.248V11.952ZM143.899 35.696C143.899 38.64 145.115 40.112 147.547 40.112C149.979 40.112 151.195 38.64 151.195 35.696V11.504C151.195 8.56 149.979 7.088 147.547 7.088C145.115 7.088 143.899 8.56 143.899 11.504V35.696ZM178.748 1.2H185.212L178.3 46H167.804L160.892 1.2H167.996L173.372 37.744L178.748 1.2ZM205.202 20.08V26.48H195.538V39.6H207.698V46H188.498V1.2H207.698V7.6H195.538V20.08H205.202ZM226.78 46C226.524 45.2747 226.353 44.592 226.268 43.952C226.183 43.312 226.14 42.16 226.14 40.496V33.456C226.14 31.408 225.777 29.9573 225.052 29.104C224.327 28.208 223.153 27.76 221.532 27.76H219.1V46H212.06V1.2H222.684C226.311 1.2 228.956 2.05333 230.62 3.76C232.284 5.424 233.116 8.00533 233.116 11.504V15.024C233.116 19.632 231.58 22.6613 228.508 24.112C230.172 24.7947 231.367 25.9467 232.092 27.568C232.817 29.1467 233.18 31.1733 233.18 33.648V40.56C233.18 41.84 233.223 42.8853 233.308 43.696C233.393 44.464 233.607 45.232 233.948 46H226.78ZM219.1 21.36H221.852C223.26 21.36 224.305 20.9973 224.988 20.272C225.713 19.5467 226.076 18.3307 226.076 16.624V12.208C226.076 10.5867 225.777 9.41333 225.18 8.688C224.625 7.96267 223.729 7.6 222.492 7.6H219.1V21.36Z" fill="black"/>
</svg>
