<svg width="58" height="22" viewBox="0 0 58 22" fill="none" xmlns="http://www.w3.org/2000/svg">
<path d="M8.49994 4C8.49994 2.067 10.0669 0.5 11.9999 0.5H17.9999C19.9329 0.5 21.4999 2.067 21.4999 4V21.5H8.49994V4Z" stroke="#AD810F"/>
<path d="M11.9999 5C11.9999 3.34315 13.3431 2 14.9999 2H17.9999C19.6568 2 20.9999 3.34315 20.9999 5V21H11.9999V5Z" fill="#E1A817"/>
<rect x="10.9999" y="3" width="8" height="4" rx="1" fill="#F7BD28" stroke="#AD810F"/>
<rect x="4.99994" y="21" width="20" height="1" rx="0.5" fill="#AD810F"/>
<path d="M5.41266 5.55955C5.41266 5.55955 1.64657 8.8484 3.95727 12.4066C6.26798 15.9648 4.07417 19.1125 4.07417 19.1125" stroke="#AD810F" stroke-linecap="round" stroke-linejoin="round"/>
<path d="M40.5679 2.8H43.0159V14H41.3519V5.968L40.1359 14H38.4719L37.1599 6.08V14H35.6239V2.8H38.0719L39.3679 10.752L40.5679 2.8ZM46.8882 2.8C47.7629 2.8 48.4189 3.03467 48.8562 3.504C49.2935 3.97333 49.5122 4.66133 49.5122 5.568V7.024C49.5122 7.93067 49.2935 8.61867 48.8562 9.088C48.4189 9.55733 47.7629 9.792 46.8882 9.792H46.0562V14H44.2962V2.8H46.8882ZM46.0562 8.192H46.8882C47.1762 8.192 47.3895 8.112 47.5282 7.952C47.6775 7.792 47.7522 7.52 47.7522 7.136V5.456C47.7522 5.072 47.6775 4.8 47.5282 4.64C47.3895 4.48 47.1762 4.4 46.8882 4.4H46.0562V8.192ZM55.5096 7.76V11.312C55.5096 12.2187 55.2856 12.9173 54.8376 13.408C54.3896 13.888 53.7389 14.128 52.8856 14.128C52.0322 14.128 51.3816 13.888 50.9336 13.408C50.4856 12.9173 50.2616 12.2187 50.2616 11.312V5.488C50.2616 4.58133 50.4856 3.888 50.9336 3.408C51.3816 2.91733 52.0322 2.672 52.8856 2.672C53.7389 2.672 54.3896 2.91733 54.8376 3.408C55.2856 3.888 55.5096 4.58133 55.5096 5.488V6.576H53.8456V5.376C53.8456 4.64 53.5416 4.272 52.9336 4.272C52.3256 4.272 52.0216 4.64 52.0216 5.376V11.424C52.0216 12.1493 52.3256 12.512 52.9336 12.512C53.5416 12.512 53.8456 12.1493 53.8456 11.424V9.36H53.0456V7.76H55.5096Z" fill="#1B1E28"/>
</svg>
