<svg width="29" height="23" viewBox="0 0 29 23" fill="none" xmlns="http://www.w3.org/2000/svg">
<path d="M6.812 5.632C6.812 4.702 6.657 4.06133 6.347 3.71C6.05767 3.338 5.62367 3.152 5.045 3.152C3.867 3.152 3.278 3.865 3.278 5.291V6.686H0.0540001V5.508C0.0540001 3.75133 0.488 2.408 1.356 1.478C2.224 0.527333 3.48467 0.0519999 5.138 0.0519999C6.79133 0.0519999 8.052 0.527333 8.92 1.478C9.788 2.408 10.222 3.75133 10.222 5.508V6.066C10.222 7.244 10.0257 8.205 9.633 8.949C9.24033 9.67233 8.641 10.1993 7.835 10.53C9.42633 11.2327 10.222 12.7517 10.222 15.087V16.792C10.222 18.5487 9.788 19.9023 8.92 20.853C8.052 21.783 6.79133 22.248 5.138 22.248C3.48467 22.248 2.224 21.783 1.356 20.853C0.488 19.9023 0.0540001 18.5487 0.0540001 16.792V14.994H3.278V17.009C3.278 18.435 3.867 19.148 5.045 19.148C5.62367 19.148 6.05767 18.9723 6.347 18.621C6.657 18.249 6.812 17.6083 6.812 16.699V14.994C6.812 14.002 6.63633 13.2993 6.285 12.886C5.93367 12.452 5.36533 12.235 4.58 12.235H3.433V9.135H4.766C5.448 9.135 5.95433 8.95933 6.285 8.608C6.63633 8.25667 6.812 7.66767 6.812 6.841V5.632ZM15.817 22H12.531V18.714H15.817V22ZM25.041 5.632C25.041 4.702 24.886 4.06133 24.576 3.71C24.2866 3.338 23.8526 3.152 23.274 3.152C22.096 3.152 21.507 3.865 21.507 5.291V7.616H18.283V5.508C18.283 3.75133 18.717 2.408 19.585 1.478C20.453 0.527333 21.7136 0.0519999 23.367 0.0519999C25.0203 0.0519999 26.281 0.527333 27.149 1.478C28.017 2.408 28.451 3.75133 28.451 5.508C28.451 6.72733 28.2443 7.85367 27.831 8.887C27.4383 9.89967 26.963 10.778 26.405 11.522C25.847 12.266 25.1236 13.1237 24.235 14.095C23.3463 15.087 22.6953 15.893 22.282 16.513C21.8686 17.133 21.662 17.7737 21.662 18.435C21.662 18.6417 21.6723 18.7967 21.693 18.9H28.141V22H18.283V19.334C18.283 18.3213 18.438 17.4223 18.748 16.637C19.058 15.831 19.4403 15.1283 19.895 14.529C20.3496 13.9297 20.949 13.227 21.693 12.421C22.4576 11.5737 23.057 10.871 23.491 10.313C23.925 9.73433 24.2866 9.05233 24.576 8.267C24.886 7.48167 25.041 6.60333 25.041 5.632Z" fill="#1B1E28"/>
</svg>
