<svg width="58" height="23" viewBox="0 0 58 23" fill="none" xmlns="http://www.w3.org/2000/svg">
<path d="M0.348 3.028C1.17467 3.028 1.82567 2.91433 2.301 2.687C2.797 2.439 3.15867 2.129 3.386 1.757C3.634 1.385 3.87167 0.899333 4.099 0.299999H6.393V22H2.983V5.446H0.348V3.028ZM20.544 16.606C20.544 20.3673 18.808 22.248 15.336 22.248C13.6827 22.248 12.422 21.783 11.554 20.853C10.686 19.9023 10.252 18.5487 10.252 16.792V16.234H13.476V17.009C13.476 18.435 14.065 19.148 15.243 19.148C15.8837 19.148 16.359 18.9517 16.669 18.559C16.979 18.1663 17.134 17.474 17.134 16.482V12.514C16.5347 13.7953 15.4807 14.436 13.972 14.436C12.732 14.436 11.7917 14.0123 11.151 13.165C10.5103 12.3177 10.19 11.088 10.19 9.476V5.508C10.19 3.772 10.6343 2.42866 11.523 1.478C12.4117 0.527333 13.693 0.0519999 15.367 0.0519999C17.041 0.0519999 18.3223 0.527333 19.211 1.478C20.0997 2.42866 20.544 3.772 20.544 5.508V16.606ZM15.367 11.336C16.545 11.336 17.134 10.623 17.134 9.197V5.291C17.134 3.88567 16.545 3.183 15.367 3.183C14.189 3.183 13.6 3.88567 13.6 5.291V9.197C13.6 10.623 14.189 11.336 15.367 11.336ZM33.238 0.299999L24.682 22H21.737L30.293 0.299999H33.238ZM41.3867 5.632C41.3867 4.702 41.2317 4.06133 40.9217 3.71C40.6323 3.338 40.1983 3.152 39.6197 3.152C38.4417 3.152 37.8527 3.865 37.8527 5.291V7.616H34.6287V5.508C34.6287 3.75133 35.0627 2.408 35.9307 1.478C36.7987 0.527333 38.0593 0.0519999 39.7127 0.0519999C41.366 0.0519999 42.6267 0.527333 43.4947 1.478C44.3627 2.408 44.7967 3.75133 44.7967 5.508C44.7967 6.72733 44.59 7.85367 44.1767 8.887C43.784 9.89967 43.3087 10.778 42.7507 11.522C42.1927 12.266 41.4693 13.1237 40.5807 14.095C39.692 15.087 39.041 15.893 38.6277 16.513C38.2143 17.133 38.0077 17.7737 38.0077 18.435C38.0077 18.6417 38.018 18.7967 38.0387 18.9H44.4867V22H34.6287V19.334C34.6287 18.3213 34.7837 17.4223 35.0937 16.637C35.4037 15.831 35.786 15.1283 36.2407 14.529C36.6953 13.9297 37.2947 13.227 38.0387 12.421C38.8033 11.5737 39.4027 10.871 39.8367 10.313C40.2707 9.73433 40.6323 9.05233 40.9217 8.267C41.2317 7.48167 41.3867 6.60333 41.3867 5.632ZM52.3137 0.299999H56.0337V14.963H57.6457V18.063H56.0337V22H52.6857V18.063H46.1137V14.963L52.3137 0.299999ZM52.6857 6.81L49.2447 14.963H52.6857V6.81Z" fill="#1B1E28"/>
</svg>
