<svg width="171" height="47" viewBox="0 0 171 47" fill="none" xmlns="http://www.w3.org/2000/svg">
<path d="M10.928 1.2C14.4267 1.2 17.0507 2.13866 18.8 4.016C20.5493 5.89333 21.424 8.64533 21.424 12.272V18.096C21.424 21.7227 20.5493 24.4747 18.8 26.352C17.0507 28.2293 14.4267 29.168 10.928 29.168H7.6V46H0.56V1.2H10.928ZM7.6 22.768H10.928C12.08 22.768 12.9333 22.448 13.488 21.808C14.0853 21.168 14.384 20.08 14.384 18.544V11.824C14.384 10.288 14.0853 9.2 13.488 8.56C12.9333 7.92 12.08 7.6 10.928 7.6H7.6V22.768ZM24.109 11.952C24.109 8.368 25.0263 5.59466 26.861 3.632C28.6957 1.66933 31.341 0.688 34.797 0.688C38.253 0.688 40.8983 1.66933 42.733 3.632C44.5677 5.59466 45.485 8.368 45.485 11.952V35.248C45.485 38.832 44.5677 41.6053 42.733 43.568C40.8983 45.5307 38.253 46.512 34.797 46.512C31.341 46.512 28.6957 45.5307 26.861 43.568C25.0263 41.6053 24.109 38.832 24.109 35.248V11.952ZM31.149 35.696C31.149 38.64 32.365 40.112 34.797 40.112C37.229 40.112 38.445 38.64 38.445 35.696V11.504C38.445 8.56 37.229 7.088 34.797 7.088C32.365 7.088 31.149 8.56 31.149 11.504V35.696ZM64.78 46C64.524 45.2747 64.3533 44.592 64.268 43.952C64.1827 43.312 64.14 42.16 64.14 40.496V33.456C64.14 31.408 63.7773 29.9573 63.052 29.104C62.3267 28.208 61.1533 27.76 59.532 27.76H57.1V46H50.06V1.2H60.684C64.3107 1.2 66.956 2.05333 68.62 3.76C70.284 5.424 71.116 8.00533 71.116 11.504V15.024C71.116 19.632 69.58 22.6613 66.508 24.112C68.172 24.7947 69.3667 25.9467 70.092 27.568C70.8173 29.1467 71.18 31.1733 71.18 33.648V40.56C71.18 41.84 71.2227 42.8853 71.308 43.696C71.3933 44.464 71.6067 45.232 71.948 46H64.78ZM57.1 21.36H59.852C61.26 21.36 62.3053 20.9973 62.988 20.272C63.7133 19.5467 64.076 18.3307 64.076 16.624V12.208C64.076 10.5867 63.7773 9.41333 63.18 8.688C62.6253 7.96267 61.7293 7.6 60.492 7.6H57.1V21.36ZM74.914 11.952C74.914 8.32533 75.7887 5.552 77.538 3.632C79.2873 1.66933 81.8687 0.688 85.282 0.688C88.6953 0.688 91.2767 1.66933 93.026 3.632C94.7753 5.552 95.65 8.32533 95.65 11.952V13.36H88.994V11.504C88.994 9.968 88.6953 8.85866 88.098 8.176C87.5007 7.45066 86.626 7.088 85.474 7.088C84.322 7.088 83.4473 7.45066 82.85 8.176C82.2527 8.85866 81.954 9.968 81.954 11.504C81.954 13.3813 82.4447 15.024 83.426 16.432C84.45 17.84 85.9647 19.44 87.97 21.232C89.634 22.768 90.978 24.1333 92.002 25.328C93.026 26.48 93.9007 27.888 94.626 29.552C95.3513 31.216 95.714 33.1147 95.714 35.248C95.714 38.8747 94.818 41.6693 93.026 43.632C91.234 45.552 88.6313 46.512 85.218 46.512C81.8047 46.512 79.202 45.552 77.41 43.632C75.618 41.6693 74.722 38.8747 74.722 35.248V32.496H81.378V35.696C81.378 38.5973 82.594 40.048 85.026 40.048C87.458 40.048 88.674 38.5973 88.674 35.696C88.674 33.8187 88.162 32.176 87.138 30.768C86.1567 29.36 84.6633 27.76 82.658 25.968C80.994 24.432 79.65 23.088 78.626 21.936C77.602 20.7413 76.7273 19.312 76.002 17.648C75.2767 15.984 74.914 14.0853 74.914 11.952ZM120.164 35.248C120.164 38.8747 119.268 41.6693 117.476 43.632C115.684 45.552 113.081 46.512 109.668 46.512C106.254 46.512 103.652 45.552 101.86 43.632C100.068 41.6693 99.1715 38.8747 99.1715 35.248V11.952C99.1715 8.32533 100.068 5.552 101.86 3.632C103.652 1.66933 106.254 0.688 109.668 0.688C113.081 0.688 115.684 1.66933 117.476 3.632C119.268 5.552 120.164 8.32533 120.164 11.952V16.304H113.508V11.504C113.508 8.56 112.292 7.088 109.86 7.088C107.428 7.088 106.212 8.56 106.212 11.504V35.696C106.212 38.5973 107.428 40.048 109.86 40.048C112.292 40.048 113.508 38.5973 113.508 35.696V29.296H120.164V35.248ZM124.435 46V1.2H131.475V20.4H139.475V1.2H146.643V46H139.475V26.8H131.475V46H124.435ZM168.452 20.08V26.48H158.788V39.6H170.948V46H151.748V1.2H170.948V7.6H158.788V20.08H168.452Z" fill="black"/>
</svg>
