<svg width="36" height="23" viewBox="0 0 36 23" fill="none" xmlns="http://www.w3.org/2000/svg">
<path d="M6.634 0.299999H10.354V14.963H11.966V18.063H10.354V22H7.006V18.063H0.434V14.963L6.634 0.299999ZM7.006 6.81L3.565 14.963H7.006V6.81ZM18.925 0.299999H22.645V14.963H24.257V18.063H22.645V22H19.297V18.063H12.725V14.963L18.925 0.299999ZM19.297 6.81L15.856 14.963H19.297V6.81ZM32.394 5.632C32.394 4.702 32.239 4.06133 31.929 3.71C31.6397 3.338 31.2057 3.152 30.627 3.152C29.449 3.152 28.86 3.865 28.86 5.291V6.686H25.636V5.508C25.636 3.75133 26.07 2.408 26.938 1.478C27.806 0.527333 29.0667 0.0519999 30.72 0.0519999C32.3734 0.0519999 33.634 0.527333 34.502 1.478C35.37 2.408 35.804 3.75133 35.804 5.508V6.066C35.804 7.244 35.6077 8.205 35.215 8.949C34.8224 9.67233 34.223 10.1993 33.417 10.53C35.0084 11.2327 35.804 12.7517 35.804 15.087V16.792C35.804 18.5487 35.37 19.9023 34.502 20.853C33.634 21.783 32.3734 22.248 30.72 22.248C29.0667 22.248 27.806 21.783 26.938 20.853C26.07 19.9023 25.636 18.5487 25.636 16.792V14.994H28.86V17.009C28.86 18.435 29.449 19.148 30.627 19.148C31.2057 19.148 31.6397 18.9723 31.929 18.621C32.239 18.249 32.394 17.6083 32.394 16.699V14.994C32.394 14.002 32.2184 13.2993 31.867 12.886C31.5157 12.452 30.9474 12.235 30.162 12.235H29.015V9.135H30.348C31.03 9.135 31.5364 8.95933 31.867 8.608C32.2184 8.25667 32.394 7.66767 32.394 6.841V5.632Z" fill="#1B1E28"/>
</svg>
