<svg width="116" height="14" viewBox="0 0 116 14" fill="none" xmlns="http://www.w3.org/2000/svg">
<path d="M0.663 13H6.069V11.3H2.516V11.045C2.516 10.212 2.805 9.617 3.927 8.427C5.661 6.591 6.239 5.333 6.239 3.922C6.239 2.018 5.287 0.929999 3.451 0.929999C1.615 0.929999 0.663 2.018 0.663 3.922V5.078H2.431V3.803C2.431 2.953 2.805 2.63 3.4 2.63C3.995 2.63 4.369 2.919 4.369 3.99C4.369 5.095 3.961 5.996 2.533 7.509C1.139 8.971 0.663 10.008 0.663 11.708V13ZM10.2066 13.17C12.0426 13.17 13.0456 12.082 13.0456 10.178V3.922C13.0456 2.018 12.0426 0.929999 10.2066 0.929999C8.37064 0.929999 7.36764 2.018 7.36764 3.922V10.178C7.36764 12.082 8.37064 13.17 10.2066 13.17ZM10.2066 11.47C9.61164 11.47 9.23764 11.147 9.23764 10.297V3.803C9.23764 2.953 9.61164 2.63 10.2066 2.63C10.8016 2.63 11.1756 2.953 11.1756 3.803V10.297C11.1756 11.147 10.8016 11.47 10.2066 11.47ZM16.9283 13H18.7983V1.1H17.5403C17.1153 2.256 16.5543 2.596 14.9733 2.596V3.922H16.9283V13ZM23.7519 13.17C25.6899 13.17 26.6079 12.082 26.6079 10.076V3.922C26.6079 2.018 25.6049 0.929999 23.7689 0.929999C21.9329 0.929999 20.9299 2.018 20.9299 3.922V6.047C20.9299 7.798 21.6269 8.767 23.0039 8.767C23.8369 8.767 24.3809 8.41 24.7039 7.73H24.7379V10.008C24.7379 11.147 24.3639 11.47 23.7009 11.47C23.1059 11.47 22.7319 11.147 22.7319 10.297V9.957H20.9639V10.178C20.9639 12.082 21.9159 13.17 23.7519 13.17ZM23.7689 7.067C23.1229 7.067 22.7999 6.693 22.7999 5.894V3.786C22.7999 3.004 23.1229 2.63 23.7689 2.63C24.4149 2.63 24.7379 3.004 24.7379 3.786V5.894C24.7379 6.693 24.4149 7.067 23.7689 7.067ZM30.3742 7.9H34.1142V6.2H30.3742V7.9ZM40.5859 13.17C42.5239 13.17 43.4419 12.082 43.4419 10.076V3.922C43.4419 2.018 42.4389 0.929999 40.6029 0.929999C38.7669 0.929999 37.7639 2.018 37.7639 3.922V6.047C37.7639 7.798 38.4609 8.767 39.8379 8.767C40.6709 8.767 41.2149 8.41 41.5379 7.73H41.5719V10.008C41.5719 11.147 41.1979 11.47 40.5349 11.47C39.9399 11.47 39.5659 11.147 39.5659 10.297V9.957H37.7979V10.178C37.7979 12.082 38.7499 13.17 40.5859 13.17ZM40.6029 7.067C39.9569 7.067 39.6339 6.693 39.6339 5.894V3.786C39.6339 3.004 39.9569 2.63 40.6029 2.63C41.2489 2.63 41.5719 3.004 41.5719 3.786V5.894C41.5719 6.693 41.2489 7.067 40.6029 7.067ZM47.3755 13H49.2455V1.1H47.9875C47.5625 2.256 47.0015 2.596 45.4205 2.596V3.922H47.3755V13ZM54.1822 13H56.0522V1.1H54.7942C54.3692 2.256 53.8082 2.596 52.2272 2.596V3.922H54.1822V13ZM63.7285 13.17C65.5305 13.17 66.4825 12.082 66.4825 10.246V8.563H64.7145V10.382C64.7145 11.164 64.3405 11.47 63.7795 11.47C63.2185 11.47 62.8445 11.164 62.8445 10.382V3.735C62.8445 2.953 63.2185 2.63 63.7795 2.63C64.3405 2.63 64.7145 2.953 64.7145 3.735V5.112H66.4825V3.854C66.4825 2.018 65.5305 0.929999 63.7285 0.929999C61.9265 0.929999 60.9745 2.018 60.9745 3.854V10.246C60.9745 12.082 61.9265 13.17 63.7285 13.17ZM67.1083 13H68.8423L69.1823 10.671H71.3073V10.637L71.6473 13H73.5173L71.5793 1.1H69.0463L67.1083 13ZM69.4033 9.056L70.2193 3.174H70.2533L71.0863 9.056H69.4033ZM74.4245 13H76.2945V7.9H76.9405C77.7905 7.9 78.1135 8.257 78.1135 9.362V11.538C78.1135 12.507 78.1815 12.694 78.2835 13H80.1875C80.0005 12.558 79.9835 12.133 79.9835 11.555V9.464C79.9835 8.121 79.6775 7.237 78.7425 6.948V6.914C79.5755 6.574 79.9665 5.792 79.9665 4.568V3.837C79.9665 2.001 79.1335 1.1 77.1955 1.1H74.4245V13ZM76.2945 6.2V2.8H77.1445C77.8075 2.8 78.0965 3.174 78.0965 4.024V4.942C78.0965 5.894 77.6715 6.2 76.9745 6.2H76.2945ZM81.281 13H83.151V7.9H83.797C84.647 7.9 84.97 8.257 84.97 9.362V11.538C84.97 12.507 85.038 12.694 85.14 13H87.044C86.857 12.558 86.84 12.133 86.84 11.555V9.464C86.84 8.121 86.534 7.237 85.599 6.948V6.914C86.432 6.574 86.823 5.792 86.823 4.568V3.837C86.823 2.001 85.99 1.1 84.052 1.1H81.281V13ZM83.151 6.2V2.8H84.001C84.664 2.8 84.953 3.174 84.953 4.024V4.942C84.953 5.894 84.528 6.2 83.831 6.2H83.151ZM88.1374 13H93.2374V11.3H90.0074V7.645H92.5744V5.945H90.0074V2.8H93.2374V1.1H88.1374V13ZM94.3132 13H96.1832V7.9H96.8292C97.6792 7.9 98.0022 8.257 98.0022 9.362V11.538C98.0022 12.507 98.0702 12.694 98.1722 13H100.076C99.8892 12.558 99.8722 12.133 99.8722 11.555V9.464C99.8722 8.121 99.5662 7.237 98.6312 6.948V6.914C99.4642 6.574 99.8552 5.792 99.8552 4.568V3.837C99.8552 2.001 99.0222 1.1 97.0842 1.1H94.3132V13ZM96.1832 6.2V2.8H97.0332C97.6962 2.8 97.9852 3.174 97.9852 4.024V4.942C97.9852 5.894 97.5602 6.2 96.8632 6.2H96.1832ZM100.677 13H102.411L102.751 10.671H104.876V10.637L105.216 13H107.086L105.148 1.1H102.615L100.677 13ZM102.972 9.056L103.788 3.174H103.822L104.655 9.056H102.972ZM113.147 13.17C114.983 13.17 115.969 12.082 115.969 10.144C115.969 8.665 115.476 7.713 113.912 6.336C112.688 5.265 112.297 4.636 112.297 3.769C112.297 2.953 112.637 2.63 113.232 2.63C113.827 2.63 114.167 2.953 114.167 3.803V4.415H115.935V3.922C115.935 2.018 115.034 0.929999 113.215 0.929999C111.396 0.929999 110.427 2.018 110.427 3.888C110.427 5.248 110.937 6.217 112.501 7.594C113.725 8.665 114.099 9.294 114.099 10.28C114.099 11.164 113.725 11.47 113.13 11.47C112.535 11.47 112.161 11.164 112.161 10.314V9.498H110.393V10.178C110.393 12.082 111.311 13.17 113.147 13.17Z" fill="#4B5168"/>
</svg>
