<svg width="59" height="23" viewBox="0 0 59 23" fill="none" xmlns="http://www.w3.org/2000/svg">
<path d="M6.998 5.632C6.998 4.702 6.843 4.06133 6.533 3.71C6.24367 3.338 5.80967 3.152 5.231 3.152C4.053 3.152 3.464 3.865 3.464 5.291V7.616H0.24V5.508C0.24 3.75133 0.674 2.408 1.542 1.478C2.41 0.527333 3.67067 0.0519999 5.324 0.0519999C6.97733 0.0519999 8.238 0.527333 9.106 1.478C9.974 2.408 10.408 3.75133 10.408 5.508C10.408 6.72733 10.2013 7.85367 9.788 8.887C9.39533 9.89967 8.92 10.778 8.362 11.522C7.804 12.266 7.08067 13.1237 6.192 14.095C5.30333 15.087 4.65233 15.893 4.239 16.513C3.82567 17.133 3.619 17.7737 3.619 18.435C3.619 18.6417 3.62933 18.7967 3.65 18.9H10.098V22H0.24V19.334C0.24 18.3213 0.395 17.4223 0.705 16.637C1.015 15.831 1.39733 15.1283 1.852 14.529C2.30667 13.9297 2.906 13.227 3.65 12.421C4.41467 11.5737 5.014 10.871 5.448 10.313C5.882 9.73433 6.24367 9.05233 6.533 8.267C6.843 7.48167 6.998 6.60333 6.998 5.632ZM15.6 17.009C15.6 18.4143 16.189 19.117 17.367 19.117C18.545 19.117 19.134 18.4143 19.134 17.009V12.235C19.134 10.809 18.545 10.096 17.367 10.096C16.189 10.096 15.6 10.809 15.6 12.235V12.886H12.376L12.996 0.299999H21.986V3.4H16.065L15.786 8.577C16.4267 7.523 17.4187 6.996 18.762 6.996C20.002 6.996 20.9423 7.41967 21.583 8.267C22.2237 9.11433 22.544 10.344 22.544 11.956V16.792C22.544 18.5487 22.11 19.9023 21.242 20.853C20.374 21.783 19.1133 22.248 17.46 22.248C15.8067 22.248 14.546 21.783 13.678 20.853C12.81 19.9023 12.376 18.5487 12.376 16.792V14.994H15.6V17.009ZM35.238 0.299999L26.682 22H23.737L32.293 0.299999H35.238ZM43.3867 5.632C43.3867 4.702 43.2317 4.06133 42.9217 3.71C42.6323 3.338 42.1983 3.152 41.6197 3.152C40.4417 3.152 39.8527 3.865 39.8527 5.291V7.616H36.6287V5.508C36.6287 3.75133 37.0627 2.408 37.9307 1.478C38.7987 0.527333 40.0593 0.0519999 41.7127 0.0519999C43.366 0.0519999 44.6267 0.527333 45.4947 1.478C46.3627 2.408 46.7967 3.75133 46.7967 5.508C46.7967 6.72733 46.59 7.85367 46.1767 8.887C45.784 9.89967 45.3087 10.778 44.7507 11.522C44.1927 12.266 43.4693 13.1237 42.5807 14.095C41.692 15.087 41.041 15.893 40.6277 16.513C40.2143 17.133 40.0077 17.7737 40.0077 18.435C40.0077 18.6417 40.018 18.7967 40.0387 18.9H46.4867V22H36.6287V19.334C36.6287 18.3213 36.7837 17.4223 37.0937 16.637C37.4037 15.831 37.786 15.1283 38.2407 14.529C38.6953 13.9297 39.2947 13.227 40.0387 12.421C40.8033 11.5737 41.4027 10.871 41.8367 10.313C42.2707 9.73433 42.6323 9.05233 42.9217 8.267C43.2317 7.48167 43.3867 6.60333 43.3867 5.632ZM58.9327 16.606C58.9327 20.3673 57.1967 22.248 53.7247 22.248C52.0714 22.248 50.8107 21.783 49.9427 20.853C49.0747 19.9023 48.6407 18.5487 48.6407 16.792V16.234H51.8647V17.009C51.8647 18.435 52.4537 19.148 53.6317 19.148C54.2724 19.148 54.7477 18.9517 55.0577 18.559C55.3677 18.1663 55.5227 17.474 55.5227 16.482V12.514C54.9234 13.7953 53.8694 14.436 52.3607 14.436C51.1207 14.436 50.1804 14.0123 49.5397 13.165C48.899 12.3177 48.5787 11.088 48.5787 9.476V5.508C48.5787 3.772 49.023 2.42866 49.9117 1.478C50.8004 0.527333 52.0817 0.0519999 53.7557 0.0519999C55.4297 0.0519999 56.711 0.527333 57.5997 1.478C58.4884 2.42866 58.9327 3.772 58.9327 5.508V16.606ZM53.7557 11.336C54.9337 11.336 55.5227 10.623 55.5227 9.197V5.291C55.5227 3.88567 54.9337 3.183 53.7557 3.183C52.5777 3.183 51.9887 3.88567 51.9887 5.291V9.197C51.9887 10.623 52.5777 11.336 53.7557 11.336Z" fill="#1B1E28"/>
</svg>
