<svg width="142" height="14" viewBox="0 0 142 14" fill="none" xmlns="http://www.w3.org/2000/svg">
<path d="M0.663 13H6.069V11.3H2.516V11.045C2.516 10.212 2.805 9.617 3.927 8.427C5.661 6.591 6.239 5.333 6.239 3.922C6.239 2.018 5.287 0.929999 3.451 0.929999C1.615 0.929999 0.663 2.018 0.663 3.922V5.078H2.431V3.803C2.431 2.953 2.805 2.63 3.4 2.63C3.995 2.63 4.369 2.919 4.369 3.99C4.369 5.095 3.961 5.996 2.533 7.509C1.139 8.971 0.663 10.008 0.663 11.708V13ZM10.2066 13.17C12.0426 13.17 13.0456 12.082 13.0456 10.178V3.922C13.0456 2.018 12.0426 0.929999 10.2066 0.929999C8.37064 0.929999 7.36764 2.018 7.36764 3.922V10.178C7.36764 12.082 8.37064 13.17 10.2066 13.17ZM10.2066 11.47C9.61164 11.47 9.23764 11.147 9.23764 10.297V3.803C9.23764 2.953 9.61164 2.63 10.2066 2.63C10.8016 2.63 11.1756 2.953 11.1756 3.803V10.297C11.1756 11.147 10.8016 11.47 10.2066 11.47ZM16.9283 13H18.7983V1.1H17.5403C17.1153 2.256 16.5543 2.596 14.9733 2.596V3.922H16.9283V13ZM23.7519 13.17C25.6899 13.17 26.6079 12.082 26.6079 10.076V3.922C26.6079 2.018 25.6049 0.929999 23.7689 0.929999C21.9329 0.929999 20.9299 2.018 20.9299 3.922V6.047C20.9299 7.798 21.6269 8.767 23.0039 8.767C23.8369 8.767 24.3809 8.41 24.7039 7.73H24.7379V10.008C24.7379 11.147 24.3639 11.47 23.7009 11.47C23.1059 11.47 22.7319 11.147 22.7319 10.297V9.957H20.9639V10.178C20.9639 12.082 21.9159 13.17 23.7519 13.17ZM23.7689 7.067C23.1229 7.067 22.7999 6.693 22.7999 5.894V3.786C22.7999 3.004 23.1229 2.63 23.7689 2.63C24.4149 2.63 24.7379 3.004 24.7379 3.786V5.894C24.7379 6.693 24.4149 7.067 23.7689 7.067ZM30.3742 7.9H34.1142V6.2H30.3742V7.9ZM37.9509 13H39.8209V7.9H40.4669C41.3169 7.9 41.6399 8.257 41.6399 9.362V11.538C41.6399 12.507 41.7079 12.694 41.8099 13H43.7139C43.5269 12.558 43.5099 12.133 43.5099 11.555V9.464C43.5099 8.121 43.2039 7.237 42.2689 6.948V6.914C43.1019 6.574 43.4929 5.792 43.4929 4.568V3.837C43.4929 2.001 42.6599 1.1 40.7219 1.1H37.9509V13ZM39.8209 6.2V2.8H40.6709C41.3339 2.8 41.6229 3.174 41.6229 4.024V4.942C41.6229 5.894 41.1979 6.2 40.5009 6.2H39.8209ZM44.3144 13H46.0484L46.3884 10.671H48.5134V10.637L48.8534 13H50.7234L48.7854 1.1H46.2524L44.3144 13ZM46.6094 9.056L47.4254 3.174H47.4594L48.2924 9.056H46.6094ZM51.6306 13H53.2966V4.313H53.3306L55.5746 13H57.4956V1.1H55.8296V8.223H55.7956L53.9766 1.1H51.6306V13ZM61.5375 13.17C63.3735 13.17 64.3255 12.082 64.3255 10.178V6.285H61.6225V7.985H62.5575V10.314C62.5575 11.164 62.1835 11.47 61.5885 11.47C60.9935 11.47 60.6195 11.164 60.6195 10.314V3.803C60.6195 2.953 60.9935 2.63 61.5885 2.63C62.1835 2.63 62.5575 2.953 62.5575 3.803V4.942H64.3255V3.922C64.3255 2.018 63.3735 0.929999 61.5375 0.929999C59.7015 0.929999 58.7495 2.018 58.7495 3.922V10.178C58.7495 12.082 59.7015 13.17 61.5375 13.17ZM65.5261 13H70.6261V11.3H67.3961V7.645H69.9631V5.945H67.3961V2.8H70.6261V1.1H65.5261V13ZM74.4245 13H76.2945V7.9H76.9405C77.7905 7.9 78.1135 8.257 78.1135 9.362V11.538C78.1135 12.507 78.1815 12.694 78.2835 13H80.1875C80.0005 12.558 79.9835 12.133 79.9835 11.555V9.464C79.9835 8.121 79.6775 7.237 78.7425 6.948V6.914C79.5755 6.574 79.9665 5.792 79.9665 4.568V3.837C79.9665 2.001 79.1335 1.1 77.1955 1.1H74.4245V13ZM76.2945 6.2V2.8H77.1445C77.8075 2.8 78.0965 3.174 78.0965 4.024V4.942C78.0965 5.894 77.6715 6.2 76.9745 6.2H76.2945ZM83.984 13.17C85.82 13.17 86.823 12.082 86.823 10.178V3.922C86.823 2.018 85.82 0.929999 83.984 0.929999C82.148 0.929999 81.145 2.018 81.145 3.922V10.178C81.145 12.082 82.148 13.17 83.984 13.17ZM83.984 11.47C83.389 11.47 83.015 11.147 83.015 10.297V3.803C83.015 2.953 83.389 2.63 83.984 2.63C84.579 2.63 84.953 2.953 84.953 3.803V10.297C84.953 11.147 84.579 11.47 83.984 11.47ZM89.3634 13H91.8454L93.6474 1.1H91.9304L90.7064 10.331H90.6724L89.4484 1.1H87.5614L89.3634 13ZM94.5456 13H99.6456V11.3H96.4156V7.645H98.9826V5.945H96.4156V2.8H99.6456V1.1H94.5456V13ZM100.721 13H102.591V7.9H103.237C104.087 7.9 104.41 8.257 104.41 9.362V11.538C104.41 12.507 104.478 12.694 104.58 13H106.484C106.297 12.558 106.28 12.133 106.28 11.555V9.464C106.28 8.121 105.974 7.237 105.039 6.948V6.914C105.872 6.574 106.263 5.792 106.263 4.568V3.837C106.263 2.001 105.43 1.1 103.492 1.1H100.721V13ZM102.591 6.2V2.8H103.441C104.104 2.8 104.393 3.174 104.393 4.024V4.942C104.393 5.894 103.968 6.2 103.271 6.2H102.591ZM111.61 13H114.092L115.894 1.1H114.177L112.953 10.331H112.919L111.695 1.1H109.808L111.61 13ZM116.792 13H121.892V11.3H118.662V7.645H121.229V5.945H118.662V2.8H121.892V1.1H116.792V13ZM122.968 13H127.915V11.3H124.838V1.1H122.968V13ZM128.385 13H130.119L130.459 10.671H132.584V10.637L132.924 13H134.794L132.856 1.1H130.323L128.385 13ZM130.68 9.056L131.496 3.174H131.53L132.363 9.056H130.68ZM135.701 13H137.571V7.9H138.217C139.067 7.9 139.39 8.257 139.39 9.362V11.538C139.39 12.507 139.458 12.694 139.56 13H141.464C141.277 12.558 141.26 12.133 141.26 11.555V9.464C141.26 8.121 140.954 7.237 140.019 6.948V6.914C140.852 6.574 141.243 5.792 141.243 4.568V3.837C141.243 2.001 140.41 1.1 138.472 1.1H135.701V13ZM137.571 6.2V2.8H138.421C139.084 2.8 139.373 3.174 139.373 4.024V4.942C139.373 5.894 138.948 6.2 138.251 6.2H137.571Z" fill="#4B5168"/>
</svg>
