<svg width="30" height="23" viewBox="0 0 30 23" fill="none" xmlns="http://www.w3.org/2000/svg">
<path d="M0.023 5.694C0.023 1.93267 1.759 0.0519999 5.231 0.0519999C6.88433 0.0519999 8.145 0.527333 9.013 1.478C9.881 2.408 10.315 3.75133 10.315 5.508V6.066H7.091V5.291C7.091 3.865 6.502 3.152 5.324 3.152C4.68333 3.152 4.208 3.34833 3.898 3.741C3.588 4.13367 3.433 4.826 3.433 5.818V9.786C4.03233 8.50467 5.08633 7.864 6.595 7.864C7.835 7.864 8.77533 8.28767 9.416 9.135C10.0567 9.98233 10.377 11.212 10.377 12.824V16.792C10.377 18.528 9.93267 19.8713 9.044 20.822C8.15533 21.7727 6.874 22.248 5.2 22.248C3.526 22.248 2.24467 21.7727 1.356 20.822C0.467333 19.8713 0.023 18.528 0.023 16.792V5.694ZM5.2 10.964C4.022 10.964 3.433 11.677 3.433 13.103V17.009C3.433 18.4143 4.022 19.117 5.2 19.117C6.378 19.117 6.967 18.4143 6.967 17.009V13.103C6.967 11.677 6.378 10.964 5.2 10.964ZM15.817 22H12.531V18.714H15.817V22ZM23.677 0.299999H27.397V14.963H29.009V18.063H27.397V22H24.049V18.063H17.477V14.963L23.677 0.299999ZM24.049 6.81L20.608 14.963H24.049V6.81Z" fill="#1B1E28"/>
</svg>
