<svg width="35" height="22" viewBox="0 0 35 22" fill="none" xmlns="http://www.w3.org/2000/svg">
<path d="M6.998 5.632C6.998 4.702 6.843 4.06133 6.533 3.71C6.24367 3.338 5.80967 3.152 5.231 3.152C4.053 3.152 3.464 3.865 3.464 5.291V7.616H0.24V5.508C0.24 3.75133 0.674 2.408 1.542 1.478C2.41 0.527333 3.67067 0.0519999 5.324 0.0519999C6.97733 0.0519999 8.238 0.527333 9.106 1.478C9.974 2.408 10.408 3.75133 10.408 5.508C10.408 6.72733 10.2013 7.85367 9.788 8.887C9.39533 9.89967 8.92 10.778 8.362 11.522C7.804 12.266 7.08067 13.1237 6.192 14.095C5.30333 15.087 4.65233 15.893 4.239 16.513C3.82567 17.133 3.619 17.7737 3.619 18.435C3.619 18.6417 3.62933 18.7967 3.65 18.9H10.098V22H0.24V19.334C0.24 18.3213 0.395 17.4223 0.705 16.637C1.015 15.831 1.39733 15.1283 1.852 14.529C2.30667 13.9297 2.906 13.227 3.65 12.421C4.41467 11.5737 5.014 10.871 5.448 10.313C5.882 9.73433 6.24367 9.05233 6.533 8.267C6.843 7.48167 6.998 6.60333 6.998 5.632ZM17.925 0.299999H21.645V14.963H23.257V18.063H21.645V22H18.297V18.063H11.725V14.963L17.925 0.299999ZM18.297 6.81L14.856 14.963H18.297V6.81ZM34.835 3.276L29.813 22H26.403L31.394 3.4H24.605V0.299999H34.835V3.276Z" fill="#1B1E28"/>
</svg>
