<svg width="453" height="68" viewBox="0 0 453 68" fill="none" xmlns="http://www.w3.org/2000/svg">
<path d="M4.912 11.168C3.136 11.168 1.92 10.272 1.792 8.56H0.64C0.72 10.512 1.952 12.224 4.88 12.224C7.424 12.224 9.136 10.928 9.136 8.96C9.136 4.384 2.384 6.864 2.384 3.552C2.384 2.288 3.408 1.456 5.12 1.456C6.8 1.456 7.84 2.512 7.888 4.08H9.024C8.976 2 7.632 0.4 5.104 0.4C2.56 0.4 1.216 1.968 1.216 3.6C1.216 8.16 7.952 5.44 7.952 9.04C7.952 10.432 6.768 11.168 4.912 11.168ZM18.3424 8.256C18.3424 8.256 18.3584 8 18.3584 7.824C18.3584 5.52 16.8704 3.664 14.4384 3.664C11.9904 3.664 10.4384 5.664 10.4384 7.92C10.4384 10.208 11.8784 12.192 14.4544 12.192C16.3904 12.192 17.7344 11.008 18.2144 9.456H17.0304C16.6784 10.448 15.7184 11.168 14.4704 11.168C12.7584 11.168 11.6864 9.904 11.5744 8.256H18.3424ZM14.4384 4.688C16.0384 4.688 17.0784 5.76 17.2224 7.328H11.6064C11.7984 5.824 12.8544 4.688 14.4384 4.688ZM21.1962 12V-9.53674e-07H20.0602V12H21.1962ZM30.8231 8.256C30.8231 8.256 30.8391 8 30.8391 7.824C30.8391 5.52 29.3511 3.664 26.9191 3.664C24.4711 3.664 22.9191 5.664 22.9191 7.92C22.9191 10.208 24.3591 12.192 26.9351 12.192C28.8711 12.192 30.2151 11.008 30.6951 9.456H29.5111C29.1591 10.448 28.1991 11.168 26.9511 11.168C25.2391 11.168 24.1671 9.904 24.0551 8.256H30.8231ZM26.9191 4.688C28.5191 4.688 29.5591 5.76 29.7031 7.328H24.0871C24.2791 5.824 25.3351 4.688 26.9191 4.688ZM31.9329 7.936C31.9329 10.16 33.4689 12.192 35.9489 12.192C38.1569 12.192 39.4369 10.72 39.7569 9.104H38.6049C38.2689 10.368 37.3409 11.168 35.9489 11.168C34.2369 11.168 33.0849 9.808 33.0849 7.936C33.0849 6.048 34.2369 4.688 35.9489 4.688C37.3409 4.688 38.2689 5.488 38.6049 6.752H39.7569C39.4369 5.136 38.1569 3.664 35.9489 3.664C33.4689 3.664 31.9329 5.696 31.9329 7.936ZM42.7767 4.816H44.4407V3.856H42.7767V1.536H41.6407V3.856H40.0887V4.816H41.6407V12H42.7767V4.816ZM49.544 3.856H47.96V4.816H49.544V12H50.68V4.816H52.52V3.856H50.68V2.464C50.68 1.424 51.176 1.04 52.056 1.04C52.344 1.04 52.504 1.072 52.504 1.072V0.0319996C52.504 0.0319996 52.296 -9.53674e-07 51.96 -9.53674e-07C50.536 -9.53674e-07 49.544 0.799999 49.544 2.512V3.856ZM57.6422 3.792C57.6422 3.792 57.4502 3.776 57.3702 3.776C55.8662 3.776 55.0662 4.56 54.7622 5.12V3.856H53.6742V12H54.8102V7.376C54.8102 5.68 55.8502 4.848 57.2422 4.848C57.4502 4.848 57.6422 4.864 57.6422 4.864V3.792ZM61.9896 12.192C64.5656 12.192 66.1496 10.176 66.1496 7.936C66.1496 5.696 64.5656 3.664 61.9896 3.664C59.4296 3.664 57.8456 5.696 57.8456 7.936C57.8456 10.176 59.4296 12.192 61.9896 12.192ZM58.9976 7.936C58.9976 6.096 60.1816 4.688 61.9896 4.688C63.8136 4.688 64.9976 6.096 64.9976 7.936C64.9976 9.76 63.8136 11.168 61.9896 11.168C60.1816 11.168 58.9976 9.76 58.9976 7.936ZM74.514 7.248C74.514 5.52 75.57 4.656 76.85 4.656C78.274 4.656 78.882 5.648 78.882 7.024V12H80.018V6.8C80.018 5.072 79.026 3.664 77.042 3.664C75.586 3.664 74.626 4.448 74.178 5.232C73.746 4.288 72.85 3.664 71.522 3.664C69.938 3.664 69.234 4.576 68.946 5.104V3.856H67.858V12H68.994V7.152C68.994 5.584 70.002 4.656 71.33 4.656C72.754 4.656 73.378 5.6 73.378 7.024V12H74.514V7.248ZM93.3561 3.856H92.2681V5.36C91.7081 4.32 90.6681 3.664 89.1801 3.664C86.6841 3.664 85.3401 5.696 85.3401 7.936C85.3401 10.176 86.6841 12.192 89.1801 12.192C90.6681 12.192 91.7081 11.536 92.2681 10.496V12H93.3561V3.856ZM86.4921 7.936C86.4921 6.16 87.5801 4.688 89.4041 4.688C91.2281 4.688 92.2681 6.16 92.2681 7.936C92.2681 9.712 91.2281 11.168 89.4041 11.168C87.5801 11.168 86.4921 9.712 86.4921 7.936ZM106.79 12H107.974L110.822 3.856H109.622L107.398 10.656L105.19 3.856H104.006L101.766 10.656L99.5743 3.856H98.3583L101.174 12H102.358L104.582 5.296H104.598L106.79 12ZM112.706 1.84C113.17 1.84 113.522 1.52 113.522 1.056C113.522 0.575999 113.17 0.24 112.706 0.24C112.226 0.24 111.89 0.575999 111.89 1.056C111.89 1.52 112.226 1.84 112.706 1.84ZM112.13 12H113.266V3.856H112.13V12ZM121.869 5.328C121.325 4.352 120.317 3.664 118.829 3.664C116.333 3.664 114.989 5.68 114.989 7.936C114.989 10.176 116.333 12.192 118.829 12.192C120.317 12.192 121.357 11.536 121.917 10.496V12H123.005V-9.53674e-07H121.869V5.328ZM121.917 7.936C121.917 9.712 120.877 11.168 119.053 11.168C117.229 11.168 116.141 9.712 116.141 7.936C116.141 6.128 117.229 4.688 119.053 4.688C120.877 4.688 121.917 6.128 121.917 7.936ZM132.626 8.256C132.626 8.256 132.642 8 132.642 7.824C132.642 5.52 131.154 3.664 128.722 3.664C126.274 3.664 124.722 5.664 124.722 7.92C124.722 10.208 126.162 12.192 128.738 12.192C130.674 12.192 132.017 11.008 132.498 9.456H131.314C130.962 10.448 130.002 11.168 128.754 11.168C127.042 11.168 125.97 9.904 125.858 8.256H132.626ZM128.722 4.688C130.322 4.688 131.362 5.76 131.506 7.328H125.89C126.082 5.824 127.138 4.688 128.722 4.688ZM141.997 3.792C141.997 3.792 141.805 3.776 141.725 3.776C140.221 3.776 139.421 4.56 139.117 5.12V3.856H138.029V12H139.165V7.376C139.165 5.68 140.205 4.848 141.597 4.848C141.805 4.848 141.997 4.864 141.997 4.864V3.792ZM150.216 3.856H149.128V5.36C148.568 4.32 147.528 3.664 146.04 3.664C143.544 3.664 142.2 5.696 142.2 7.936C142.2 10.176 143.544 12.192 146.04 12.192C147.528 12.192 148.568 11.536 149.128 10.496V12H150.216V3.856ZM143.352 7.936C143.352 6.16 144.44 4.688 146.264 4.688C148.088 4.688 149.128 6.16 149.128 7.936C149.128 9.712 148.088 11.168 146.264 11.168C144.44 11.168 143.352 9.712 143.352 7.936ZM153.629 3.856H152.541V12H153.677V7.152C153.677 5.52 154.749 4.656 156.125 4.656C157.581 4.656 158.269 5.552 158.269 7.024V12H159.405V6.8C159.405 4.992 158.333 3.664 156.317 3.664C154.733 3.664 153.917 4.576 153.629 5.104V3.856ZM167.937 5.344C167.361 4.32 166.337 3.664 164.865 3.664C162.417 3.664 161.025 5.632 161.025 7.824C161.025 10.016 162.417 11.984 164.865 11.984C166.337 11.984 167.329 11.312 167.889 10.336V11.856C167.889 13.376 166.913 14.48 165.249 14.48C163.921 14.48 162.993 13.856 162.673 12.912H161.505C161.777 14.144 162.913 15.504 165.217 15.504C167.777 15.504 169.025 13.792 169.025 11.6V3.856H167.937V5.344ZM167.937 7.824C167.937 9.584 166.865 10.976 165.073 10.976C163.297 10.976 162.177 9.584 162.177 7.824C162.177 6.064 163.297 4.688 165.073 4.688C166.865 4.688 167.937 6.064 167.937 7.824ZM178.568 8.256C178.568 8.256 178.584 8 178.584 7.824C178.584 5.52 177.096 3.664 174.664 3.664C172.216 3.664 170.664 5.664 170.664 7.92C170.664 10.208 172.104 12.192 174.68 12.192C176.616 12.192 177.96 11.008 178.44 9.456H177.256C176.904 10.448 175.944 11.168 174.696 11.168C172.984 11.168 171.912 9.904 171.8 8.256H178.568ZM174.664 4.688C176.264 4.688 177.304 5.76 177.448 7.328H171.832C172.024 5.824 173.08 4.688 174.664 4.688ZM187.507 12.192C190.083 12.192 191.667 10.176 191.667 7.936C191.667 5.696 190.083 3.664 187.507 3.664C184.947 3.664 183.363 5.696 183.363 7.936C183.363 10.176 184.947 12.192 187.507 12.192ZM184.515 7.936C184.515 6.096 185.699 4.688 187.507 4.688C189.331 4.688 190.515 6.096 190.515 7.936C190.515 9.76 189.331 11.168 187.507 11.168C185.699 11.168 184.515 9.76 184.515 7.936ZM193.743 3.856H192.159V4.816H193.743V12H194.879V4.816H196.719V3.856H194.879V2.464C194.879 1.424 195.375 1.04 196.255 1.04C196.543 1.04 196.703 1.072 196.703 1.072V0.0319996C196.703 0.0319996 196.495 -9.53674e-07 196.159 -9.53674e-07C194.735 -9.53674e-07 193.743 0.799999 193.743 2.512V3.856ZM202.695 12V-9.53674e-07H201.559V12H202.695ZM208.322 12.192C210.626 12.192 211.698 10.72 211.698 8.912V3.856H210.562V8.832C210.562 10.304 209.778 11.2 208.322 11.2C206.866 11.2 206.082 10.304 206.082 8.832V3.856H204.946V8.912C204.946 10.72 206.018 12.192 208.322 12.192ZM220.747 3.856H219.355L216.859 7.008L214.347 3.856H212.939L216.171 7.888L212.859 12H214.251L216.843 8.736L219.435 12H220.859L217.515 7.872L220.747 3.856ZM225.397 12.192C227.701 12.192 228.773 10.72 228.773 8.912V3.856H227.637V8.832C227.637 10.304 226.853 11.2 225.397 11.2C223.941 11.2 223.157 10.304 223.157 8.832V3.856H222.021V8.912C222.021 10.72 223.093 12.192 225.397 12.192ZM234.973 3.792C234.973 3.792 234.781 3.776 234.701 3.776C233.197 3.776 232.397 4.56 232.093 5.12V3.856H231.005V12H232.141V7.376C232.141 5.68 233.181 4.848 234.573 4.848C234.781 4.848 234.973 4.864 234.973 4.864V3.792ZM237.024 15.328H238.176L243.008 3.856H241.808L239.008 10.688L236.24 3.856H235.008L238.416 12L237.024 15.328ZM250.739 10.688L247.971 3.856H246.739L250.147 12H251.299L254.739 3.856H253.555L250.739 10.688ZM262.856 8.256C262.856 8.256 262.872 8 262.872 7.824C262.872 5.52 261.384 3.664 258.952 3.664C256.504 3.664 254.952 5.664 254.952 7.92C254.952 10.208 256.392 12.192 258.968 12.192C260.904 12.192 262.248 11.008 262.728 9.456H261.544C261.192 10.448 260.232 11.168 258.984 11.168C257.272 11.168 256.2 9.904 256.088 8.256H262.856ZM258.952 4.688C260.552 4.688 261.592 5.76 261.736 7.328H256.12C256.312 5.824 257.368 4.688 258.952 4.688ZM265.71 -9.53674e-07H264.574V12H265.71V7.184C265.71 5.52 266.782 4.656 268.158 4.656C269.614 4.656 270.302 5.552 270.302 7.024V12H271.438V6.8C271.438 4.992 270.366 3.664 268.35 3.664C266.83 3.664 265.998 4.496 265.71 4.992V-9.53674e-07ZM274.242 1.84C274.706 1.84 275.058 1.52 275.058 1.056C275.058 0.575999 274.706 0.24 274.242 0.24C273.762 0.24 273.426 0.575999 273.426 1.056C273.426 1.52 273.762 1.84 274.242 1.84ZM273.666 12H274.802V3.856H273.666V12ZM276.525 7.936C276.525 10.16 278.061 12.192 280.541 12.192C282.749 12.192 284.029 10.72 284.349 9.104H283.197C282.861 10.368 281.933 11.168 280.541 11.168C278.829 11.168 277.677 9.808 277.677 7.936C277.677 6.048 278.829 4.688 280.541 4.688C281.933 4.688 282.861 5.488 283.197 6.752H284.349C284.029 5.136 282.749 3.664 280.541 3.664C278.061 3.664 276.525 5.696 276.525 7.936ZM287.033 12V-9.53674e-07H285.897V12H287.033ZM296.659 8.256C296.659 8.256 296.675 8 296.675 7.824C296.675 5.52 295.187 3.664 292.755 3.664C290.307 3.664 288.755 5.664 288.755 7.92C288.755 10.208 290.195 12.192 292.771 12.192C294.707 12.192 296.051 11.008 296.531 9.456H295.347C294.995 10.448 294.035 11.168 292.787 11.168C291.075 11.168 290.003 9.904 289.891 8.256H296.659ZM292.755 4.688C294.355 4.688 295.395 5.76 295.539 7.328H289.923C290.115 5.824 291.171 4.688 292.755 4.688ZM300.985 12.192C303.193 12.192 304.233 11.024 304.233 9.792C304.233 6.368 299.193 8.272 299.193 6.016C299.193 5.28 299.817 4.656 301.081 4.656C302.377 4.656 302.985 5.36 303.081 6.24H304.217C304.121 5.136 303.369 3.664 301.113 3.664C299.177 3.664 298.089 4.816 298.089 6.064C298.089 9.408 303.129 7.488 303.129 9.824C303.129 10.64 302.361 11.2 300.985 11.2C299.577 11.2 298.873 10.496 298.793 9.456H297.641C297.737 10.88 298.633 12.192 300.985 12.192ZM310.231 1.84C310.695 1.84 311.047 1.52 311.047 1.056C311.047 0.575999 310.695 0.24 310.231 0.24C309.751 0.24 309.415 0.575999 309.415 1.056C309.415 1.52 309.751 1.84 310.231 1.84ZM309.655 12H310.791V3.856H309.655V12ZM314.21 3.856H313.122V12H314.258V7.152C314.258 5.52 315.33 4.656 316.706 4.656C318.162 4.656 318.85 5.552 318.85 7.024V12H319.986V6.8C319.986 4.992 318.914 3.664 316.898 3.664C315.314 3.664 314.498 4.576 314.21 5.104V3.856ZM329.435 12.192C332.011 12.192 333.595 10.176 333.595 7.936C333.595 5.696 332.011 3.664 329.435 3.664C326.875 3.664 325.291 5.696 325.291 7.936C325.291 10.176 326.875 12.192 329.435 12.192ZM326.443 7.936C326.443 6.096 327.627 4.688 329.435 4.688C331.259 4.688 332.443 6.096 332.443 7.936C332.443 9.76 331.259 11.168 329.435 11.168C327.627 11.168 326.443 9.76 326.443 7.936ZM338.6 12.192C340.904 12.192 341.976 10.72 341.976 8.912V3.856H340.84V8.832C340.84 10.304 340.056 11.2 338.6 11.2C337.144 11.2 336.36 10.304 336.36 8.832V3.856H335.224V8.912C335.224 10.72 336.296 12.192 338.6 12.192ZM348.176 3.792C348.176 3.792 347.984 3.776 347.904 3.776C346.4 3.776 345.6 4.56 345.296 5.12V3.856H344.208V12H345.344V7.376C345.344 5.68 346.384 4.848 347.776 4.848C347.984 4.848 348.176 4.864 348.176 4.864V3.792ZM353.609 1.84C354.073 1.84 354.425 1.52 354.425 1.056C354.425 0.575999 354.073 0.24 353.609 0.24C353.129 0.24 352.793 0.575999 352.793 1.056C352.793 1.52 353.129 1.84 353.609 1.84ZM353.033 12H354.169V3.856H353.033V12ZM357.588 3.856H356.5V12H357.636V7.152C357.636 5.52 358.708 4.656 360.084 4.656C361.54 4.656 362.228 5.552 362.228 7.024V12H363.364V6.8C363.364 4.992 362.292 3.664 360.276 3.664C358.692 3.664 357.876 4.576 357.588 5.104V3.856ZM368.034 10.688L365.266 3.856H364.034L367.442 12H368.594L372.034 3.856H370.85L368.034 10.688ZM380.151 8.256C380.151 8.256 380.167 8 380.167 7.824C380.167 5.52 378.679 3.664 376.247 3.664C373.799 3.664 372.247 5.664 372.247 7.92C372.247 10.208 373.687 12.192 376.263 12.192C378.199 12.192 379.543 11.008 380.023 9.456H378.839C378.487 10.448 377.527 11.168 376.279 11.168C374.567 11.168 373.495 9.904 373.383 8.256H380.151ZM376.247 4.688C377.847 4.688 378.887 5.76 379.031 7.328H373.415C373.607 5.824 374.663 4.688 376.247 4.688ZM382.957 3.856H381.869V12H383.005V7.152C383.005 5.52 384.077 4.656 385.453 4.656C386.909 4.656 387.597 5.552 387.597 7.024V12H388.733V6.8C388.733 4.992 387.661 3.664 385.645 3.664C384.061 3.664 383.245 4.576 382.957 5.104V3.856ZM392.433 4.816H394.097V3.856H392.433V1.536H391.297V3.856H389.745V4.816H391.297V12H392.433V4.816ZM398.511 12.192C401.087 12.192 402.671 10.176 402.671 7.936C402.671 5.696 401.087 3.664 398.511 3.664C395.951 3.664 394.367 5.696 394.367 7.936C394.367 10.176 395.951 12.192 398.511 12.192ZM395.519 7.936C395.519 6.096 396.703 4.688 398.511 4.688C400.335 4.688 401.519 6.096 401.519 7.936C401.519 9.76 400.335 11.168 398.511 11.168C396.703 11.168 395.519 9.76 395.519 7.936ZM408.347 3.792C408.347 3.792 408.155 3.776 408.075 3.776C406.571 3.776 405.771 4.56 405.467 5.12V3.856H404.379V12H405.515V7.376C405.515 5.68 406.555 4.848 407.947 4.848C408.155 4.848 408.347 4.864 408.347 4.864V3.792ZM410.398 15.328H411.55L416.382 3.856H415.182L412.382 10.688L409.614 3.856H408.382L411.79 12L410.398 15.328ZM416.493 12.128C416.989 12.128 417.373 11.776 417.373 11.264C417.373 10.768 416.989 10.4 416.493 10.4C415.981 10.4 415.613 10.768 415.613 11.264C415.613 11.776 415.981 12.128 416.493 12.128ZM5.056 38C9.072 38 11.376 35.76 11.376 32.32C11.376 28.88 9.072 26.64 5.056 26.64H1.616V38H5.056ZM10.16 32.32C10.16 35.136 8.432 36.88 4.992 36.88H2.784V27.76H4.992C8.432 27.76 10.16 29.504 10.16 32.32ZM17.0925 29.792C17.0925 29.792 16.9005 29.776 16.8205 29.776C15.3165 29.776 14.5165 30.56 14.2125 31.12V29.856H13.1245V38H14.2605V33.376C14.2605 31.68 15.3005 30.848 16.6925 30.848C16.9005 30.848 17.0925 30.864 17.0925 30.864V29.792ZM18.8393 27.84C19.3033 27.84 19.6553 27.52 19.6553 27.056C19.6553 26.576 19.3033 26.24 18.8393 26.24C18.3593 26.24 18.0233 26.576 18.0233 27.056C18.0233 27.52 18.3593 27.84 18.8393 27.84ZM18.2633 38H19.3993V29.856H18.2633V38ZM24.5942 36.688L21.8262 29.856H20.5942L24.0022 38H25.1542L28.5942 29.856H27.4102L24.5942 36.688ZM36.7119 34.256C36.7119 34.256 36.7279 34 36.7279 33.824C36.7279 31.52 35.2399 29.664 32.8079 29.664C30.3599 29.664 28.8079 31.664 28.8079 33.92C28.8079 36.208 30.2479 38.192 32.8239 38.192C34.7599 38.192 36.1039 37.008 36.5839 35.456H35.3999C35.0479 36.448 34.0879 37.168 32.8399 37.168C31.1279 37.168 30.0559 35.904 29.9439 34.256H36.7119ZM32.8079 30.688C34.4079 30.688 35.4479 31.76 35.5919 33.328H29.9759C30.1679 31.824 31.2239 30.688 32.8079 30.688ZM42.6913 27.84C43.1553 27.84 43.5073 27.52 43.5073 27.056C43.5073 26.576 43.1553 26.24 42.6913 26.24C42.2113 26.24 41.8753 26.576 41.8753 27.056C41.8753 27.52 42.2113 27.84 42.6913 27.84ZM42.1153 38H43.2513V29.856H42.1153V38ZM47.0543 30.816H48.7183V29.856H47.0543V27.536H45.9183V29.856H44.3663V30.816H45.9183V38H47.0543V30.816ZM53.8216 29.856H52.2376V30.816H53.8216V38H54.9576V30.816H56.7976V29.856H54.9576V28.464C54.9576 27.424 55.4536 27.04 56.3336 27.04C56.6216 27.04 56.7816 27.072 56.7816 27.072V26.032C56.7816 26.032 56.5736 26 56.2376 26C54.8136 26 53.8216 26.8 53.8216 28.512V29.856ZM61.3159 38.192C63.8919 38.192 65.4759 36.176 65.4759 33.936C65.4759 31.696 63.8919 29.664 61.3159 29.664C58.7559 29.664 57.1719 31.696 57.1719 33.936C57.1719 36.176 58.7559 38.192 61.3159 38.192ZM58.3239 33.936C58.3239 32.096 59.5079 30.688 61.3159 30.688C63.1399 30.688 64.3239 32.096 64.3239 33.936C64.3239 35.76 63.1399 37.168 61.3159 37.168C59.5079 37.168 58.3239 35.76 58.3239 33.936ZM71.1523 29.792C71.1523 29.792 70.9603 29.776 70.8803 29.776C69.3763 29.776 68.5763 30.56 68.2723 31.12V29.856H67.1843V38H68.3203V33.376C68.3203 31.68 69.3603 30.848 70.7523 30.848C70.9603 30.848 71.1523 30.864 71.1523 30.864V29.792ZM83.4167 29.856H82.3287V31.36C81.7687 30.32 80.7287 29.664 79.2407 29.664C76.7447 29.664 75.4007 31.696 75.4007 33.936C75.4007 36.176 76.7447 38.192 79.2407 38.192C80.7287 38.192 81.7687 37.536 82.3287 36.496V38H83.4167V29.856ZM76.5527 33.936C76.5527 32.16 77.6407 30.688 79.4647 30.688C81.2887 30.688 82.3287 32.16 82.3287 33.936C82.3287 35.712 81.2887 37.168 79.4647 37.168C77.6407 37.168 76.5527 35.712 76.5527 33.936ZM96.0829 33.248C96.0829 31.52 97.1389 30.656 98.4189 30.656C99.8429 30.656 100.451 31.648 100.451 33.024V38H101.587V32.8C101.587 31.072 100.595 29.664 98.6109 29.664C97.1549 29.664 96.1949 30.448 95.7469 31.232C95.3149 30.288 94.4189 29.664 93.0909 29.664C91.5069 29.664 90.8029 30.576 90.5149 31.104V29.856H89.4269V38H90.5629V33.152C90.5629 31.584 91.5709 30.656 92.8989 30.656C94.3229 30.656 94.9469 31.6 94.9469 33.024V38H96.0829V33.248ZM107.367 38.192C109.943 38.192 111.527 36.176 111.527 33.936C111.527 31.696 109.943 29.664 107.367 29.664C104.807 29.664 103.223 31.696 103.223 33.936C103.223 36.176 104.807 38.192 107.367 38.192ZM104.375 33.936C104.375 32.096 105.559 30.688 107.367 30.688C109.191 30.688 110.375 32.096 110.375 33.936C110.375 35.76 109.191 37.168 107.367 37.168C105.559 37.168 104.375 35.76 104.375 33.936ZM114.324 29.856H113.236V38H114.372V33.152C114.372 31.52 115.444 30.656 116.82 30.656C118.276 30.656 118.964 31.552 118.964 33.024V38H120.1V32.8C120.1 30.992 119.028 29.664 117.012 29.664C115.428 29.664 114.612 30.576 114.324 31.104V29.856ZM123.8 30.816H125.464V29.856H123.8V27.536H122.664V29.856H121.112V30.816H122.664V38H123.8V30.816ZM127.649 26H126.513V38H127.649V33.184C127.649 31.52 128.721 30.656 130.097 30.656C131.553 30.656 132.241 31.552 132.241 33.024V38H133.377V32.8C133.377 30.992 132.305 29.664 130.289 29.664C128.769 29.664 127.937 30.496 127.649 30.992V26ZM135.477 36.496L134.645 39.744H135.653L136.821 36.496H135.477ZM143.745 30.816H145.409V29.856H143.745V27.536H142.609V29.856H141.057V30.816H142.609V38H143.745V30.816ZM150.427 29.792C150.427 29.792 150.235 29.776 150.155 29.776C148.651 29.776 147.851 30.56 147.547 31.12V29.856H146.459V38H147.595V33.376C147.595 31.68 148.635 30.848 150.027 30.848C150.235 30.848 150.427 30.864 150.427 30.864V29.792ZM158.646 29.856H157.558V31.36C156.998 30.32 155.958 29.664 154.47 29.664C151.974 29.664 150.63 31.696 150.63 33.936C150.63 36.176 151.974 38.192 154.47 38.192C155.958 38.192 156.998 37.536 157.558 36.496V38H158.646V29.856ZM151.782 33.936C151.782 32.16 152.87 30.688 154.694 30.688C156.518 30.688 157.558 32.16 157.558 33.936C157.558 35.712 156.518 37.168 154.694 37.168C152.87 37.168 151.782 35.712 151.782 33.936ZM167.243 31.328C166.699 30.352 165.691 29.664 164.203 29.664C161.707 29.664 160.363 31.68 160.363 33.936C160.363 36.176 161.707 38.192 164.203 38.192C165.691 38.192 166.731 37.536 167.291 36.496V38H168.379V26H167.243V31.328ZM167.291 33.936C167.291 35.712 166.251 37.168 164.427 37.168C162.603 37.168 161.515 35.712 161.515 33.936C161.515 32.128 162.603 30.688 164.427 30.688C166.251 30.688 167.291 32.128 167.291 33.936ZM178 34.256C178 34.256 178.016 34 178.016 33.824C178.016 31.52 176.528 29.664 174.096 29.664C171.648 29.664 170.096 31.664 170.096 33.92C170.096 36.208 171.536 38.192 174.112 38.192C176.048 38.192 177.392 37.008 177.872 35.456H176.688C176.336 36.448 175.376 37.168 174.128 37.168C172.416 37.168 171.344 35.904 171.232 34.256H178ZM174.096 30.688C175.696 30.688 176.736 31.76 176.88 33.328H171.264C171.456 31.824 172.512 30.688 174.096 30.688ZM183.979 27.84C184.443 27.84 184.795 27.52 184.795 27.056C184.795 26.576 184.443 26.24 183.979 26.24C183.499 26.24 183.163 26.576 183.163 27.056C183.163 27.52 183.499 27.84 183.979 27.84ZM183.403 38H184.539V29.856H183.403V38ZM188.342 30.816H190.006V29.856H188.342V27.536H187.206V29.856H185.654V30.816H187.206V38H188.342V30.816ZM196.213 30.816H197.877V29.856H196.213V27.536H195.077V29.856H193.525V30.816H195.077V38H196.213V30.816ZM200.063 26H198.927V38H200.063V33.184C200.063 31.52 201.135 30.656 202.511 30.656C203.967 30.656 204.655 31.552 204.655 33.024V38H205.791V32.8C205.791 30.992 204.719 29.664 202.703 29.664C201.183 29.664 200.351 30.496 200.063 30.992V26ZM215.315 34.256C215.315 34.256 215.331 34 215.331 33.824C215.331 31.52 213.843 29.664 211.411 29.664C208.963 29.664 207.411 31.664 207.411 33.92C207.411 36.208 208.851 38.192 211.427 38.192C213.363 38.192 214.707 37.008 215.187 35.456H214.003C213.651 36.448 212.691 37.168 211.443 37.168C209.731 37.168 208.659 35.904 208.547 34.256H215.315ZM211.411 30.688C213.011 30.688 214.051 31.76 214.195 33.328H208.579C208.771 31.824 209.827 30.688 211.411 30.688ZM221.806 29.856H220.718V38H221.854V33.152C221.854 31.52 222.926 30.656 224.302 30.656C225.758 30.656 226.446 31.552 226.446 33.024V38H227.582V32.8C227.582 30.992 226.51 29.664 224.494 29.664C222.91 29.664 222.094 30.576 221.806 31.104V29.856ZM237.106 34.256C237.106 34.256 237.122 34 237.122 33.824C237.122 31.52 235.634 29.664 233.202 29.664C230.754 29.664 229.202 31.664 229.202 33.92C229.202 36.208 230.642 38.192 233.218 38.192C235.154 38.192 236.498 37.008 236.978 35.456H235.794C235.442 36.448 234.482 37.168 233.234 37.168C231.522 37.168 230.45 35.904 230.338 34.256H237.106ZM233.202 30.688C234.802 30.688 235.842 31.76 235.986 33.328H230.37C230.562 31.824 231.618 30.688 233.202 30.688ZM245.156 29.856H243.764L241.268 33.008L238.756 29.856H237.348L240.58 33.888L237.268 38H238.66L241.252 34.736L243.844 38H245.268L241.924 33.872L245.156 29.856ZM247.982 30.816H249.646V29.856H247.982V27.536H246.846V29.856H245.294V30.816H246.846V38H247.982V30.816ZM254.749 29.856H253.165V30.816H254.749V38H255.885V30.816H257.725V29.856H255.885V28.464C255.885 27.424 256.381 27.04 257.261 27.04C257.549 27.04 257.709 27.072 257.709 27.072V26.032C257.709 26.032 257.501 26 257.165 26C255.741 26 254.749 26.8 254.749 28.512V29.856ZM262.243 38.192C264.819 38.192 266.403 36.176 266.403 33.936C266.403 31.696 264.819 29.664 262.243 29.664C259.683 29.664 258.099 31.696 258.099 33.936C258.099 36.176 259.683 38.192 262.243 38.192ZM259.251 33.936C259.251 32.096 260.435 30.688 262.243 30.688C264.067 30.688 265.251 32.096 265.251 33.936C265.251 35.76 264.067 37.168 262.243 37.168C260.435 37.168 259.251 35.76 259.251 33.936ZM272.08 29.792C272.08 29.792 271.888 29.776 271.808 29.776C270.304 29.776 269.504 30.56 269.2 31.12V29.856H268.112V38H269.248V33.376C269.248 31.68 270.288 30.848 271.68 30.848C271.888 30.848 272.08 30.864 272.08 30.864V29.792ZM279.544 38.192C281.752 38.192 282.792 37.024 282.792 35.792C282.792 32.368 277.752 34.272 277.752 32.016C277.752 31.28 278.376 30.656 279.64 30.656C280.936 30.656 281.544 31.36 281.64 32.24H282.776C282.68 31.136 281.928 29.664 279.672 29.664C277.736 29.664 276.648 30.816 276.648 32.064C276.648 35.408 281.688 33.488 281.688 35.824C281.688 36.64 280.92 37.2 279.544 37.2C278.136 37.2 277.432 36.496 277.352 35.456H276.2C276.296 36.88 277.192 38.192 279.544 38.192ZM288.064 38.192C290.64 38.192 292.224 36.176 292.224 33.936C292.224 31.696 290.64 29.664 288.064 29.664C285.504 29.664 283.92 31.696 283.92 33.936C283.92 36.176 285.504 38.192 288.064 38.192ZM285.072 33.936C285.072 32.096 286.256 30.688 288.064 30.688C289.888 30.688 291.072 32.096 291.072 33.936C291.072 35.76 289.888 37.168 288.064 37.168C286.256 37.168 285.072 35.76 285.072 33.936ZM300.588 33.248C300.588 31.52 301.644 30.656 302.924 30.656C304.348 30.656 304.956 31.648 304.956 33.024V38H306.092V32.8C306.092 31.072 305.1 29.664 303.116 29.664C301.66 29.664 300.7 30.448 300.252 31.232C299.82 30.288 298.924 29.664 297.596 29.664C296.012 29.664 295.308 30.576 295.02 31.104V29.856H293.932V38H295.068V33.152C295.068 31.584 296.076 30.656 297.404 30.656C298.828 30.656 299.452 31.6 299.452 33.024V38H300.588V33.248ZM315.633 34.256C315.633 34.256 315.649 34 315.649 33.824C315.649 31.52 314.161 29.664 311.729 29.664C309.281 29.664 307.729 31.664 307.729 33.92C307.729 36.208 309.169 38.192 311.745 38.192C313.681 38.192 315.025 37.008 315.505 35.456H314.321C313.969 36.448 313.009 37.168 311.761 37.168C310.049 37.168 308.977 35.904 308.865 34.256H315.633ZM311.729 30.688C313.329 30.688 314.369 31.76 314.513 33.328H308.897C309.089 31.824 310.145 30.688 311.729 30.688ZM318.823 30.816H320.487V29.856H318.823V27.536H317.687V29.856H316.135V30.816H317.687V38H318.823V30.816ZM322.672 26H321.536V38H322.672V33.184C322.672 31.52 323.744 30.656 325.12 30.656C326.576 30.656 327.264 31.552 327.264 33.024V38H328.4V32.8C328.4 30.992 327.328 29.664 325.312 29.664C323.792 29.664 322.96 30.496 322.672 30.992V26ZM331.204 27.84C331.668 27.84 332.02 27.52 332.02 27.056C332.02 26.576 331.668 26.24 331.204 26.24C330.724 26.24 330.388 26.576 330.388 27.056C330.388 27.52 330.724 27.84 331.204 27.84ZM330.628 38H331.764V29.856H330.628V38ZM335.183 29.856H334.095V38H335.231V33.152C335.231 31.52 336.303 30.656 337.679 30.656C339.135 30.656 339.823 31.552 339.823 33.024V38H340.959V32.8C340.959 30.992 339.887 29.664 337.871 29.664C336.287 29.664 335.471 30.576 335.183 31.104V29.856ZM349.491 31.344C348.915 30.32 347.891 29.664 346.419 29.664C343.971 29.664 342.579 31.632 342.579 33.824C342.579 36.016 343.971 37.984 346.419 37.984C347.891 37.984 348.883 37.312 349.443 36.336V37.856C349.443 39.376 348.467 40.48 346.803 40.48C345.475 40.48 344.547 39.856 344.227 38.912H343.059C343.331 40.144 344.467 41.504 346.771 41.504C349.331 41.504 350.579 39.792 350.579 37.6V29.856H349.491V31.344ZM349.491 33.824C349.491 35.584 348.419 36.976 346.627 36.976C344.851 36.976 343.731 35.584 343.731 33.824C343.731 32.064 344.851 30.688 346.627 30.688C348.419 30.688 349.491 32.064 349.491 33.824ZM363.807 34.256C363.807 34.256 363.823 34 363.823 33.824C363.823 31.52 362.335 29.664 359.903 29.664C357.455 29.664 355.903 31.664 355.903 33.92C355.903 36.208 357.343 38.192 359.919 38.192C361.855 38.192 363.199 37.008 363.679 35.456H362.495C362.143 36.448 361.183 37.168 359.935 37.168C358.223 37.168 357.151 35.904 357.039 34.256H363.807ZM359.903 30.688C361.503 30.688 362.543 31.76 362.687 33.328H357.071C357.263 31.824 358.319 30.688 359.903 30.688ZM366.661 38V26H365.525V38H366.661ZM371.6 38.192C373.808 38.192 374.848 37.024 374.848 35.792C374.848 32.368 369.808 34.272 369.808 32.016C369.808 31.28 370.432 30.656 371.696 30.656C372.992 30.656 373.6 31.36 373.696 32.24H374.832C374.736 31.136 373.984 29.664 371.728 29.664C369.792 29.664 368.704 30.816 368.704 32.064C368.704 35.408 373.744 33.488 373.744 35.824C373.744 36.64 372.976 37.2 371.6 37.2C370.192 37.2 369.488 36.496 369.408 35.456H368.256C368.352 36.88 369.248 38.192 371.6 38.192ZM383.88 34.256C383.88 34.256 383.896 34 383.896 33.824C383.896 31.52 382.408 29.664 379.976 29.664C377.528 29.664 375.976 31.664 375.976 33.92C375.976 36.208 377.416 38.192 379.992 38.192C381.928 38.192 383.272 37.008 383.752 35.456H382.568C382.216 36.448 381.256 37.168 380.008 37.168C378.296 37.168 377.224 35.904 377.112 34.256H383.88ZM379.976 30.688C381.576 30.688 382.616 31.76 382.76 33.328H377.144C377.336 31.824 378.392 30.688 379.976 30.688ZM390.164 41.328H391.316L396.148 29.856H394.948L392.148 36.688L389.38 29.856H388.148L391.556 38L390.164 41.328ZM400.583 38.192C403.159 38.192 404.743 36.176 404.743 33.936C404.743 31.696 403.159 29.664 400.583 29.664C398.023 29.664 396.439 31.696 396.439 33.936C396.439 36.176 398.023 38.192 400.583 38.192ZM397.591 33.936C397.591 32.096 398.775 30.688 400.583 30.688C402.407 30.688 403.591 32.096 403.591 33.936C403.591 35.76 402.407 37.168 400.583 37.168C398.775 37.168 397.591 35.76 397.591 33.936ZM409.748 38.192C412.052 38.192 413.124 36.72 413.124 34.912V29.856H411.988V34.832C411.988 36.304 411.204 37.2 409.748 37.2C408.292 37.2 407.508 36.304 407.508 34.832V29.856H406.372V34.912C406.372 36.72 407.444 38.192 409.748 38.192ZM420.178 26H419.042V38H420.178V33.184C420.178 31.52 421.25 30.656 422.626 30.656C424.082 30.656 424.77 31.552 424.77 33.024V38H425.906V32.8C425.906 30.992 424.834 29.664 422.818 29.664C421.298 29.664 420.466 30.496 420.178 30.992V26ZM435.542 29.856H434.454V31.36C433.894 30.32 432.854 29.664 431.366 29.664C428.87 29.664 427.526 31.696 427.526 33.936C427.526 36.176 428.87 38.192 431.366 38.192C432.854 38.192 433.894 37.536 434.454 36.496V38H435.542V29.856ZM428.678 33.936C428.678 32.16 429.766 30.688 431.59 30.688C433.414 30.688 434.454 32.16 434.454 33.936C434.454 35.712 433.414 37.168 431.59 37.168C429.766 37.168 428.678 35.712 428.678 33.936ZM440.73 36.688L437.962 29.856H436.73L440.138 38H441.29L444.73 29.856H443.546L440.73 36.688ZM452.848 34.256C452.848 34.256 452.864 34 452.864 33.824C452.864 31.52 451.376 29.664 448.944 29.664C446.496 29.664 444.944 31.664 444.944 33.92C444.944 36.208 446.384 38.192 448.96 38.192C450.896 38.192 452.24 37.008 452.72 35.456H451.536C451.184 36.448 450.224 37.168 448.976 37.168C447.264 37.168 446.192 35.904 446.08 34.256H452.848ZM448.944 30.688C450.544 30.688 451.584 31.76 451.728 33.328H446.112C446.304 31.824 447.36 30.688 448.944 30.688ZM8.8 55.856H7.712V57.36C7.152 56.32 6.112 55.664 4.624 55.664C2.128 55.664 0.784 57.696 0.784 59.936C0.784 62.176 2.128 64.192 4.624 64.192C6.112 64.192 7.152 63.536 7.712 62.496V64H8.8V55.856ZM1.936 59.936C1.936 58.16 3.024 56.688 4.848 56.688C6.672 56.688 7.712 58.16 7.712 59.936C7.712 61.712 6.672 63.168 4.848 63.168C3.024 63.168 1.936 61.712 1.936 59.936ZM12.2605 64V52H11.1245V64H12.2605ZM22.0154 64H23.1994L26.0474 55.856H24.8474L22.6234 62.656L20.4154 55.856H19.2314L16.9914 62.656L14.7994 55.856H13.5834L16.3994 64H17.5834L19.8074 57.296H19.8234L22.0154 64ZM34.5132 55.856H33.4252V57.36C32.8652 56.32 31.8252 55.664 30.3372 55.664C27.8412 55.664 26.4972 57.696 26.4972 59.936C26.4972 62.176 27.8412 64.192 30.3372 64.192C31.8252 64.192 32.8652 63.536 33.4252 62.496V64H34.5132V55.856ZM27.6492 59.936C27.6492 58.16 28.7372 56.688 30.5612 56.688C32.3852 56.688 33.4252 58.16 33.4252 59.936C33.4252 61.712 32.3852 63.168 30.5612 63.168C28.7372 63.168 27.6492 61.712 27.6492 59.936ZM37.7178 67.328H38.8698L43.7018 55.856H42.5018L39.7018 62.688L36.9338 55.856H35.7018L39.1098 64L37.7178 67.328ZM47.4127 64.192C49.6207 64.192 50.6607 63.024 50.6607 61.792C50.6607 58.368 45.6207 60.272 45.6207 58.016C45.6207 57.28 46.2447 56.656 47.5087 56.656C48.8047 56.656 49.4127 57.36 49.5087 58.24H50.6447C50.5487 57.136 49.7967 55.664 47.5407 55.664C45.6047 55.664 44.5167 56.816 44.5167 58.064C44.5167 61.408 49.5567 59.488 49.5567 61.824C49.5567 62.64 48.7887 63.2 47.4127 63.2C46.0047 63.2 45.3007 62.496 45.2207 61.456H44.0687C44.1647 62.88 45.0607 64.192 47.4127 64.192ZM63.5063 64H64.6903L67.5383 55.856H66.3383L64.1143 62.656L61.9063 55.856H60.7223L58.4823 62.656L56.2903 55.856H55.0743L57.8903 64H59.0743L61.2983 57.296H61.3143L63.5063 64ZM76.004 55.856H74.916V57.36C74.356 56.32 73.316 55.664 71.828 55.664C69.332 55.664 67.988 57.696 67.988 59.936C67.988 62.176 69.332 64.192 71.828 64.192C73.316 64.192 74.356 63.536 74.916 62.496V64H76.004V55.856ZM69.14 59.936C69.14 58.16 70.228 56.688 72.052 56.688C73.876 56.688 74.916 58.16 74.916 59.936C74.916 61.712 73.876 63.168 72.052 63.168C70.228 63.168 69.14 61.712 69.14 59.936ZM79.4166 55.856H78.3286V64H79.4646V59.152C79.4646 57.52 80.5366 56.656 81.9126 56.656C83.3686 56.656 84.0566 57.552 84.0566 59.024V64H85.1926V58.8C85.1926 56.992 84.1206 55.664 82.1046 55.664C80.5206 55.664 79.7046 56.576 79.4166 57.104V55.856ZM88.8925 56.816H90.5565V55.856H88.8925V53.536H87.7565V55.856H86.2045V56.816H87.7565V64H88.8925V56.816ZM98.7303 60.256C98.7303 60.256 98.7463 60 98.7463 59.824C98.7463 57.52 97.2583 55.664 94.8263 55.664C92.3783 55.664 90.8263 57.664 90.8263 59.92C90.8263 62.208 92.2663 64.192 94.8423 64.192C96.7783 64.192 98.1223 63.008 98.6023 61.456H97.4183C97.0663 62.448 96.1063 63.168 94.8583 63.168C93.1463 63.168 92.0743 61.904 91.9623 60.256H98.7303ZM94.8263 56.688C96.4263 56.688 97.4663 57.76 97.6103 59.328H91.9943C92.1863 57.824 93.2423 56.688 94.8263 56.688ZM106.72 57.328C106.176 56.352 105.168 55.664 103.68 55.664C101.184 55.664 99.8401 57.68 99.8401 59.936C99.8401 62.176 101.184 64.192 103.68 64.192C105.168 64.192 106.208 63.536 106.768 62.496V64H107.856V52H106.72V57.328ZM106.768 59.936C106.768 61.712 105.728 63.168 103.904 63.168C102.08 63.168 100.992 61.712 100.992 59.936C100.992 58.128 102.08 56.688 103.904 56.688C105.728 56.688 106.768 58.128 106.768 59.936ZM115.338 56.816H117.002V55.856H115.338V53.536H114.202V55.856H112.65V56.816H114.202V64H115.338V56.816ZM121.416 64.192C123.992 64.192 125.576 62.176 125.576 59.936C125.576 57.696 123.992 55.664 121.416 55.664C118.856 55.664 117.272 57.696 117.272 59.936C117.272 62.176 118.856 64.192 121.416 64.192ZM118.424 59.936C118.424 58.096 119.608 56.688 121.416 56.688C123.24 56.688 124.424 58.096 124.424 59.936C124.424 61.76 123.24 63.168 121.416 63.168C119.608 63.168 118.424 61.76 118.424 59.936ZM134.506 64.192C137.082 64.192 138.666 62.176 138.666 59.936C138.666 57.696 137.082 55.664 134.506 55.664C131.946 55.664 130.362 57.696 130.362 59.936C130.362 62.176 131.946 64.192 134.506 64.192ZM131.514 59.936C131.514 58.096 132.698 56.688 134.506 56.688C136.33 56.688 137.514 58.096 137.514 59.936C137.514 61.76 136.33 63.168 134.506 63.168C132.698 63.168 131.514 61.76 131.514 59.936ZM147.549 64H148.733L151.581 55.856H150.381L148.157 62.656L145.949 55.856H144.765L142.525 62.656L140.333 55.856H139.117L141.933 64H143.117L145.341 57.296H145.357L147.549 64ZM153.976 55.856H152.888V64H154.024V59.152C154.024 57.52 155.096 56.656 156.472 56.656C157.928 56.656 158.616 57.552 158.616 59.024V64H159.752V58.8C159.752 56.992 158.68 55.664 156.664 55.664C155.08 55.664 154.264 56.576 153.976 57.104V55.856ZM162.316 64.128C162.812 64.128 163.196 63.776 163.196 63.264C163.196 62.768 162.812 62.4 162.316 62.4C161.804 62.4 161.436 62.768 161.436 63.264C161.436 63.776 161.804 64.128 162.316 64.128Z" fill="black"/>
</svg>
