<svg width="535" height="167" viewBox="0 0 535 167" fill="none" xmlns="http://www.w3.org/2000/svg">
<path d="M0.47 17.46C0.47 12.0767 1.76833 7.96 4.365 5.10999C6.96167 2.19666 10.7933 0.74 15.86 0.74C20.9267 0.74 24.7583 2.19666 27.355 5.10999C29.9517 7.96 31.25 12.0767 31.25 17.46V19.55H21.37V16.795C21.37 14.515 20.9267 12.8683 20.04 11.855C19.1533 10.7783 17.855 10.24 16.145 10.24C14.435 10.24 13.1367 10.7783 12.25 11.855C11.3633 12.8683 10.92 14.515 10.92 16.795C10.92 19.5817 11.6483 22.02 13.105 24.11C14.625 26.2 16.8733 28.575 19.85 31.235C22.32 33.515 24.315 35.5417 25.835 37.315C27.355 39.025 28.6533 41.115 29.73 43.585C30.8067 46.055 31.345 48.8733 31.345 52.04C31.345 57.4233 30.015 61.5717 27.355 64.485C24.695 67.335 20.8317 68.76 15.765 68.76C10.6983 68.76 6.835 67.335 4.175 64.485C1.515 61.5717 0.185 57.4233 0.185 52.04V47.955H10.065V52.705C10.065 57.0117 11.87 59.165 15.48 59.165C19.09 59.165 20.895 57.0117 20.895 52.705C20.895 49.9183 20.135 47.48 18.615 45.39C17.1583 43.3 14.9417 40.925 11.965 38.265C9.495 35.985 7.5 33.99 5.98 32.28C4.46 30.5067 3.16167 28.385 2.085 25.915C1.00833 23.445 0.47 20.6267 0.47 17.46ZM61.669 29.525V39.025H47.324V58.5H65.374V68H36.874V1.5H65.374V11H47.324V29.525H61.669ZM81.8413 1.5V58.5H99.0363V68H71.3913V1.5H81.8413ZM127.92 29.525V39.025H113.575V58.5H131.625V68H103.125V1.5H131.625V11H113.575V29.525H127.92ZM167.948 52.04C167.948 57.4233 166.618 61.5717 163.958 64.485C161.298 67.335 157.435 68.76 152.368 68.76C147.301 68.76 143.438 67.335 140.778 64.485C138.118 61.5717 136.788 57.4233 136.788 52.04V17.46C136.788 12.0767 138.118 7.96 140.778 5.10999C143.438 2.19666 147.301 0.74 152.368 0.74C157.435 0.74 161.298 2.19666 163.958 5.10999C166.618 7.96 167.948 12.0767 167.948 17.46V23.92H158.068V16.795C158.068 12.425 156.263 10.24 152.653 10.24C149.043 10.24 147.238 12.425 147.238 16.795V52.705C147.238 57.0117 149.043 59.165 152.653 59.165C156.263 59.165 158.068 57.0117 158.068 52.705V43.205H167.948V52.04ZM203.09 1.5V11H192.165V68H181.715V11H170.79V1.5H203.09ZM244.802 68L242.997 55.935H230.172L228.367 68H218.772L229.412 1.5H244.707L255.347 68H244.802ZM241.572 46.91L236.537 13.28L231.502 46.91H241.572ZM297.798 1.5H307.393L297.133 68H281.553L271.293 1.5H281.838L289.818 55.745L297.798 1.5ZM336.607 29.525V39.025H322.262V58.5H340.312V68H311.812V1.5H340.312V11H322.262V29.525H336.607ZM346.33 68V1.5H356.78V30H368.655V1.5H379.295V68H368.655V39.5H356.78V68H346.33ZM396.863 1.5V68H386.413V1.5H396.863ZM434.351 52.04C434.351 57.4233 433.021 61.5717 430.361 64.485C427.701 67.335 423.838 68.76 418.771 68.76C413.704 68.76 409.841 67.335 407.181 64.485C404.521 61.5717 403.191 57.4233 403.191 52.04V17.46C403.191 12.0767 404.521 7.96 407.181 5.10999C409.841 2.19666 413.704 0.74 418.771 0.74C423.838 0.74 427.701 2.19666 430.361 5.10999C433.021 7.96 434.351 12.0767 434.351 17.46V23.92H424.471V16.795C424.471 12.425 422.666 10.24 419.056 10.24C415.446 10.24 413.641 12.425 413.641 16.795V52.705C413.641 57.0117 415.446 59.165 419.056 59.165C422.666 59.165 424.471 57.0117 424.471 52.705V43.205H434.351V52.04ZM450.683 1.5V58.5H467.878V68H440.233V1.5H450.683ZM496.762 29.525V39.025H482.417V58.5H500.467V68H471.967V1.5H500.467V11H482.417V29.525H496.762ZM25.74 129.045V138.545H12.25V166H1.8V99.5H29.445V109H12.25V129.045H25.74ZM55.848 166C55.468 164.923 55.2147 163.91 55.088 162.96C54.9613 162.01 54.898 160.3 54.898 157.83V147.38C54.898 144.34 54.3597 142.187 53.283 140.92C52.2063 139.59 50.4647 138.925 48.058 138.925H44.448V166H33.998V99.5H49.768C55.1513 99.5 59.078 100.767 61.548 103.3C64.018 105.77 65.253 109.602 65.253 114.795V120.02C65.253 126.86 62.973 131.357 58.413 133.51C60.883 134.523 62.6563 136.233 63.733 138.64C64.8097 140.983 65.348 143.992 65.348 147.665V157.925C65.348 159.825 65.4113 161.377 65.538 162.58C65.6647 163.72 65.9813 164.86 66.488 166H55.848ZM44.448 129.425H48.533C50.623 129.425 52.1747 128.887 53.188 127.81C54.2647 126.733 54.803 124.928 54.803 122.395V115.84C54.803 113.433 54.3597 111.692 53.473 110.615C52.6497 109.538 51.3197 109 49.483 109H44.448V129.425ZM70.9074 115.46C70.9074 110.14 72.2691 106.023 74.9924 103.11C77.7158 100.197 81.6424 98.74 86.7724 98.74C91.9024 98.74 95.8291 100.197 98.5524 103.11C101.276 106.023 102.637 110.14 102.637 115.46V150.04C102.637 155.36 101.276 159.477 98.5524 162.39C95.8291 165.303 91.9024 166.76 86.7724 166.76C81.6424 166.76 77.7158 165.303 74.9924 162.39C72.2691 159.477 70.9074 155.36 70.9074 150.04V115.46ZM81.3574 150.705C81.3574 155.075 83.1624 157.26 86.7724 157.26C90.3824 157.26 92.1874 155.075 92.1874 150.705V114.795C92.1874 110.425 90.3824 108.24 86.7724 108.24C83.1624 108.24 81.3574 110.425 81.3574 114.795V150.705ZM138.23 99.5H152.765V166H142.885V118.31L135.665 166H125.785L117.995 118.975V166H108.875V99.5H123.41L131.105 146.715L138.23 99.5ZM170.781 99.5H181.706L189.686 129.805L197.666 99.5H207.641L194.436 143.96V166H183.986V143.96L170.781 99.5ZM209.162 115.46C209.162 110.14 210.524 106.023 213.247 103.11C215.971 100.197 219.897 98.74 225.027 98.74C230.157 98.74 234.084 100.197 236.807 103.11C239.531 106.023 240.892 110.14 240.892 115.46V150.04C240.892 155.36 239.531 159.477 236.807 162.39C234.084 165.303 230.157 166.76 225.027 166.76C219.897 166.76 215.971 165.303 213.247 162.39C210.524 159.477 209.162 155.36 209.162 150.04V115.46ZM219.612 150.705C219.612 155.075 221.417 157.26 225.027 157.26C228.637 157.26 230.442 155.075 230.442 150.705V114.795C230.442 110.425 228.637 108.24 225.027 108.24C221.417 108.24 219.612 110.425 219.612 114.795V150.705ZM257.2 150.8C257.2 155.107 259.005 157.26 262.615 157.26C266.225 157.26 268.03 155.107 268.03 150.8V99.5H277.91V150.135C277.91 155.518 276.58 159.667 273.92 162.58C271.26 165.43 267.397 166.855 262.33 166.855C257.264 166.855 253.4 165.43 250.74 162.58C248.08 159.667 246.75 155.518 246.75 150.135V99.5H257.2V150.8ZM306.468 166C306.088 164.923 305.835 163.91 305.708 162.96C305.582 162.01 305.518 160.3 305.518 157.83V147.38C305.518 144.34 304.98 142.187 303.903 140.92C302.827 139.59 301.085 138.925 298.678 138.925H295.068V166H284.618V99.5H300.388C305.772 99.5 309.698 100.767 312.168 103.3C314.638 105.77 315.873 109.602 315.873 114.795V120.02C315.873 126.86 313.593 131.357 309.033 133.51C311.503 134.523 313.277 136.233 314.353 138.64C315.43 140.983 315.968 143.992 315.968 147.665V157.925C315.968 159.825 316.032 161.377 316.158 162.58C316.285 163.72 316.602 164.86 317.108 166H306.468ZM295.068 129.425H299.153C301.243 129.425 302.795 128.887 303.808 127.81C304.885 126.733 305.423 124.928 305.423 122.395V115.84C305.423 113.433 304.98 111.692 304.093 110.615C303.27 109.538 301.94 109 300.103 109H295.068V129.425ZM352.066 99.5C357.259 99.5 361.154 100.893 363.751 103.68C366.347 106.467 367.646 110.552 367.646 115.935V124.58C367.646 129.963 366.347 134.048 363.751 136.835C361.154 139.622 357.259 141.015 352.066 141.015H347.126V166H336.676V99.5H352.066ZM347.126 131.515H352.066C353.776 131.515 355.042 131.04 355.866 130.09C356.752 129.14 357.196 127.525 357.196 125.245V115.27C357.196 112.99 356.752 111.375 355.866 110.425C355.042 109.475 353.776 109 352.066 109H347.126V131.515ZM372.492 166V99.5H382.942V128H394.817V99.5H405.457V166H394.817V137.5H382.942V166H372.492ZM411.721 115.46C411.721 110.14 413.082 106.023 415.806 103.11C418.529 100.197 422.456 98.74 427.586 98.74C432.716 98.74 436.642 100.197 439.366 103.11C442.089 106.023 443.451 110.14 443.451 115.46V150.04C443.451 155.36 442.089 159.477 439.366 162.39C436.642 165.303 432.716 166.76 427.586 166.76C422.456 166.76 418.529 165.303 415.806 162.39C413.082 159.477 411.721 155.36 411.721 150.04V115.46ZM422.171 150.705C422.171 155.075 423.976 157.26 427.586 157.26C431.196 157.26 433.001 155.075 433.001 150.705V114.795C433.001 110.425 431.196 108.24 427.586 108.24C423.976 108.24 422.171 110.425 422.171 114.795V150.705ZM459.093 166H449.688V99.5H462.798L473.533 139.305V99.5H482.843V166H472.108L459.093 117.835V166ZM514.662 127.525V137.025H500.317V156.5H518.367V166H489.867V99.5H518.367V109H500.317V127.525H514.662ZM534.454 166H524.384V155.93H534.454V166Z" fill="#2B3144"/>
</svg>
