<svg width="46" height="10" viewBox="0 0 46 10" fill="none" xmlns="http://www.w3.org/2000/svg">
<path d="M1.408 9L1.969 7.493H5.467L6.028 9H7.48L4.444 1.19H3.025L0 9H1.408ZM3.729 2.84L5.027 6.283H2.409L3.707 2.84H3.729ZM9.25403 4.039V0.749999H7.94503V9H9.15503V8.186C9.52903 8.78 10.2 9.132 11.08 9.132C12.774 9.132 13.731 7.779 13.731 6.151C13.731 4.512 12.774 3.159 11.08 3.159C10.2 3.159 9.57303 3.555 9.25403 4.039ZM9.21003 6.151C9.21003 5.106 9.81503 4.314 10.816 4.314C11.806 4.314 12.422 5.106 12.422 6.151C12.422 7.174 11.806 7.977 10.816 7.977C9.81503 7.977 9.21003 7.174 9.21003 6.151ZM17.1997 9.132C19.0257 9.132 20.1697 7.757 20.1697 6.151C20.1697 4.545 19.0257 3.159 17.1997 3.159C15.3847 3.159 14.2407 4.545 14.2407 6.151C14.2407 7.757 15.3847 9.132 17.1997 9.132ZM15.5497 6.151C15.5497 5.04 16.2537 4.314 17.1997 4.314C18.1567 4.314 18.8607 5.04 18.8607 6.151C18.8607 7.251 18.1567 7.977 17.1997 7.977C16.2537 7.977 15.5497 7.251 15.5497 6.151ZM23.5227 7.977C22.7307 7.977 22.3127 7.537 22.3127 6.646V3.291H21.0037V6.58C21.0037 8.043 21.6747 9.132 23.5227 9.132C25.3707 9.132 26.0417 8.043 26.0417 6.58V3.291H24.7327V6.646C24.7327 7.537 24.3147 7.977 23.5227 7.977ZM28.763 4.336H29.72V3.291H28.763V1.806H27.454V3.291H26.585V4.336H27.454V9H28.763V4.336ZM36.1176 9.165C37.8996 9.165 39.3626 8.076 39.3626 5.788V1.19H38.0316V5.843C38.0316 7.086 37.4046 7.933 36.1176 7.933C34.8306 7.933 34.2036 7.086 34.2036 5.843V1.19H32.8726V5.788C32.8726 8.076 34.3246 9.165 36.1176 9.165ZM42.6376 9.132C44.2326 9.132 45.0246 8.318 45.0246 7.35C45.0246 5.04 41.7466 6.019 41.7466 4.908C41.7466 4.49 42.0766 4.226 42.7256 4.226C43.3966 4.226 43.7046 4.644 43.7486 5.051H45.0026C44.9476 4.281 44.3976 3.159 42.7586 3.159C41.3506 3.159 40.4926 3.995 40.4926 4.952C40.4926 7.273 43.7706 6.195 43.7706 7.405C43.7706 7.801 43.3966 8.054 42.7146 8.054C41.9116 8.054 41.5156 7.669 41.4826 7.174H40.2176C40.2836 8.219 40.9656 9.132 42.6376 9.132Z" fill="#4F5874"/>
</svg>
