<svg width="22" height="10" viewBox="0 0 22 10" fill="none" xmlns="http://www.w3.org/2000/svg">
<path d="M2.255 8V4.656H5.841V3.424H2.255V1.422H6.028V0.19H0.924V8H2.255ZM6.96045 8L7.52145 6.493H11.0194L11.5804 8H13.0324L9.99645 0.19H8.57745L5.55245 8H6.96045ZM9.28145 1.84L10.5794 5.283H7.96145L9.25945 1.84H9.28145ZM21.0274 4.095C21.0274 1.774 19.3664 0.0249997 16.9904 0.0249997C14.6144 0.0249997 12.9534 1.774 12.9534 4.095C12.9534 6.416 14.6144 8.165 16.9904 8.165C17.5954 8.165 18.1564 8.044 18.6514 7.846L19.7514 9.386H21.2914L19.6964 7.175C20.5324 6.449 21.0274 5.349 21.0274 4.095ZM19.6194 4.095C19.6194 5.767 18.5304 6.889 16.9904 6.889C15.4614 6.889 14.3614 5.767 14.3614 4.095C14.3614 2.412 15.4614 1.301 16.9904 1.301C18.5304 1.301 19.6194 2.412 19.6194 4.095Z" fill="#4F5874"/>
</svg>
