<svg width="596" height="155" viewBox="0 0 596 155" fill="none" xmlns="http://www.w3.org/2000/svg">
<path d="M33.387 50.376C33.387 55.646 32.085 59.707 29.481 62.559C26.877 65.349 23.095 66.744 18.135 66.744C13.175 66.744 9.393 65.349 6.789 62.559C4.185 59.707 2.883 55.646 2.883 50.376V16.524C2.883 11.254 4.185 7.224 6.789 4.43399C9.393 1.582 13.175 0.156 18.135 0.156C23.095 0.156 26.877 1.582 29.481 4.43399C32.085 7.224 33.387 11.254 33.387 16.524V22.848H23.715V15.873C23.715 11.595 21.948 9.456 18.414 9.456C14.88 9.456 13.113 11.595 13.113 15.873V51.027C13.113 55.243 14.88 57.351 18.414 57.351C21.948 57.351 23.715 55.243 23.715 51.027V41.727H33.387V50.376ZM48.9104 51.12C48.9104 55.336 50.6774 57.444 54.2114 57.444C57.7454 57.444 59.5124 55.336 59.5124 51.12V0.899996H69.1844V50.469C69.1844 55.739 67.8824 59.8 65.2784 62.652C62.6744 65.442 58.8924 66.837 53.9324 66.837C48.9724 66.837 45.1904 65.442 42.5864 62.652C39.9824 59.8 38.6804 55.739 38.6804 50.469V0.899996H48.9104V51.12ZM74.4495 16.524C74.4495 11.254 75.7205 7.224 78.2625 4.43399C80.8045 1.582 84.5555 0.156 89.5155 0.156C94.4755 0.156 98.2265 1.582 100.769 4.43399C103.311 7.224 104.582 11.254 104.582 16.524V18.57H94.9095V15.873C94.9095 13.641 94.4755 12.029 93.6075 11.037C92.7395 9.983 91.4685 9.456 89.7945 9.456C88.1205 9.456 86.8495 9.983 85.9815 11.037C85.1135 12.029 84.6795 13.641 84.6795 15.873C84.6795 18.601 85.3925 20.988 86.8185 23.034C88.3065 25.08 90.5075 27.405 93.4215 30.009C95.8395 32.241 97.7925 34.225 99.2805 35.961C100.769 37.635 102.04 39.681 103.094 42.099C104.148 44.517 104.675 47.276 104.675 50.376C104.675 55.646 103.373 59.707 100.769 62.559C98.1645 65.349 94.3825 66.744 89.4225 66.744C84.4625 66.744 80.6805 65.349 78.0765 62.559C75.4725 59.707 74.1705 55.646 74.1705 50.376V46.377H83.8425V51.027C83.8425 55.243 85.6095 57.351 89.1435 57.351C92.6775 57.351 94.4445 55.243 94.4445 51.027C94.4445 48.299 93.7005 45.912 92.2125 43.866C90.7865 41.82 88.6165 39.495 85.7025 36.891C83.2845 34.659 81.3315 32.706 79.8435 31.032C78.3555 29.296 77.0845 27.219 76.0305 24.801C74.9765 22.383 74.4495 19.624 74.4495 16.524ZM138.731 0.899996V10.2H128.036V66H117.806V10.2H107.111V0.899996H138.731ZM141.951 16.524C141.951 11.316 143.284 7.28599 145.95 4.43399C148.616 1.582 152.46 0.156 157.482 0.156C162.504 0.156 166.348 1.582 169.014 4.43399C171.68 7.28599 173.013 11.316 173.013 16.524V50.376C173.013 55.584 171.68 59.614 169.014 62.466C166.348 65.318 162.504 66.744 157.482 66.744C152.46 66.744 148.616 65.318 145.95 62.466C143.284 59.614 141.951 55.584 141.951 50.376V16.524ZM152.181 51.027C152.181 55.305 153.948 57.444 157.482 57.444C161.016 57.444 162.783 55.305 162.783 51.027V15.873C162.783 11.595 161.016 9.456 157.482 9.456C153.948 9.456 152.181 11.595 152.181 15.873V51.027ZM207.856 0.899996H222.085V66H212.413V19.314L205.345 66H195.673L188.047 19.965V66H179.119V0.899996H193.348L200.881 47.121L207.856 0.899996ZM253.351 28.335V37.635H239.308V56.7H256.978V66H229.078V0.899996H256.978V10.2H239.308V28.335H253.351ZM284.259 66C283.887 64.946 283.639 63.954 283.515 63.024C283.391 62.094 283.329 60.42 283.329 58.002V47.772C283.329 44.796 282.802 42.688 281.748 41.448C280.694 40.146 278.989 39.495 276.633 39.495H273.099V66H262.869V0.899996H278.307C283.577 0.899996 287.421 2.14 289.839 4.62C292.257 7.038 293.466 10.789 293.466 15.873V20.988C293.466 27.684 291.234 32.086 286.77 34.194C289.188 35.186 290.924 36.86 291.978 39.216C293.032 41.51 293.559 44.455 293.559 48.051V58.095C293.559 59.955 293.621 61.474 293.745 62.652C293.869 63.768 294.179 64.884 294.675 66H284.259ZM273.099 30.195H277.098C279.144 30.195 280.663 29.668 281.655 28.614C282.709 27.56 283.236 25.793 283.236 23.313V16.896C283.236 14.54 282.802 12.835 281.934 11.781C281.128 10.727 279.826 10.2 278.028 10.2H273.099V30.195ZM298.536 16.524C298.536 11.254 299.807 7.224 302.349 4.43399C304.891 1.582 308.642 0.156 313.602 0.156C318.562 0.156 322.313 1.582 324.855 4.43399C327.397 7.224 328.668 11.254 328.668 16.524V18.57H318.996V15.873C318.996 13.641 318.562 12.029 317.694 11.037C316.826 9.983 315.555 9.456 313.881 9.456C312.207 9.456 310.936 9.983 310.068 11.037C309.2 12.029 308.766 13.641 308.766 15.873C308.766 18.601 309.479 20.988 310.905 23.034C312.393 25.08 314.594 27.405 317.508 30.009C319.926 32.241 321.879 34.225 323.367 35.961C324.855 37.635 326.126 39.681 327.18 42.099C328.234 44.517 328.761 47.276 328.761 50.376C328.761 55.646 327.459 59.707 324.855 62.559C322.251 65.349 318.469 66.744 313.509 66.744C308.549 66.744 304.767 65.349 302.163 62.559C299.559 59.707 298.257 55.646 298.257 50.376V46.377H307.929V51.027C307.929 55.243 309.696 57.351 313.23 57.351C316.764 57.351 318.531 55.243 318.531 51.027C318.531 48.299 317.787 45.912 316.299 43.866C314.873 41.82 312.703 39.495 309.789 36.891C307.371 34.659 305.418 32.706 303.93 31.032C302.442 29.296 301.171 27.219 300.117 24.801C299.063 22.383 298.536 19.624 298.536 16.524ZM367.138 66H353.095L345.841 0.899996H355.792L361.279 52.236L366.208 0.899996H376.066L381.181 52.608L386.482 0.899996H395.41L388.156 66H374.578L370.858 31.311L367.138 66ZM410.35 0.899996V66H400.12V0.899996H410.35ZM446.026 0.899996V10.2H435.331V66H425.101V10.2H414.406V0.899996H446.026ZM450.083 66V0.899996H460.313V28.8H471.938V0.899996H482.354V66H471.938V38.1H460.313V66H450.083ZM32.364 88.9V98.2H21.669V154H11.439V98.2H0.744V88.9H32.364ZM36.4208 154V88.9H46.6508V116.8H58.2758V88.9H68.6918V154H58.2758V126.1H46.6508V154H36.4208ZM98.4457 154L96.6787 142.189H84.1237L82.3567 154H72.9637L83.3797 88.9H98.3527L108.769 154H98.4457ZM95.2837 133.354L90.3547 100.432L85.4257 133.354H95.2837ZM138.186 88.9V98.2H127.491V154H117.261V98.2H106.566V88.9H138.186ZM165.349 154H156.142V88.9H168.976L179.485 127.867V88.9H188.599V154H178.09L165.349 106.849V154ZM219.748 116.335V125.635H205.705V144.7H223.375V154H195.475V88.9H223.375V98.2H205.705V116.335H219.748ZM248.237 154H234.194L226.94 88.9H236.891L242.378 140.236L247.307 88.9H257.165L262.28 140.608L267.581 88.9H276.509L269.255 154H255.677L251.957 119.311L248.237 154ZM324.879 138.376C324.879 143.646 323.577 147.707 320.973 150.559C318.369 153.349 314.587 154.744 309.627 154.744C304.667 154.744 300.885 153.349 298.281 150.559C295.677 147.707 294.375 143.646 294.375 138.376V104.524C294.375 99.254 295.677 95.224 298.281 92.434C300.885 89.582 304.667 88.156 309.627 88.156C314.587 88.156 318.369 89.582 320.973 92.434C323.577 95.224 324.879 99.254 324.879 104.524V110.848H315.207V103.873C315.207 99.595 313.44 97.456 309.906 97.456C306.372 97.456 304.605 99.595 304.605 103.873V139.027C304.605 143.243 306.372 145.351 309.906 145.351C313.44 145.351 315.207 143.243 315.207 139.027V129.727H324.879V138.376ZM353.422 154L351.655 142.189H339.1L337.333 154H327.94L338.356 88.9H353.329L363.745 154H353.422ZM350.26 133.354L345.331 100.432L340.402 133.354H350.26ZM389.451 154C389.079 152.946 388.831 151.954 388.707 151.024C388.583 150.094 388.521 148.42 388.521 146.002V135.772C388.521 132.796 387.994 130.688 386.94 129.448C385.886 128.146 384.181 127.495 381.825 127.495H378.291V154H368.061V88.9H383.499C388.769 88.9 392.613 90.14 395.031 92.62C397.449 95.038 398.658 98.789 398.658 103.873V108.988C398.658 115.684 396.426 120.086 391.962 122.194C394.38 123.186 396.116 124.86 397.17 127.216C398.224 129.51 398.751 132.455 398.751 136.051V146.095C398.751 147.955 398.813 149.474 398.937 150.652C399.061 151.768 399.371 152.884 399.867 154H389.451ZM378.291 118.195H382.29C384.336 118.195 385.855 117.668 386.847 116.614C387.901 115.56 388.428 113.793 388.428 111.313V104.896C388.428 102.54 387.994 100.835 387.126 99.781C386.32 98.727 385.018 98.2 383.22 98.2H378.291V118.195ZM417.72 104.524C417.72 99.254 418.991 95.224 421.533 92.434C424.075 89.582 427.826 88.156 432.786 88.156C437.746 88.156 441.497 89.582 444.039 92.434C446.581 95.224 447.852 99.254 447.852 104.524V106.57H438.18V103.873C438.18 101.641 437.746 100.029 436.878 99.037C436.01 97.983 434.739 97.456 433.065 97.456C431.391 97.456 430.12 97.983 429.252 99.037C428.384 100.029 427.95 101.641 427.95 103.873C427.95 106.601 428.663 108.988 430.089 111.034C431.577 113.08 433.778 115.405 436.692 118.009C439.11 120.241 441.063 122.225 442.551 123.961C444.039 125.635 445.31 127.681 446.364 130.099C447.418 132.517 447.945 135.276 447.945 138.376C447.945 143.646 446.643 147.707 444.039 150.559C441.435 153.349 437.653 154.744 432.693 154.744C427.733 154.744 423.951 153.349 421.347 150.559C418.743 147.707 417.441 143.646 417.441 138.376V134.377H427.113V139.027C427.113 143.243 428.88 145.351 432.414 145.351C435.948 145.351 437.715 143.243 437.715 139.027C437.715 136.299 436.971 133.912 435.483 131.866C434.057 129.82 431.887 127.495 428.973 124.891C426.555 122.659 424.602 120.706 423.114 119.032C421.626 117.296 420.355 115.219 419.301 112.801C418.247 110.383 417.72 107.624 417.72 104.524ZM482.002 88.9H496.231V154H486.559V107.314L479.491 154H469.819L462.193 107.965V154H453.265V88.9H467.494L475.027 135.121L482.002 88.9ZM527.497 116.335V125.635H513.454V144.7H531.124V154H503.224V88.9H531.124V98.2H513.454V116.335H527.497ZM547.244 88.9V144.7H564.077V154H537.014V88.9H547.244ZM578.31 88.9V144.7H595.143V154H568.08V88.9H578.31Z" fill="#2B3144"/>
</svg>
