<svg width="384" height="42" viewBox="0 0 384 42" fill="none" xmlns="http://www.w3.org/2000/svg">
<path d="M4.432 3.824L5.2 0.639999H4.224L3.136 3.824H4.432ZM1.968 3.824L2.752 0.639999H1.776L0.688 3.824H1.968ZM13.676 2.192H13.708L16.732 12.016H18.028L21.676 0.639999H20.412L17.436 10.464H17.404L14.364 0.639999H13.036L9.99604 10.448H9.96404L7.00404 0.639999H5.69204L9.34004 12H10.62L13.676 2.192ZM23.4487 1.84C23.9127 1.84 24.2647 1.52 24.2647 1.056C24.2647 0.575999 23.9127 0.24 23.4487 0.24C22.9687 0.24 22.6327 0.575999 22.6327 1.056C22.6327 1.52 22.9687 1.84 23.4487 1.84ZM22.8727 12H24.0087V3.856H22.8727V12ZM27.8116 4.816H29.4756V3.856H27.8116V1.536H26.6756V3.856H25.1236V4.816H26.6756V12H27.8116V4.816ZM31.6613 -9.53674e-07H30.5253V12H31.6613V7.184C31.6613 5.52 32.7333 4.656 34.1093 4.656C35.5653 4.656 36.2533 5.552 36.2533 7.024V12H37.3893V6.8C37.3893 4.992 36.3173 3.664 34.3013 3.664C32.7813 3.664 31.9493 4.496 31.6613 4.992V-9.53674e-07ZM51.1588 10.896H44.6948V6.784H50.8228V5.68H44.6948V1.744H51.1588V0.639999H43.5268V12H51.1588V10.896ZM54.1401 12V-9.53674e-07H53.0041V12H54.1401ZM63.767 8.256C63.767 8.256 63.783 8 63.783 7.824C63.783 5.52 62.295 3.664 59.863 3.664C57.415 3.664 55.863 5.664 55.863 7.92C55.863 10.208 57.303 12.192 59.879 12.192C61.815 12.192 63.159 11.008 63.639 9.456H62.455C62.103 10.448 61.143 11.168 59.895 11.168C58.183 11.168 57.111 9.904 56.999 8.256H63.767ZM59.863 4.688C61.463 4.688 62.503 5.76 62.647 7.328H57.031C57.223 5.824 58.279 4.688 59.863 4.688ZM72.8928 3.856H71.8048V5.36C71.2448 4.32 70.2048 3.664 68.7168 3.664C66.2208 3.664 64.8768 5.696 64.8768 7.936C64.8768 10.176 66.2208 12.192 68.7168 12.192C70.2048 12.192 71.2448 11.536 71.8048 10.496V12H72.8928V3.856ZM66.0288 7.936C66.0288 6.16 67.1168 4.688 68.9408 4.688C70.7648 4.688 71.8048 6.16 71.8048 7.936C71.8048 9.712 70.7648 11.168 68.9408 11.168C67.1168 11.168 66.0288 9.712 66.0288 7.936ZM76.3054 3.856H75.2174V12H76.3534V7.152C76.3534 5.52 77.4254 4.656 78.8014 4.656C80.2574 4.656 80.9454 5.552 80.9454 7.024V12H82.0814V6.8C82.0814 4.992 81.0094 3.664 78.9934 3.664C77.4094 3.664 76.5934 4.576 76.3054 5.104V3.856ZM87.8453 12.192C90.4213 12.192 92.0053 10.176 92.0053 7.936C92.0053 5.696 90.4213 3.664 87.8453 3.664C85.2853 3.664 83.7013 5.696 83.7013 7.936C83.7013 10.176 85.2853 12.192 87.8453 12.192ZM84.8533 7.936C84.8533 6.096 86.0373 4.688 87.8453 4.688C89.6693 4.688 90.8533 6.096 90.8533 7.936C90.8533 9.76 89.6693 11.168 87.8453 11.168C86.0373 11.168 84.8533 9.76 84.8533 7.936ZM97.6817 3.792C97.6817 3.792 97.4897 3.776 97.4097 3.776C95.9057 3.776 95.1057 4.56 94.8017 5.12V3.856H93.7137V12H94.8497V7.376C94.8497 5.68 95.8897 4.848 97.2817 4.848C97.4897 4.848 97.6817 4.864 97.6817 4.864V3.792ZM103.93 0.639999H102.762V12H103.93V0.639999ZM117.599 12H118.783L121.631 3.856H120.431L118.207 10.656L115.999 3.856H114.815L112.575 10.656L110.383 3.856H109.167L111.983 12H113.167L115.391 5.296H115.407L117.599 12ZM130.097 3.856H129.009V5.36C128.449 4.32 127.409 3.664 125.921 3.664C123.425 3.664 122.081 5.696 122.081 7.936C122.081 10.176 123.425 12.192 125.921 12.192C127.409 12.192 128.449 11.536 129.009 10.496V12H130.097V3.856ZM123.233 7.936C123.233 6.16 124.321 4.688 126.145 4.688C127.969 4.688 129.009 6.16 129.009 7.936C129.009 9.712 127.969 11.168 126.145 11.168C124.321 11.168 123.233 9.712 123.233 7.936ZM135.029 12.192C137.237 12.192 138.277 11.024 138.277 9.792C138.277 6.368 133.237 8.272 133.237 6.016C133.237 5.28 133.861 4.656 135.125 4.656C136.421 4.656 137.029 5.36 137.125 6.24H138.261C138.165 5.136 137.413 3.664 135.157 3.664C133.221 3.664 132.133 4.816 132.133 6.064C132.133 9.408 137.173 7.488 137.173 9.824C137.173 10.64 136.405 11.2 135.029 11.2C133.621 11.2 132.917 10.496 132.837 9.456H131.685C131.781 10.88 132.677 12.192 135.029 12.192ZM151.107 3.856H150.019V5.36C149.459 4.32 148.419 3.664 146.931 3.664C144.435 3.664 143.091 5.696 143.091 7.936C143.091 10.176 144.435 12.192 146.931 12.192C148.419 12.192 149.459 11.536 150.019 10.496V12H151.107V3.856ZM144.243 7.936C144.243 6.16 145.331 4.688 147.155 4.688C148.979 4.688 150.019 6.16 150.019 7.936C150.019 9.712 148.979 11.168 147.155 11.168C145.331 11.168 144.243 9.712 144.243 7.936ZM154.568 5.328V-9.53674e-07H153.432V12H154.52V10.496C155.096 11.536 156.136 12.192 157.608 12.192C160.12 12.192 161.464 10.176 161.464 7.936C161.464 5.68 160.12 3.664 157.608 3.664C156.136 3.664 155.112 4.352 154.568 5.328ZM154.536 7.936C154.536 6.128 155.576 4.688 157.4 4.688C159.224 4.688 160.312 6.128 160.312 7.936C160.312 9.712 159.224 11.168 157.4 11.168C155.576 11.168 154.536 9.712 154.536 7.936ZM164.3 12V-9.53674e-07H163.164V12H164.3ZM173.927 8.256C173.927 8.256 173.943 8 173.943 7.824C173.943 5.52 172.455 3.664 170.023 3.664C167.575 3.664 166.023 5.664 166.023 7.92C166.023 10.208 167.463 12.192 170.039 12.192C171.975 12.192 173.319 11.008 173.799 9.456H172.615C172.263 10.448 171.303 11.168 170.055 11.168C168.343 11.168 167.271 9.904 167.159 8.256H173.927ZM170.023 4.688C171.623 4.688 172.663 5.76 172.807 7.328H167.191C167.383 5.824 168.439 4.688 170.023 4.688ZM180.802 4.816H182.466V3.856H180.802V1.536H179.666V3.856H178.114V4.816H179.666V12H180.802V4.816ZM186.88 12.192C189.456 12.192 191.04 10.176 191.04 7.936C191.04 5.696 189.456 3.664 186.88 3.664C184.32 3.664 182.736 5.696 182.736 7.936C182.736 10.176 184.32 12.192 186.88 12.192ZM183.888 7.936C183.888 6.096 185.072 4.688 186.88 4.688C188.704 4.688 189.888 6.096 189.888 7.936C189.888 9.76 188.704 11.168 186.88 11.168C185.072 11.168 183.888 9.76 183.888 7.936ZM202.706 5.328C202.162 4.352 201.154 3.664 199.666 3.664C197.17 3.664 195.826 5.68 195.826 7.936C195.826 10.176 197.17 12.192 199.666 12.192C201.154 12.192 202.194 11.536 202.754 10.496V12H203.842V-9.53674e-07H202.706V5.328ZM202.754 7.936C202.754 9.712 201.714 11.168 199.89 11.168C198.066 11.168 196.978 9.712 196.978 7.936C196.978 6.128 198.066 4.688 199.89 4.688C201.714 4.688 202.754 6.128 202.754 7.936ZM210.135 3.792C210.135 3.792 209.943 3.776 209.863 3.776C208.359 3.776 207.559 4.56 207.255 5.12V3.856H206.167V12H207.303V7.376C207.303 5.68 208.343 4.848 209.735 4.848C209.943 4.848 210.135 4.864 210.135 4.864V3.792ZM211.882 1.84C212.346 1.84 212.698 1.52 212.698 1.056C212.698 0.575999 212.346 0.24 211.882 0.24C211.402 0.24 211.066 0.575999 211.066 1.056C211.066 1.52 211.402 1.84 211.882 1.84ZM211.306 12H212.442V3.856H211.306V12ZM217.637 10.688L214.869 3.856H213.637L217.045 12H218.197L221.637 3.856H220.453L217.637 10.688ZM229.754 8.256C229.754 8.256 229.77 8 229.77 7.824C229.77 5.52 228.282 3.664 225.85 3.664C223.402 3.664 221.85 5.664 221.85 7.92C221.85 10.208 223.29 12.192 225.866 12.192C227.802 12.192 229.146 11.008 229.626 9.456H228.442C228.09 10.448 227.13 11.168 225.882 11.168C224.17 11.168 223.098 9.904 222.986 8.256H229.754ZM225.85 4.688C227.45 4.688 228.49 5.76 228.634 7.328H223.018C223.21 5.824 224.266 4.688 225.85 4.688ZM242.182 12V10.896H236.294L239.862 7.728C241.254 6.496 241.91 5.392 241.91 3.904C241.91 1.872 240.662 0.4 238.278 0.4C236.006 0.4 234.678 1.888 234.678 4.08C234.678 4.256 234.71 4.432 234.71 4.432H235.894C235.894 4.432 235.862 4.288 235.862 4.112C235.862 2.592 236.598 1.472 238.278 1.472C239.83 1.472 240.71 2.464 240.71 3.952C240.71 5.12 240.102 6 239.19 6.832L234.646 11.008V12H242.182ZM251.221 12.192C253.797 12.192 255.381 10.176 255.381 7.936C255.381 5.696 253.797 3.664 251.221 3.664C248.661 3.664 247.077 5.696 247.077 7.936C247.077 10.176 248.661 12.192 251.221 12.192ZM248.229 7.936C248.229 6.096 249.413 4.688 251.221 4.688C253.045 4.688 254.229 6.096 254.229 7.936C254.229 9.76 253.045 11.168 251.221 11.168C249.413 11.168 248.229 9.76 248.229 7.936ZM257.458 3.856H255.874V4.816H257.458V12H258.594V4.816H260.434V3.856H258.594V2.464C258.594 1.424 259.09 1.04 259.97 1.04C260.258 1.04 260.418 1.072 260.418 1.072V0.0319996C260.418 0.0319996 260.21 -9.53674e-07 259.874 -9.53674e-07C258.45 -9.53674e-07 257.458 0.799999 257.458 2.512V3.856ZM271.929 7.248C271.929 5.52 272.985 4.656 274.265 4.656C275.689 4.656 276.297 5.648 276.297 7.024V12H277.433V6.8C277.433 5.072 276.441 3.664 274.457 3.664C273.001 3.664 272.041 4.448 271.593 5.232C271.161 4.288 270.265 3.664 268.937 3.664C267.353 3.664 266.649 4.576 266.361 5.104V3.856H265.273V12H266.409V7.152C266.409 5.584 267.417 4.656 268.745 4.656C270.169 4.656 270.793 5.6 270.793 7.024V12H271.929V7.248ZM280.558 15.328H281.71L286.542 3.856H285.342L282.542 10.688L279.774 3.856H278.542L281.95 12L280.558 15.328ZM297.681 5.328C297.137 4.352 296.129 3.664 294.641 3.664C292.145 3.664 290.801 5.68 290.801 7.936C290.801 10.176 292.145 12.192 294.641 12.192C296.129 12.192 297.169 11.536 297.729 10.496V12H298.817V-9.53674e-07H297.681V5.328ZM297.729 7.936C297.729 9.712 296.689 11.168 294.865 11.168C293.041 11.168 291.953 9.712 291.953 7.936C291.953 6.128 293.041 4.688 294.865 4.688C296.689 4.688 297.729 6.128 297.729 7.936ZM305.109 3.792C305.109 3.792 304.917 3.776 304.837 3.776C303.333 3.776 302.533 4.56 302.229 5.12V3.856H301.141V12H302.277V7.376C302.277 5.68 303.317 4.848 304.709 4.848C304.917 4.848 305.109 4.864 305.109 4.864V3.792ZM313.216 8.256C313.216 8.256 313.232 8 313.232 7.824C313.232 5.52 311.744 3.664 309.312 3.664C306.864 3.664 305.312 5.664 305.312 7.92C305.312 10.208 306.752 12.192 309.328 12.192C311.264 12.192 312.608 11.008 313.088 9.456H311.904C311.552 10.448 310.592 11.168 309.344 11.168C307.632 11.168 306.56 9.904 306.448 8.256H313.216ZM309.312 4.688C310.912 4.688 311.952 5.76 312.096 7.328H306.48C306.672 5.824 307.728 4.688 309.312 4.688ZM322.342 3.856H321.254V5.36C320.694 4.32 319.654 3.664 318.166 3.664C315.67 3.664 314.326 5.696 314.326 7.936C314.326 10.176 315.67 12.192 318.166 12.192C319.654 12.192 320.694 11.536 321.254 10.496V12H322.342V3.856ZM315.478 7.936C315.478 6.16 316.566 4.688 318.39 4.688C320.214 4.688 321.254 6.16 321.254 7.936C321.254 9.712 320.214 11.168 318.39 11.168C316.566 11.168 315.478 9.712 315.478 7.936ZM331.323 7.248C331.323 5.52 332.379 4.656 333.659 4.656C335.083 4.656 335.691 5.648 335.691 7.024V12H336.827V6.8C336.827 5.072 335.835 3.664 333.851 3.664C332.395 3.664 331.435 4.448 330.987 5.232C330.555 4.288 329.659 3.664 328.331 3.664C326.747 3.664 326.043 4.576 325.755 5.104V3.856H324.667V12H325.803V7.152C325.803 5.584 326.811 4.656 328.139 4.656C329.563 4.656 330.187 5.6 330.187 7.024V12H331.323V7.248ZM342.149 7.936C342.149 10.16 343.685 12.192 346.165 12.192C348.373 12.192 349.653 10.72 349.973 9.104H348.821C348.485 10.368 347.557 11.168 346.165 11.168C344.453 11.168 343.301 9.808 343.301 7.936C343.301 6.048 344.453 4.688 346.165 4.688C347.557 4.688 348.485 5.488 348.821 6.752H349.973C349.653 5.136 348.373 3.664 346.165 3.664C343.685 3.664 342.149 5.696 342.149 7.936ZM358.835 3.856H357.747V5.36C357.187 4.32 356.147 3.664 354.659 3.664C352.163 3.664 350.819 5.696 350.819 7.936C350.819 10.176 352.163 12.192 354.659 12.192C356.147 12.192 357.187 11.536 357.747 10.496V12H358.835V3.856ZM351.971 7.936C351.971 6.16 353.059 4.688 354.883 4.688C356.707 4.688 357.747 6.16 357.747 7.936C357.747 9.712 356.707 11.168 354.883 11.168C353.059 11.168 351.971 9.712 351.971 7.936ZM365.127 3.792C365.127 3.792 364.935 3.776 364.855 3.776C363.351 3.776 362.551 4.56 362.247 5.12V3.856H361.159V12H362.295V7.376C362.295 5.68 363.335 4.848 364.727 4.848C364.935 4.848 365.127 4.864 365.127 4.864V3.792ZM368.828 12.192C371.036 12.192 372.076 11.024 372.076 9.792C372.076 6.368 367.036 8.272 367.036 6.016C367.036 5.28 367.66 4.656 368.924 4.656C370.22 4.656 370.828 5.36 370.924 6.24H372.06C371.964 5.136 371.212 3.664 368.956 3.664C367.02 3.664 365.932 4.816 365.932 6.064C365.932 9.408 370.972 7.488 370.972 9.824C370.972 10.64 370.204 11.2 368.828 11.2C367.42 11.2 366.716 10.496 366.636 9.456H365.484C365.58 10.88 366.476 12.192 368.828 12.192ZM2.864 30.816H4.528V29.856H2.864V27.536H1.728V29.856H0.176V30.816H1.728V38H2.864V30.816ZM6.71366 26H5.57766V38H6.71366V33.184C6.71366 31.52 7.78566 30.656 9.16166 30.656C10.6177 30.656 11.3057 31.552 11.3057 33.024V38H12.4417V32.8C12.4417 30.992 11.3697 29.664 9.35366 29.664C7.83366 29.664 7.00166 30.496 6.71366 30.992V26ZM15.2456 27.84C15.7096 27.84 16.0616 27.52 16.0616 27.056C16.0616 26.576 15.7096 26.24 15.2456 26.24C14.7656 26.24 14.4296 26.576 14.4296 27.056C14.4296 27.52 14.7656 27.84 15.2456 27.84ZM14.6696 38H15.8056V29.856H14.6696V38ZM20.7445 38.192C22.9525 38.192 23.9925 37.024 23.9925 35.792C23.9925 32.368 18.9525 34.272 18.9525 32.016C18.9525 31.28 19.5765 30.656 20.8405 30.656C22.1365 30.656 22.7445 31.36 22.8405 32.24H23.9765C23.8805 31.136 23.1285 29.664 20.8725 29.664C18.9365 29.664 17.8485 30.816 17.8485 32.064C17.8485 35.408 22.8885 33.488 22.8885 35.824C22.8885 36.64 22.1205 37.2 20.7445 37.2C19.3365 37.2 18.6325 36.496 18.5525 35.456H17.4005C17.4965 36.88 18.3925 38.192 20.7445 38.192ZM30.2941 41.328H31.4461L36.2781 29.856H35.0781L32.2781 36.688L29.5101 29.856H28.2781L31.6861 38L30.2941 41.328ZM44.3957 34.256C44.3957 34.256 44.4117 34 44.4117 33.824C44.4117 31.52 42.9237 29.664 40.4917 29.664C38.0437 29.664 36.4917 31.664 36.4917 33.92C36.4917 36.208 37.9317 38.192 40.5077 38.192C42.4437 38.192 43.7877 37.008 44.2677 35.456H43.0837C42.7317 36.448 41.7717 37.168 40.5237 37.168C38.8117 37.168 37.7397 35.904 37.6277 34.256H44.3957ZM40.4917 30.688C42.0917 30.688 43.1317 31.76 43.2757 33.328H37.6597C37.8517 31.824 38.9077 30.688 40.4917 30.688ZM53.5215 29.856H52.4335V31.36C51.8735 30.32 50.8335 29.664 49.3455 29.664C46.8495 29.664 45.5055 31.696 45.5055 33.936C45.5055 36.176 46.8495 38.192 49.3455 38.192C50.8335 38.192 51.8735 37.536 52.4335 36.496V38H53.5215V29.856ZM46.6575 33.936C46.6575 32.16 47.7455 30.688 49.5695 30.688C51.3935 30.688 52.4335 32.16 52.4335 33.936C52.4335 35.712 51.3935 37.168 49.5695 37.168C47.7455 37.168 46.6575 35.712 46.6575 33.936ZM59.814 29.792C59.814 29.792 59.622 29.776 59.542 29.776C58.038 29.776 57.238 30.56 56.934 31.12V29.856H55.846V38H56.982V33.376C56.982 31.68 58.022 30.848 59.414 30.848C59.622 30.848 59.814 30.864 59.814 30.864V29.792ZM61.0968 35.376H62.0408L62.2328 26.64H60.9048L61.0968 35.376ZM61.5768 38.128C62.0568 38.128 62.4248 37.776 62.4248 37.296C62.4248 36.8 62.0568 36.448 61.5768 36.448C61.0808 36.448 60.7128 36.8 60.7128 37.296C60.7128 37.776 61.0808 38.128 61.5768 38.128ZM79.0227 26.64H70.5907V27.76H74.2227V38H75.3907V27.76H79.0227V26.64ZM81.2229 26H80.0869V38H81.2229V33.184C81.2229 31.52 82.2949 30.656 83.6709 30.656C85.1269 30.656 85.8149 31.552 85.8149 33.024V38H86.9509V32.8C86.9509 30.992 85.8789 29.664 83.8629 29.664C82.3429 29.664 81.5109 30.496 81.2229 30.992V26ZM96.4748 34.256C96.4748 34.256 96.4908 34 96.4908 33.824C96.4908 31.52 95.0028 29.664 92.5708 29.664C90.1228 29.664 88.5708 31.664 88.5708 33.92C88.5708 36.208 90.0108 38.192 92.5868 38.192C94.5228 38.192 95.8668 37.008 96.3468 35.456H95.1628C94.8108 36.448 93.8508 37.168 92.6028 37.168C90.8908 37.168 89.8188 35.904 89.7068 34.256H96.4748ZM92.5708 30.688C94.1708 30.688 95.2108 31.76 95.3548 33.328H89.7388C89.9308 31.824 90.9868 30.688 92.5708 30.688ZM103.014 36.528C103.558 37.52 104.582 38.192 106.054 38.192C108.566 38.192 109.91 36.176 109.91 33.936C109.91 31.68 108.566 29.664 106.054 29.664C104.582 29.664 103.542 30.336 102.966 31.36V29.856H101.878V41.328H103.014V36.528ZM102.982 33.936C102.982 32.128 104.022 30.688 105.846 30.688C107.67 30.688 108.758 32.128 108.758 33.936C108.758 35.712 107.67 37.168 105.846 37.168C104.022 37.168 102.982 35.712 102.982 33.936ZM115.579 29.792C115.579 29.792 115.387 29.776 115.307 29.776C113.803 29.776 113.003 30.56 112.699 31.12V29.856H111.611V38H112.747V33.376C112.747 31.68 113.787 30.848 115.179 30.848C115.387 30.848 115.579 30.864 115.579 30.864V29.792ZM119.926 38.192C122.502 38.192 124.086 36.176 124.086 33.936C124.086 31.696 122.502 29.664 119.926 29.664C117.366 29.664 115.782 31.696 115.782 33.936C115.782 36.176 117.366 38.192 119.926 38.192ZM116.934 33.936C116.934 32.096 118.118 30.688 119.926 30.688C121.75 30.688 122.934 32.096 122.934 33.936C122.934 35.76 121.75 37.168 119.926 37.168C118.118 37.168 116.934 35.76 116.934 33.936ZM125.187 33.936C125.187 36.16 126.723 38.192 129.203 38.192C131.411 38.192 132.691 36.72 133.011 35.104H131.859C131.523 36.368 130.595 37.168 129.203 37.168C127.491 37.168 126.339 35.808 126.339 33.936C126.339 32.048 127.491 30.688 129.203 30.688C130.595 30.688 131.523 31.488 131.859 32.752H133.011C132.691 31.136 131.411 29.664 129.203 29.664C126.723 29.664 125.187 31.696 125.187 33.936ZM141.761 34.256C141.761 34.256 141.777 34 141.777 33.824C141.777 31.52 140.289 29.664 137.857 29.664C135.409 29.664 133.857 31.664 133.857 33.92C133.857 36.208 135.297 38.192 137.873 38.192C139.809 38.192 141.153 37.008 141.633 35.456H140.449C140.097 36.448 139.137 37.168 137.889 37.168C136.177 37.168 135.105 35.904 134.993 34.256H141.761ZM137.857 30.688C139.457 30.688 140.497 31.76 140.641 33.328H135.025C135.217 31.824 136.273 30.688 137.857 30.688ZM146.086 38.192C148.294 38.192 149.334 37.024 149.334 35.792C149.334 32.368 144.294 34.272 144.294 32.016C144.294 31.28 144.918 30.656 146.182 30.656C147.478 30.656 148.086 31.36 148.182 32.24H149.318C149.222 31.136 148.47 29.664 146.214 29.664C144.278 29.664 143.19 30.816 143.19 32.064C143.19 35.408 148.23 33.488 148.23 35.824C148.23 36.64 147.462 37.2 146.086 37.2C144.678 37.2 143.974 36.496 143.894 35.456H142.742C142.838 36.88 143.734 38.192 146.086 38.192ZM153.506 38.192C155.714 38.192 156.754 37.024 156.754 35.792C156.754 32.368 151.714 34.272 151.714 32.016C151.714 31.28 152.338 30.656 153.602 30.656C154.898 30.656 155.506 31.36 155.602 32.24H156.738C156.642 31.136 155.89 29.664 153.634 29.664C151.698 29.664 150.61 30.816 150.61 32.064C150.61 35.408 155.65 33.488 155.65 35.824C155.65 36.64 154.882 37.2 153.506 37.2C152.098 37.2 151.394 36.496 151.314 35.456H150.162C150.258 36.88 151.154 38.192 153.506 38.192ZM162.752 27.84C163.216 27.84 163.568 27.52 163.568 27.056C163.568 26.576 163.216 26.24 162.752 26.24C162.272 26.24 161.936 26.576 161.936 27.056C161.936 27.52 162.272 27.84 162.752 27.84ZM162.176 38H163.312V29.856H162.176V38ZM168.251 38.192C170.459 38.192 171.499 37.024 171.499 35.792C171.499 32.368 166.459 34.272 166.459 32.016C166.459 31.28 167.083 30.656 168.347 30.656C169.643 30.656 170.251 31.36 170.347 32.24H171.483C171.387 31.136 170.635 29.664 168.379 29.664C166.443 29.664 165.355 30.816 165.355 32.064C165.355 35.408 170.395 33.488 170.395 35.824C170.395 36.64 169.627 37.2 168.251 37.2C166.843 37.2 166.139 36.496 166.059 35.456H164.907C165.003 36.88 165.899 38.192 168.251 38.192ZM184.328 29.856H183.24V31.36C182.68 30.32 181.64 29.664 180.152 29.664C177.656 29.664 176.312 31.696 176.312 33.936C176.312 36.176 177.656 38.192 180.152 38.192C181.64 38.192 182.68 37.536 183.24 36.496V38H184.328V29.856ZM177.464 33.936C177.464 32.16 178.552 30.688 180.376 30.688C182.2 30.688 183.24 32.16 183.24 33.936C183.24 35.712 182.2 37.168 180.376 37.168C178.552 37.168 177.464 35.712 177.464 33.936ZM187.789 38V26H186.653V38H187.789ZM197.544 38H198.728L201.576 29.856H200.376L198.152 36.656L195.944 29.856H194.76L192.52 36.656L190.328 29.856H189.112L191.928 38H193.112L195.336 31.296H195.352L197.544 38ZM210.042 29.856H208.954V31.36C208.394 30.32 207.354 29.664 205.866 29.664C203.37 29.664 202.026 31.696 202.026 33.936C202.026 36.176 203.37 38.192 205.866 38.192C207.354 38.192 208.394 37.536 208.954 36.496V38H210.042V29.856ZM203.178 33.936C203.178 32.16 204.266 30.688 206.09 30.688C207.914 30.688 208.954 32.16 208.954 33.936C208.954 35.712 207.914 37.168 206.09 37.168C204.266 37.168 203.178 35.712 203.178 33.936ZM213.246 41.328H214.398L219.23 29.856H218.03L215.23 36.688L212.462 29.856H211.23L214.638 38L213.246 41.328ZM222.941 38.192C225.149 38.192 226.189 37.024 226.189 35.792C226.189 32.368 221.149 34.272 221.149 32.016C221.149 31.28 221.773 30.656 223.037 30.656C224.333 30.656 224.941 31.36 225.037 32.24H226.173C226.077 31.136 225.325 29.664 223.069 29.664C221.133 29.664 220.045 30.816 220.045 32.064C220.045 35.408 225.085 33.488 225.085 35.824C225.085 36.64 224.317 37.2 222.941 37.2C221.533 37.2 220.829 36.496 220.749 35.456H219.597C219.693 36.88 220.589 38.192 222.941 38.192ZM238.907 34.256C238.907 34.256 238.923 34 238.923 33.824C238.923 31.52 237.435 29.664 235.003 29.664C232.555 29.664 231.003 31.664 231.003 33.92C231.003 36.208 232.443 38.192 235.019 38.192C236.955 38.192 238.299 37.008 238.779 35.456H237.595C237.243 36.448 236.283 37.168 235.035 37.168C233.323 37.168 232.251 35.904 232.139 34.256H238.907ZM235.003 30.688C236.603 30.688 237.643 31.76 237.787 33.328H232.171C232.363 31.824 233.419 30.688 235.003 30.688ZM248.033 29.856H246.945V31.36C246.385 30.32 245.345 29.664 243.857 29.664C241.361 29.664 240.017 31.696 240.017 33.936C240.017 36.176 241.361 38.192 243.857 38.192C245.345 38.192 246.385 37.536 246.945 36.496V38H248.033V29.856ZM241.169 33.936C241.169 32.16 242.257 30.688 244.081 30.688C245.905 30.688 246.945 32.16 246.945 33.936C246.945 35.712 245.905 37.168 244.081 37.168C242.257 37.168 241.169 35.712 241.169 33.936ZM252.965 38.192C255.173 38.192 256.213 37.024 256.213 35.792C256.213 32.368 251.173 34.272 251.173 32.016C251.173 31.28 251.797 30.656 253.061 30.656C254.357 30.656 254.965 31.36 255.061 32.24H256.197C256.101 31.136 255.349 29.664 253.093 29.664C251.157 29.664 250.069 30.816 250.069 32.064C250.069 35.408 255.109 33.488 255.109 35.824C255.109 36.64 254.341 37.2 252.965 37.2C251.557 37.2 250.853 36.496 250.773 35.456H249.621C249.717 36.88 250.613 38.192 252.965 38.192ZM258.766 41.328H259.918L264.75 29.856H263.55L260.75 36.688L257.982 29.856H256.75L260.158 38L258.766 41.328ZM277.025 29.856H275.937V31.36C275.377 30.32 274.337 29.664 272.849 29.664C270.353 29.664 269.009 31.696 269.009 33.936C269.009 36.176 270.353 38.192 272.849 38.192C274.337 38.192 275.377 37.536 275.937 36.496V38H277.025V29.856ZM270.161 33.936C270.161 32.16 271.249 30.688 273.073 30.688C274.897 30.688 275.937 32.16 275.937 33.936C275.937 35.712 274.897 37.168 273.073 37.168C271.249 37.168 270.161 35.712 270.161 33.936ZM280.438 29.856H279.35V38H280.486V33.152C280.486 31.52 281.558 30.656 282.934 30.656C284.39 30.656 285.078 31.552 285.078 33.024V38H286.214V32.8C286.214 30.992 285.142 29.664 283.126 29.664C281.542 29.664 280.726 30.576 280.438 31.104V29.856ZM294.714 31.328C294.17 30.352 293.162 29.664 291.674 29.664C289.178 29.664 287.834 31.68 287.834 33.936C287.834 36.176 289.178 38.192 291.674 38.192C293.162 38.192 294.202 37.536 294.762 36.496V38H295.85V26H294.714V31.328ZM294.762 33.936C294.762 35.712 293.722 37.168 291.898 37.168C290.074 37.168 288.986 35.712 288.986 33.936C288.986 32.128 290.074 30.688 291.898 30.688C293.722 30.688 294.762 32.128 294.762 33.936ZM309.268 29.856H308.18V31.36C307.62 30.32 306.58 29.664 305.092 29.664C302.596 29.664 301.252 31.696 301.252 33.936C301.252 36.176 302.596 38.192 305.092 38.192C306.58 38.192 307.62 37.536 308.18 36.496V38H309.268V29.856ZM302.404 33.936C302.404 32.16 303.492 30.688 305.316 30.688C307.14 30.688 308.18 32.16 308.18 33.936C308.18 35.712 307.14 37.168 305.316 37.168C303.492 37.168 302.404 35.712 302.404 33.936ZM311.96 29.856H310.376V30.816H311.96V38H313.096V30.816H314.936V29.856H313.096V28.464C313.096 27.424 313.592 27.04 314.472 27.04C314.76 27.04 314.92 27.072 314.92 27.072V26.032C314.92 26.032 314.712 26 314.376 26C312.952 26 311.96 26.8 311.96 28.512V29.856ZM316.459 29.856H314.875V30.816H316.459V38H317.595V30.816H319.435V29.856H317.595V28.464C317.595 27.424 318.091 27.04 318.971 27.04C319.259 27.04 319.419 27.072 319.419 27.072V26.032C319.419 26.032 319.211 26 318.875 26C317.451 26 316.459 26.8 316.459 28.512V29.856ZM323.953 38.192C326.529 38.192 328.113 36.176 328.113 33.936C328.113 31.696 326.529 29.664 323.953 29.664C321.393 29.664 319.809 31.696 319.809 33.936C319.809 36.176 321.393 38.192 323.953 38.192ZM320.961 33.936C320.961 32.096 322.145 30.688 323.953 30.688C325.777 30.688 326.961 32.096 326.961 33.936C326.961 35.76 325.777 37.168 323.953 37.168C322.145 37.168 320.961 35.76 320.961 33.936ZM333.789 29.792C333.789 29.792 333.597 29.776 333.517 29.776C332.013 29.776 331.213 30.56 330.909 31.12V29.856H329.821V38H330.957V33.376C330.957 31.68 331.997 30.848 333.389 30.848C333.597 30.848 333.789 30.864 333.789 30.864V29.792ZM340.873 31.328C340.329 30.352 339.321 29.664 337.833 29.664C335.337 29.664 333.993 31.68 333.993 33.936C333.993 36.176 335.337 38.192 337.833 38.192C339.321 38.192 340.361 37.536 340.921 36.496V38H342.009V26H340.873V31.328ZM340.921 33.936C340.921 35.712 339.881 37.168 338.057 37.168C336.233 37.168 335.145 35.712 335.145 33.936C335.145 32.128 336.233 30.688 338.057 30.688C339.881 30.688 340.921 32.128 340.921 33.936ZM351.741 29.856H350.653V31.36C350.093 30.32 349.053 29.664 347.565 29.664C345.069 29.664 343.725 31.696 343.725 33.936C343.725 36.176 345.069 38.192 347.565 38.192C349.053 38.192 350.093 37.536 350.653 36.496V38H351.741V29.856ZM344.877 33.936C344.877 32.16 345.965 30.688 347.789 30.688C349.613 30.688 350.653 32.16 350.653 33.936C350.653 35.712 349.613 37.168 347.789 37.168C345.965 37.168 344.877 35.712 344.877 33.936ZM355.202 31.328V26H354.066V38H355.154V36.496C355.73 37.536 356.77 38.192 358.242 38.192C360.754 38.192 362.098 36.176 362.098 33.936C362.098 31.68 360.754 29.664 358.242 29.664C356.77 29.664 355.746 30.352 355.202 31.328ZM355.17 33.936C355.17 32.128 356.21 30.688 358.034 30.688C359.858 30.688 360.946 32.128 360.946 33.936C360.946 35.712 359.858 37.168 358.034 37.168C356.21 37.168 355.17 35.712 355.17 33.936ZM364.934 38V26H363.798V38H364.934ZM374.561 34.256C374.561 34.256 374.577 34 374.577 33.824C374.577 31.52 373.089 29.664 370.657 29.664C368.209 29.664 366.657 31.664 366.657 33.92C366.657 36.208 368.097 38.192 370.673 38.192C372.609 38.192 373.953 37.008 374.433 35.456H373.249C372.897 36.448 371.937 37.168 370.689 37.168C368.977 37.168 367.905 35.904 367.793 34.256H374.561ZM370.657 30.688C372.257 30.688 373.297 31.76 373.441 33.328H367.825C368.017 31.824 369.073 30.688 370.657 30.688ZM376.391 35.376H377.335L377.527 26.64H376.199L376.391 35.376ZM376.871 38.128C377.351 38.128 377.719 37.776 377.719 37.296C377.719 36.8 377.351 36.448 376.871 36.448C376.375 36.448 376.007 36.8 376.007 37.296C376.007 37.776 376.375 38.128 376.871 38.128ZM379.825 26.64L379.057 29.824H380.033L381.121 26.64H379.825ZM382.289 26.64L381.505 29.824H382.481L383.569 26.64H382.289Z" fill="black"/>
</svg>
