<svg width="186" height="13" viewBox="0 0 186 13" fill="none" xmlns="http://www.w3.org/2000/svg">
<path d="M1.536 10L2.148 8.356H5.964L6.576 10H8.16L4.848 1.48H3.3L0 10H1.536ZM4.068 3.28L5.484 7.036H2.628L4.044 3.28H4.068ZM10.0953 10V0.999999H8.66731V10H10.0953ZM17.2027 7.3C17.2027 7.3 17.2147 7.084 17.2147 6.856C17.2147 5.032 16.0027 3.628 14.1547 3.628C12.3067 3.628 11.0587 5.068 11.0587 6.88C11.0587 8.74 12.2827 10.144 14.1667 10.144C15.6187 10.144 16.7227 9.268 17.0947 8.032H15.6547C15.4267 8.584 14.8627 8.92 14.2027 8.92C13.2067 8.92 12.5707 8.284 12.4627 7.3H17.2027ZM14.1547 4.792C15.0787 4.792 15.6787 5.38 15.7987 6.244H12.4867C12.6307 5.392 13.2307 4.792 14.1547 4.792ZM23.4078 3.772H21.6918L20.2398 5.764L18.7758 3.772H17.0598L19.4238 6.844L16.9878 10H18.7038L20.2398 7.912L21.7638 10H23.4918L21.0438 6.844L23.4078 3.772ZM30.4755 10C32.3235 10 33.3075 9.1 33.3075 7.612C33.3075 6.676 32.7555 5.98 31.9275 5.692C32.6955 5.38 33.1635 4.696 33.1635 3.796C33.1635 2.488 32.2995 1.48 30.3435 1.48H26.8995V10H30.4755ZM30.4635 6.352C31.3515 6.352 31.8435 6.784 31.8435 7.516C31.8435 8.284 31.3515 8.68 30.4515 8.68H28.3275V6.352H30.4635ZM30.3555 2.8C31.2795 2.8 31.6995 3.244 31.6995 3.916C31.6995 4.684 31.1715 5.02 30.3555 5.02H28.3275V2.8H30.3555ZM38.9902 3.784V4.672C38.5942 4.024 37.8622 3.64 36.8902 3.64C35.0542 3.64 34.0102 5.116 34.0102 6.892C34.0102 8.668 35.0542 10.144 36.8902 10.144C37.8622 10.144 38.5942 9.76 38.9902 9.112V10H40.3102V3.784H38.9902ZM35.4382 6.892C35.4382 5.776 36.1102 4.9 37.1902 4.9C38.2822 4.9 38.9422 5.776 38.9422 6.892C38.9422 8.008 38.2822 8.884 37.1902 8.884C36.1102 8.884 35.4382 8.008 35.4382 6.892ZM43.3385 4.912H44.3825V3.772H43.3385V2.152H41.9105V3.772H40.9625V4.912H41.9105V10H43.3385V4.912ZM50.6046 7.3C50.6046 7.3 50.6166 7.084 50.6166 6.856C50.6166 5.032 49.4046 3.628 47.5566 3.628C45.7086 3.628 44.4606 5.068 44.4606 6.88C44.4606 8.74 45.6846 10.144 47.5686 10.144C49.0206 10.144 50.1246 9.268 50.4966 8.032H49.0566C48.8286 8.584 48.2646 8.92 47.6046 8.92C46.6086 8.92 45.9726 8.284 45.8646 7.3H50.6046ZM47.5566 4.792C48.4806 4.792 49.0806 5.38 49.2006 6.244H45.8886C46.0326 5.392 46.6326 4.792 47.5566 4.792ZM56.9943 6.424C56.9943 5.416 57.5463 4.852 58.3983 4.852C59.2623 4.852 59.5743 5.464 59.5743 6.268V10H61.0023V6.088C61.0023 4.672 60.2343 3.628 58.7343 3.628C57.7743 3.628 57.1023 4.012 56.6223 4.612C56.2743 4.012 55.6503 3.628 54.7503 3.628C53.7543 3.628 53.1543 4.108 52.8903 4.6V3.772H51.5703V10H52.9983V6.376C52.9983 5.428 53.5383 4.852 54.3903 4.852C55.2423 4.852 55.5663 5.452 55.5663 6.268V10H56.9943V6.424ZM66.8871 3.784V4.672C66.4911 4.024 65.7591 3.64 64.7871 3.64C62.9511 3.64 61.9071 5.116 61.9071 6.892C61.9071 8.668 62.9511 10.144 64.7871 10.144C65.7591 10.144 66.4911 9.76 66.8871 9.112V10H68.2071V3.784H66.8871ZM63.3351 6.892C63.3351 5.776 64.0071 4.9 65.0871 4.9C66.1791 4.9 66.8391 5.776 66.8391 6.892C66.8391 8.008 66.1791 8.884 65.0871 8.884C64.0071 8.884 63.3351 8.008 63.3351 6.892ZM70.8993 3.772H69.5793V10H71.0073V6.388C71.0073 5.416 71.5713 4.852 72.4713 4.852C73.3233 4.852 73.7073 5.416 73.7073 6.268V10H75.1353V6.088C75.1353 4.636 74.3313 3.628 72.8193 3.628C71.7993 3.628 71.1633 4.108 70.8993 4.6V3.772ZM76.4328 8.332L75.7728 11.572H77.0448L78.0288 8.332H76.4328ZM88.934 1.48H87.482V10H88.934V1.48ZM91.7738 3.772H90.4538V10H91.8818V6.388C91.8818 5.416 92.4458 4.852 93.3458 4.852C94.1978 4.852 94.5818 5.416 94.5818 6.268V10H96.0098V6.088C96.0098 4.636 95.2058 3.628 93.6938 3.628C92.6738 3.628 92.0378 4.108 91.7738 4.6V3.772ZM98.9874 4.912H100.031V3.772H98.9874V2.152H97.5594V3.772H96.6114V4.912H97.5594V10H98.9874V4.912ZM106.253 7.3C106.253 7.3 106.265 7.084 106.265 6.856C106.265 5.032 105.053 3.628 103.205 3.628C101.357 3.628 100.109 5.068 100.109 6.88C100.109 8.74 101.333 10.144 103.217 10.144C104.669 10.144 105.773 9.268 106.145 8.032H104.705C104.477 8.584 103.913 8.92 103.253 8.92C102.257 8.92 101.621 8.284 101.513 7.3H106.253ZM103.205 4.792C104.129 4.792 104.729 5.38 104.849 6.244H101.537C101.681 5.392 102.281 4.792 103.205 4.792ZM110.579 3.724C110.579 3.724 110.435 3.712 110.375 3.712C109.295 3.712 108.767 4.24 108.539 4.636V3.772H107.219V10H108.647V6.76C108.647 5.56 109.247 5.032 110.255 5.032C110.411 5.032 110.579 5.056 110.579 5.056V3.724ZM111.513 3.772H110.517V4.912H111.513V10H112.941V4.912H114.045V3.772H112.941V3.196C112.941 2.512 113.169 2.272 113.745 2.272C113.937 2.272 114.009 2.296 114.009 2.296V1.036C114.009 1.036 113.805 0.999999 113.529 0.999999C112.341 0.999999 111.513 1.648 111.513 3.112V3.772ZM119.206 3.784V4.672C118.81 4.024 118.078 3.64 117.106 3.64C115.27 3.64 114.226 5.116 114.226 6.892C114.226 8.668 115.27 10.144 117.106 10.144C118.078 10.144 118.81 9.76 119.206 9.112V10H120.526V3.784H119.206ZM115.654 6.892C115.654 5.776 116.326 4.9 117.406 4.9C118.498 4.9 119.158 5.776 119.158 6.892C119.158 8.008 118.498 8.884 117.406 8.884C116.326 8.884 115.654 8.008 115.654 6.892ZM121.491 6.892C121.491 8.692 122.763 10.144 124.599 10.144C126.447 10.144 127.383 8.86 127.551 7.744H126.087C125.919 8.416 125.355 8.884 124.587 8.884C123.567 8.884 122.919 8.056 122.919 6.892C122.919 5.716 123.567 4.888 124.587 4.888C125.355 4.888 125.919 5.356 126.087 6.028H127.551C127.383 4.912 126.447 3.628 124.599 3.628C122.763 3.628 121.491 5.08 121.491 6.892ZM134.149 7.3C134.149 7.3 134.161 7.084 134.161 6.856C134.161 5.032 132.949 3.628 131.101 3.628C129.253 3.628 128.005 5.068 128.005 6.88C128.005 8.74 129.229 10.144 131.113 10.144C132.565 10.144 133.669 9.268 134.041 8.032H132.601C132.373 8.584 131.809 8.92 131.149 8.92C130.153 8.92 129.517 8.284 129.409 7.3H134.149ZM131.101 4.792C132.025 4.792 132.625 5.38 132.745 6.244H129.433C129.577 5.392 130.177 4.792 131.101 4.792ZM140.915 10C143.855 10 145.487 8.248 145.487 5.74C145.487 3.232 143.855 1.48 140.915 1.48H138.023V10H140.915ZM143.951 5.74C143.951 7.504 142.967 8.656 140.867 8.656H139.475V2.824H140.867C142.967 2.824 143.951 3.976 143.951 5.74ZM152.285 7.3C152.285 7.3 152.297 7.084 152.297 6.856C152.297 5.032 151.085 3.628 149.237 3.628C147.389 3.628 146.141 5.068 146.141 6.88C146.141 8.74 147.365 10.144 149.249 10.144C150.701 10.144 151.805 9.268 152.177 8.032H150.737C150.509 8.584 149.945 8.92 149.285 8.92C148.289 8.92 147.653 8.284 147.545 7.3H152.285ZM149.237 4.792C150.161 4.792 150.761 5.38 150.881 6.244H147.569C147.713 5.392 148.313 4.792 149.237 4.792ZM155.387 10.144C157.127 10.144 157.991 9.256 157.991 8.2C157.991 5.68 154.415 6.748 154.415 5.536C154.415 5.08 154.775 4.792 155.483 4.792C156.215 4.792 156.551 5.248 156.599 5.692H157.967C157.907 4.852 157.307 3.628 155.519 3.628C153.983 3.628 153.047 4.54 153.047 5.584C153.047 8.116 156.623 6.94 156.623 8.26C156.623 8.692 156.215 8.968 155.471 8.968C154.595 8.968 154.163 8.548 154.127 8.008H152.747C152.819 9.148 153.563 10.144 155.387 10.144ZM159.642 2.728C160.158 2.728 160.53 2.368 160.53 1.852C160.53 1.324 160.158 0.952 159.642 0.952C159.114 0.952 158.742 1.324 158.742 1.852C158.742 2.368 159.114 2.728 159.642 2.728ZM158.922 10H160.35V3.772H158.922V10ZM166.257 4.66C165.849 4.012 165.141 3.628 164.181 3.628C162.405 3.628 161.313 5.056 161.313 6.772C161.313 8.488 162.405 9.916 164.181 9.916C165.141 9.916 165.801 9.496 166.149 8.956V9.928C166.149 10.804 165.609 11.404 164.625 11.404C163.725 11.404 163.305 10.936 163.173 10.456H161.745C161.877 11.428 162.729 12.628 164.601 12.628C166.521 12.628 167.577 11.38 167.577 9.736V3.772H166.257V4.66ZM166.209 6.772C166.209 7.852 165.525 8.656 164.469 8.656C163.437 8.656 162.741 7.852 162.741 6.772C162.741 5.68 163.437 4.888 164.469 4.888C165.525 4.888 166.209 5.68 166.209 6.772ZM170.223 3.772H168.903V10H170.331V6.388C170.331 5.416 170.895 4.852 171.795 4.852C172.647 4.852 173.031 5.416 173.031 6.268V10H174.459V6.088C174.459 4.636 173.655 3.628 172.143 3.628C171.123 3.628 170.487 4.108 170.223 4.6V3.772ZM181.517 7.3C181.517 7.3 181.529 7.084 181.529 6.856C181.529 5.032 180.317 3.628 178.469 3.628C176.621 3.628 175.373 5.068 175.373 6.88C175.373 8.74 176.597 10.144 178.481 10.144C179.933 10.144 181.037 9.268 181.409 8.032H179.969C179.741 8.584 179.177 8.92 178.517 8.92C177.521 8.92 176.885 8.284 176.777 7.3H181.517ZM178.469 4.792C179.393 4.792 179.993 5.38 180.113 6.244H176.801C176.945 5.392 177.545 4.792 178.469 4.792ZM185.843 3.724C185.843 3.724 185.699 3.712 185.639 3.712C184.559 3.712 184.031 4.24 183.803 4.636V3.772H182.483V10H183.911V6.76C183.911 5.56 184.511 5.032 185.519 5.032C185.675 5.032 185.843 5.056 185.843 5.056V3.724Z" fill="black"/>
</svg>
