<svg width="153" height="33" viewBox="0 0 153 33" fill="none" xmlns="http://www.w3.org/2000/svg">
<path d="M2.416 13L3.104 11.048H7.776L8.464 13H10.976L6.704 1.64H4.24L-0.032 13H2.416ZM5.456 4.52L7.024 8.952H3.856L5.424 4.52H5.456ZM14.3677 10.264L12.3357 4.616H9.93566L13.2957 13H15.4077L18.7677 4.616H16.4157L14.3677 10.264ZM25.0672 4.616V5.64C24.5392 4.872 23.5952 4.424 22.4112 4.424C19.9792 4.424 18.5552 6.376 18.5552 8.808C18.5552 11.24 19.9792 13.192 22.4112 13.192C23.5952 13.192 24.5392 12.744 25.0672 11.976V13H27.1632V4.616H25.0672ZM24.9552 8.808C24.9552 10.168 24.1552 11.192 22.8912 11.192C21.6272 11.192 20.8272 10.168 20.8272 8.808C20.8272 7.448 21.6272 6.424 22.8912 6.424C24.1552 6.424 24.9552 7.448 24.9552 8.808ZM29.9049 3.528C30.7049 3.528 31.2809 2.968 31.2809 2.168C31.2809 1.368 30.7049 0.792 29.9049 0.792C29.1049 0.792 28.5289 1.368 28.5289 2.168C28.5289 2.968 29.1049 3.528 29.9049 3.528ZM28.7689 13H31.0409V4.616H28.7689V13ZM34.9296 13V0.999999H32.6576V13H34.9296ZM42.5304 4.616V5.64C42.0024 4.872 41.0584 4.424 39.8744 4.424C37.4424 4.424 36.0184 6.376 36.0184 8.808C36.0184 11.24 37.4424 13.192 39.8744 13.192C41.0584 13.192 42.0024 12.744 42.5304 11.976V13H44.6264V4.616H42.5304ZM42.4184 8.808C42.4184 10.168 41.6184 11.192 40.3544 11.192C39.0904 11.192 38.2904 10.168 38.2904 8.808C38.2904 7.448 39.0904 6.424 40.3544 6.424C41.6184 6.424 42.4184 7.448 42.4184 8.808ZM48.5041 5.512V0.999999H46.2321V13H48.3281V11.976C48.8561 12.744 49.8001 13.192 50.9841 13.192C53.4161 13.192 54.8401 11.24 54.8401 8.808C54.8401 6.376 53.4161 4.424 50.9841 4.424C49.8001 4.424 48.9361 4.936 48.5041 5.512ZM48.4401 8.808C48.4401 7.448 49.2401 6.424 50.5041 6.424C51.7681 6.424 52.5681 7.448 52.5681 8.808C52.5681 10.168 51.7681 11.192 50.5041 11.192C49.2401 11.192 48.4401 10.168 48.4401 8.808ZM58.1898 13V0.999999H55.9178V13H58.1898ZM67.6145 9.464C67.6145 9.464 67.6465 9.16 67.6465 8.792C67.6465 6.312 65.9665 4.424 63.4865 4.424C61.0065 4.424 59.2785 6.312 59.2785 8.792C59.2785 11.368 61.0225 13.192 63.5025 13.192C65.4385 13.192 66.9745 12.024 67.4705 10.328H65.1825C64.9105 10.936 64.2545 11.24 63.5665 11.24C62.4305 11.24 61.6945 10.616 61.5345 9.464H67.6145ZM63.4705 6.248C64.5265 6.248 65.2145 6.888 65.3745 7.832H61.5665C61.7585 6.872 62.4305 6.248 63.4705 6.248ZM83.8366 7.32C83.8366 3.912 81.3726 1.4 77.9326 1.4C74.4926 1.4 72.0286 3.912 72.0286 7.32C72.0286 10.728 74.4926 13.24 77.9326 13.24C81.3726 13.24 83.8366 10.728 83.8366 7.32ZM81.3726 7.32C81.3726 9.56 79.9486 11.016 77.9326 11.016C75.9166 11.016 74.4926 9.56 74.4926 7.32C74.4926 5.08 75.9166 3.624 77.9326 3.624C79.9486 3.624 81.3726 5.08 81.3726 7.32ZM87.1783 4.616H85.0823V13H87.3543V8.2C87.3543 7.08 87.9623 6.376 89.0663 6.376C90.0743 6.376 90.4903 7.048 90.4903 8.024V13H92.7623V7.768C92.7623 5.768 91.6903 4.424 89.6743 4.424C88.4263 4.424 87.5623 4.92 87.1783 5.64V4.616ZM100.545 6.408H101.777V4.616H100.545V2.536H98.2729V4.616H97.1369V6.408H98.2729V13H100.545V6.408ZM104.771 0.999999H102.499V13H104.771V8.216C104.771 7.064 105.379 6.376 106.483 6.376C107.491 6.376 107.907 7.048 107.907 8.024V13H110.179V7.768C110.179 5.768 109.107 4.424 107.091 4.424C106.003 4.424 105.203 4.808 104.771 5.384V0.999999ZM119.524 9.464C119.524 9.464 119.556 9.16 119.556 8.792C119.556 6.312 117.876 4.424 115.396 4.424C112.916 4.424 111.188 6.312 111.188 8.792C111.188 11.368 112.932 13.192 115.412 13.192C117.348 13.192 118.884 12.024 119.38 10.328H117.092C116.82 10.936 116.164 11.24 115.476 11.24C114.34 11.24 113.604 10.616 113.444 9.464H119.524ZM115.38 6.248C116.436 6.248 117.124 6.888 117.284 7.832H113.476C113.668 6.872 114.34 6.248 115.38 6.248ZM125.322 13L126.01 11.048H130.682L131.37 13H133.882L129.61 1.64H127.146L122.874 13H125.322ZM128.362 4.52L129.93 8.952H126.762L128.33 4.52H128.362ZM136.685 12.104C137.117 12.68 137.981 13.192 139.165 13.192C141.597 13.192 143.021 11.24 143.021 8.808C143.021 6.376 141.597 4.424 139.165 4.424C137.981 4.424 137.037 4.872 136.509 5.64V4.616H134.413V16.328H136.685V12.104ZM136.621 8.808C136.621 7.448 137.421 6.424 138.685 6.424C139.949 6.424 140.749 7.448 140.749 8.808C140.749 10.168 139.949 11.192 138.685 11.192C137.421 11.192 136.621 10.168 136.621 8.808ZM146.199 12.104C146.631 12.68 147.495 13.192 148.679 13.192C151.111 13.192 152.535 11.24 152.535 8.808C152.535 6.376 151.111 4.424 148.679 4.424C147.495 4.424 146.551 4.872 146.023 5.64V4.616H143.927V16.328H146.199V12.104ZM146.135 8.808C146.135 7.448 146.935 6.424 148.199 6.424C149.463 6.424 150.263 7.448 150.263 8.808C150.263 10.168 149.463 11.192 148.199 11.192C146.935 11.192 146.135 10.168 146.135 8.808ZM5.072 65.144C3.6 65.144 2.928 64.328 2.864 63.4H0.56C0.624 65.272 1.792 67.224 4.944 67.224C7.648 67.224 9.44 65.784 9.44 63.752C9.44 59.24 3.296 61.032 3.296 58.76C3.296 58.024 4 57.48 5.104 57.48C6.32 57.48 7.024 58.2 7.072 59.192H9.36C9.296 57.144 7.792 55.4 5.136 55.4C2.512 55.4 0.992 56.984 0.992 58.904C0.992 63.352 7.072 61.592 7.072 63.832C7.072 64.664 6.32 65.144 5.072 65.144ZM13.2857 60.408H14.5177V58.616H13.2857V56.536H11.0137V58.616H9.87766V60.408H11.0137V67H13.2857V60.408ZM18.9396 67.192C21.6276 67.192 23.3396 65.192 23.3396 62.808C23.3396 60.424 21.6276 58.424 18.9396 58.424C16.2516 58.424 14.5396 60.424 14.5396 62.808C14.5396 65.192 16.2516 67.192 18.9396 67.192ZM16.8116 62.808C16.8116 61.304 17.7396 60.424 18.9396 60.424C20.1396 60.424 21.0676 61.304 21.0676 62.808C21.0676 64.312 20.1396 65.192 18.9396 65.192C17.7396 65.192 16.8116 64.312 16.8116 62.808ZM29.1611 58.552C29.1611 58.552 28.9691 58.536 28.8891 58.536C27.4651 58.536 26.8251 59.208 26.5211 59.704V58.616H24.4251V67H26.6971V62.824C26.6971 61.288 27.3851 60.632 28.7131 60.632C28.9211 60.632 29.1611 60.68 29.1611 60.68V58.552ZM37.3719 63.464C37.3719 63.464 37.4039 63.16 37.4039 62.792C37.4039 60.312 35.7239 58.424 33.2439 58.424C30.7639 58.424 29.0359 60.312 29.0359 62.792C29.0359 65.368 30.7799 67.192 33.2599 67.192C35.1959 67.192 36.7319 66.024 37.2279 64.328H34.9399C34.6679 64.936 34.0119 65.24 33.3239 65.24C32.1879 65.24 31.4519 64.616 31.2919 63.464H37.3719ZM33.2279 60.248C34.2839 60.248 34.9719 60.888 35.1319 61.832H31.3239C31.5159 60.872 32.1879 60.248 33.2279 60.248Z" fill="#414A69"/>
</svg>
