<svg width="64" height="10" viewBox="0 0 64 10" fill="none" xmlns="http://www.w3.org/2000/svg">
<path d="M5.929 1.19H0.066V2.455H2.332V9H3.663V2.455H5.929V1.19ZM10.8827 6.525C10.8827 6.525 10.8937 6.327 10.8937 6.118C10.8937 4.446 9.78272 3.159 8.08872 3.159C6.39472 3.159 5.25072 4.479 5.25072 6.14C5.25072 7.845 6.37272 9.132 8.09972 9.132C9.43072 9.132 10.4427 8.329 10.7837 7.196H9.46372C9.25472 7.702 8.73772 8.01 8.13272 8.01C7.21972 8.01 6.63672 7.427 6.53772 6.525H10.8827ZM8.08872 4.226C8.93572 4.226 9.48572 4.765 9.59572 5.557H6.55972C6.69172 4.776 7.24172 4.226 8.08872 4.226ZM14.848 3.247C14.848 3.247 14.716 3.236 14.661 3.236C13.671 3.236 13.187 3.72 12.978 4.083V3.291H11.768V9H13.077V6.03C13.077 4.93 13.627 4.446 14.551 4.446C14.694 4.446 14.848 4.468 14.848 4.468V3.247ZM20.4448 5.722C20.4448 4.798 20.9508 4.281 21.7318 4.281C22.5238 4.281 22.8098 4.842 22.8098 5.579V9H24.1188V5.414C24.1188 4.116 23.4148 3.159 22.0398 3.159C21.1598 3.159 20.5438 3.511 20.1038 4.061C19.7848 3.511 19.2128 3.159 18.3878 3.159C17.4748 3.159 16.9248 3.599 16.6828 4.05V3.291H15.4728V9H16.7818V5.678C16.7818 4.809 17.2768 4.281 18.0578 4.281C18.8388 4.281 19.1358 4.831 19.1358 5.579V9H20.4448V5.722ZM27.2801 9.132C28.8751 9.132 29.6671 8.318 29.6671 7.35C29.6671 5.04 26.3891 6.019 26.3891 4.908C26.3891 4.49 26.7191 4.226 27.3681 4.226C28.0391 4.226 28.3471 4.644 28.3911 5.051H29.6451C29.5901 4.281 29.0401 3.159 27.4011 3.159C25.9931 3.159 25.1351 3.995 25.1351 4.952C25.1351 7.273 28.4131 6.195 28.4131 7.405C28.4131 7.801 28.0391 8.054 27.3571 8.054C26.5541 8.054 26.1581 7.669 26.1251 7.174H24.8601C24.9261 8.219 25.6081 9.132 27.2801 9.132ZM35.6389 9.132C37.4649 9.132 38.6089 7.757 38.6089 6.151C38.6089 4.545 37.4649 3.159 35.6389 3.159C33.8239 3.159 32.6799 4.545 32.6799 6.151C32.6799 7.757 33.8239 9.132 35.6389 9.132ZM33.9889 6.151C33.9889 5.04 34.6929 4.314 35.6389 4.314C36.5959 4.314 37.2999 5.04 37.2999 6.151C37.2999 7.251 36.5959 7.977 35.6389 7.977C34.6929 7.977 33.9889 7.251 33.9889 6.151ZM39.729 3.291H38.816V4.336H39.729V9H41.038V4.336H42.05V3.291H41.038V2.763C41.038 2.136 41.247 1.916 41.775 1.916C41.951 1.916 42.017 1.938 42.017 1.938V0.783C42.017 0.783 41.83 0.749999 41.577 0.749999C40.488 0.749999 39.729 1.344 39.729 2.686V3.291ZM48.5425 9.165C50.3245 9.165 51.7875 8.076 51.7875 5.788V1.19H50.4565V5.843C50.4565 7.086 49.8295 7.933 48.5425 7.933C47.2555 7.933 46.6285 7.086 46.6285 5.843V1.19H45.2975V5.788C45.2975 8.076 46.7495 9.165 48.5425 9.165ZM55.0626 9.132C56.6576 9.132 57.4496 8.318 57.4496 7.35C57.4496 5.04 54.1716 6.019 54.1716 4.908C54.1716 4.49 54.5016 4.226 55.1506 4.226C55.8216 4.226 56.1296 4.644 56.1736 5.051H57.4276C57.3726 4.281 56.8226 3.159 55.1836 3.159C53.7756 3.159 52.9176 3.995 52.9176 4.952C52.9176 7.273 56.1956 6.195 56.1956 7.405C56.1956 7.801 55.8216 8.054 55.1396 8.054C54.3366 8.054 53.9406 7.669 53.9076 7.174H52.6426C52.7086 8.219 53.3906 9.132 55.0626 9.132ZM63.5605 6.525C63.5605 6.525 63.5715 6.327 63.5715 6.118C63.5715 4.446 62.4605 3.159 60.7665 3.159C59.0725 3.159 57.9285 4.479 57.9285 6.14C57.9285 7.845 59.0505 9.132 60.7775 9.132C62.1085 9.132 63.1205 8.329 63.4615 7.196H62.1415C61.9325 7.702 61.4155 8.01 60.8105 8.01C59.8975 8.01 59.3145 7.427 59.2155 6.525H63.5605ZM60.7665 4.226C61.6135 4.226 62.1635 4.765 62.2735 5.557H59.2375C59.3695 4.776 59.9195 4.226 60.7665 4.226Z" fill="#4F5874"/>
</svg>
