<svg width="232" height="54" viewBox="0 0 232 54" fill="none" xmlns="http://www.w3.org/2000/svg">
<g clip-path="url(#clip0)">
<path fill-rule="evenodd" clip-rule="evenodd" d="M230.586 31.4141L226.343 35.6567L224.929 34.2425L228.172 30.9999L203.343 30.9999V28.9999L228.172 28.9999L224.929 25.7572L226.343 24.343L230.586 28.5857L232 29.9999L230.586 31.4141Z" fill="#414A69"/>
<path d="M2.416 34L3.104 32.048H7.776L8.464 34H10.976L6.704 22.64H4.24L-0.032 34H2.416ZM5.456 25.52L7.024 29.952H3.856L5.424 25.52H5.456ZM14.3677 31.264L12.3357 25.616H9.93566L13.2957 34H15.4077L18.7677 25.616H16.4157L14.3677 31.264ZM25.0672 25.616V26.64C24.5392 25.872 23.5952 25.424 22.4112 25.424C19.9792 25.424 18.5552 27.376 18.5552 29.808C18.5552 32.24 19.9792 34.192 22.4112 34.192C23.5952 34.192 24.5392 33.744 25.0672 32.976V34H27.1632V25.616H25.0672ZM24.9552 29.808C24.9552 31.168 24.1552 32.192 22.8912 32.192C21.6272 32.192 20.8272 31.168 20.8272 29.808C20.8272 28.448 21.6272 27.424 22.8912 27.424C24.1552 27.424 24.9552 28.448 24.9552 29.808ZM29.9049 24.528C30.7049 24.528 31.2809 23.968 31.2809 23.168C31.2809 22.368 30.7049 21.792 29.9049 21.792C29.1049 21.792 28.5289 22.368 28.5289 23.168C28.5289 23.968 29.1049 24.528 29.9049 24.528ZM28.7689 34H31.0409V25.616H28.7689V34ZM34.9296 34V22H32.6576V34H34.9296ZM42.5304 25.616V26.64C42.0024 25.872 41.0584 25.424 39.8744 25.424C37.4424 25.424 36.0184 27.376 36.0184 29.808C36.0184 32.24 37.4424 34.192 39.8744 34.192C41.0584 34.192 42.0024 33.744 42.5304 32.976V34H44.6264V25.616H42.5304ZM42.4184 29.808C42.4184 31.168 41.6184 32.192 40.3544 32.192C39.0904 32.192 38.2904 31.168 38.2904 29.808C38.2904 28.448 39.0904 27.424 40.3544 27.424C41.6184 27.424 42.4184 28.448 42.4184 29.808ZM48.5041 26.512V22H46.2321V34H48.3281V32.976C48.8561 33.744 49.8001 34.192 50.9841 34.192C53.4161 34.192 54.8401 32.24 54.8401 29.808C54.8401 27.376 53.4161 25.424 50.9841 25.424C49.8001 25.424 48.9361 25.936 48.5041 26.512ZM48.4401 29.808C48.4401 28.448 49.2401 27.424 50.5041 27.424C51.7681 27.424 52.5681 28.448 52.5681 29.808C52.5681 31.168 51.7681 32.192 50.5041 32.192C49.2401 32.192 48.4401 31.168 48.4401 29.808ZM58.1898 34V22H55.9178V34H58.1898ZM67.6145 30.464C67.6145 30.464 67.6465 30.16 67.6465 29.792C67.6465 27.312 65.9665 25.424 63.4865 25.424C61.0065 25.424 59.2785 27.312 59.2785 29.792C59.2785 32.368 61.0225 34.192 63.5025 34.192C65.4385 34.192 66.9745 33.024 67.4705 31.328H65.1825C64.9105 31.936 64.2545 32.24 63.5665 32.24C62.4305 32.24 61.6945 31.616 61.5345 30.464H67.6145ZM63.4705 27.248C64.5265 27.248 65.2145 27.888 65.3745 28.832H61.5665C61.7585 27.872 62.4305 27.248 63.4705 27.248ZM83.8366 28.32C83.8366 24.912 81.3726 22.4 77.9326 22.4C74.4926 22.4 72.0286 24.912 72.0286 28.32C72.0286 31.728 74.4926 34.24 77.9326 34.24C81.3726 34.24 83.8366 31.728 83.8366 28.32ZM81.3726 28.32C81.3726 30.56 79.9486 32.016 77.9326 32.016C75.9166 32.016 74.4926 30.56 74.4926 28.32C74.4926 26.08 75.9166 24.624 77.9326 24.624C79.9486 24.624 81.3726 26.08 81.3726 28.32ZM87.1783 25.616H85.0823V34H87.3543V29.2C87.3543 28.08 87.9623 27.376 89.0663 27.376C90.0743 27.376 90.4903 28.048 90.4903 29.024V34H92.7623V28.768C92.7623 26.768 91.6903 25.424 89.6743 25.424C88.4263 25.424 87.5623 25.92 87.1783 26.64V25.616ZM100.545 27.408H101.777V25.616H100.545V23.536H98.2729V25.616H97.1369V27.408H98.2729V34H100.545V27.408ZM104.771 22H102.499V34H104.771V29.216C104.771 28.064 105.379 27.376 106.483 27.376C107.491 27.376 107.907 28.048 107.907 29.024V34H110.179V28.768C110.179 26.768 109.107 25.424 107.091 25.424C106.003 25.424 105.203 25.808 104.771 26.384V22ZM119.524 30.464C119.524 30.464 119.556 30.16 119.556 29.792C119.556 27.312 117.876 25.424 115.396 25.424C112.916 25.424 111.188 27.312 111.188 29.792C111.188 32.368 112.932 34.192 115.412 34.192C117.348 34.192 118.884 33.024 119.38 31.328H117.092C116.82 31.936 116.164 32.24 115.476 32.24C114.34 32.24 113.604 31.616 113.444 30.464H119.524ZM115.38 27.248C116.436 27.248 117.124 27.888 117.284 28.832H113.476C113.668 27.872 114.34 27.248 115.38 27.248ZM125.322 34L126.01 32.048H130.682L131.37 34H133.882L129.61 22.64H127.146L122.874 34H125.322ZM128.362 25.52L129.93 29.952H126.762L128.33 25.52H128.362ZM136.685 33.104C137.117 33.68 137.981 34.192 139.165 34.192C141.597 34.192 143.021 32.24 143.021 29.808C143.021 27.376 141.597 25.424 139.165 25.424C137.981 25.424 137.037 25.872 136.509 26.64V25.616H134.413V37.328H136.685V33.104ZM136.621 29.808C136.621 28.448 137.421 27.424 138.685 27.424C139.949 27.424 140.749 28.448 140.749 29.808C140.749 31.168 139.949 32.192 138.685 32.192C137.421 32.192 136.621 31.168 136.621 29.808ZM146.199 33.104C146.631 33.68 147.495 34.192 148.679 34.192C151.111 34.192 152.535 32.24 152.535 29.808C152.535 27.376 151.111 25.424 148.679 25.424C147.495 25.424 146.551 25.872 146.023 26.64V25.616H143.927V37.328H146.199V33.104ZM146.135 29.808C146.135 28.448 146.935 27.424 148.199 27.424C149.463 27.424 150.263 28.448 150.263 29.808C150.263 31.168 149.463 32.192 148.199 32.192C146.935 32.192 146.135 31.168 146.135 29.808ZM5.072 86.144C3.6 86.144 2.928 85.328 2.864 84.4H0.56C0.624 86.272 1.792 88.224 4.944 88.224C7.648 88.224 9.44 86.784 9.44 84.752C9.44 80.24 3.296 82.032 3.296 79.76C3.296 79.024 4 78.48 5.104 78.48C6.32 78.48 7.024 79.2 7.072 80.192H9.36C9.296 78.144 7.792 76.4 5.136 76.4C2.512 76.4 0.992 77.984 0.992 79.904C0.992 84.352 7.072 82.592 7.072 84.832C7.072 85.664 6.32 86.144 5.072 86.144ZM13.2857 81.408H14.5177V79.616H13.2857V77.536H11.0137V79.616H9.87766V81.408H11.0137V88H13.2857V81.408ZM18.9396 88.192C21.6276 88.192 23.3396 86.192 23.3396 83.808C23.3396 81.424 21.6276 79.424 18.9396 79.424C16.2516 79.424 14.5396 81.424 14.5396 83.808C14.5396 86.192 16.2516 88.192 18.9396 88.192ZM16.8116 83.808C16.8116 82.304 17.7396 81.424 18.9396 81.424C20.1396 81.424 21.0676 82.304 21.0676 83.808C21.0676 85.312 20.1396 86.192 18.9396 86.192C17.7396 86.192 16.8116 85.312 16.8116 83.808ZM29.1611 79.552C29.1611 79.552 28.9691 79.536 28.8891 79.536C27.4651 79.536 26.8251 80.208 26.5211 80.704V79.616H24.4251V88H26.6971V83.824C26.6971 82.288 27.3851 81.632 28.7131 81.632C28.9211 81.632 29.1611 81.68 29.1611 81.68V79.552ZM37.3719 84.464C37.3719 84.464 37.4039 84.16 37.4039 83.792C37.4039 81.312 35.7239 79.424 33.2439 79.424C30.7639 79.424 29.0359 81.312 29.0359 83.792C29.0359 86.368 30.7799 88.192 33.2599 88.192C35.1959 88.192 36.7319 87.024 37.2279 85.328H34.9399C34.6679 85.936 34.0119 86.24 33.3239 86.24C32.1879 86.24 31.4519 85.616 31.2919 84.464H37.3719ZM33.2279 81.248C34.2839 81.248 34.9719 81.888 35.1319 82.832H31.3239C31.5159 81.872 32.1879 81.248 33.2279 81.248Z" fill="#414A69"/>
</g>
<defs>
<clipPath id="clip0">
<rect width="232" height="54" fill="white"/>
</clipPath>
</defs>
</svg>
