<svg width="761" height="242" viewBox="0 0 761 242" fill="none" xmlns="http://www.w3.org/2000/svg">
<path d="M1.945 0.499993H26.305C34.2317 0.499993 40.1767 2.62666 44.14 6.88C48.1033 11.1333 50.085 17.3683 50.085 25.585V76.915C50.085 85.1317 48.1033 91.3667 44.14 95.62C40.1767 99.8733 34.2317 102 26.305 102H1.945V0.499993ZM26.015 87.5C28.625 87.5 30.6067 86.7267 31.96 85.18C33.41 83.6333 34.135 81.12 34.135 77.64V24.86C34.135 21.38 33.41 18.8667 31.96 17.32C30.6067 15.7733 28.625 15 26.015 15H17.895V87.5H26.015ZM56.7481 0.499993H80.3831C88.5997 0.499993 94.5931 2.43333 98.3631 6.3C102.133 10.07 104.018 15.9183 104.018 23.845V30.08C104.018 40.6167 100.538 47.2867 93.5781 50.09V50.38C97.4447 51.54 100.151 53.9083 101.698 57.485C103.341 61.0617 104.163 65.8467 104.163 71.84V89.675C104.163 92.575 104.26 94.9433 104.453 96.78C104.646 98.52 105.13 100.26 105.903 102H89.6631C89.0831 100.357 88.6964 98.81 88.5031 97.36C88.3097 95.91 88.2131 93.3 88.2131 89.53V70.97C88.2131 66.33 87.4397 63.0917 85.8931 61.255C84.4431 59.4183 81.8814 58.5 78.2081 58.5H72.6981V102H56.7481V0.499993ZM78.4981 44C81.6881 44 84.0564 43.1783 85.6031 41.535C87.2464 39.8917 88.0681 37.1367 88.0681 33.27V25.44C88.0681 21.7667 87.3914 19.1083 86.0381 17.465C84.7814 15.8217 82.7514 15 79.9481 15H72.6981V44H78.4981ZM111.126 0.499993H127.076V102H111.126V0.499993ZM130.714 0.499993H146.809L157.249 79.235H157.539L167.979 0.499993H182.624L167.254 102H146.084L130.714 0.499993ZM186.182 0.499993H229.682V15H202.132V41.825H224.027V56.325H202.132V87.5H229.682V102H186.182V0.499993ZM266.199 0.499993H287.804L304.334 102H288.384L285.484 81.845V82.135H267.359L264.459 102H249.669L266.199 0.499993ZM283.599 68.36L276.494 18.19H276.204L269.244 68.36H283.599ZM327.088 0.499993H347.098L362.613 61.255H362.903V0.499993H377.113V102H360.728L341.588 27.905H341.298V102H327.088V0.499993ZM384.865 0.499993H428.365V15H400.815V41.825H422.71V56.325H400.815V87.5H428.365V102H384.865V0.499993ZM429.667 0.499993H445.037L452.142 78.51H452.432L459.972 0.499993H477.372L484.912 78.51H485.202L492.307 0.499993H506.083L495.787 102H475.922L468.672 33.56H468.382L461.132 102H439.962L429.667 0.499993ZM24.42 241.45C16.7833 241.45 10.935 239.275 6.875 234.925C2.91167 230.575 0.93 224.437 0.93 216.51V161.99C0.93 154.063 2.91167 147.925 6.875 143.575C10.935 139.225 16.7833 137.05 24.42 137.05C32.0567 137.05 37.8567 139.225 41.82 143.575C45.88 147.925 47.91 154.063 47.91 161.99V172.72H32.83V160.975C32.83 154.692 30.1717 151.55 24.855 151.55C19.5383 151.55 16.88 154.692 16.88 160.975V217.67C16.88 223.857 19.5383 226.95 24.855 226.95C30.1717 226.95 32.83 223.857 32.83 217.67V202.155H47.91V216.51C47.91 224.437 45.88 230.575 41.82 234.925C37.8567 239.275 32.0567 241.45 24.42 241.45ZM65.6746 138.5H87.2796L103.81 240H87.8596L84.9596 219.845V220.135H66.8346L63.9346 240H49.1446L65.6746 138.5ZM83.0746 206.36L75.9696 156.19H75.6796L68.7196 206.36H83.0746ZM107.445 138.5H131.08C139.296 138.5 145.29 140.433 149.06 144.3C152.83 148.07 154.715 153.918 154.715 161.845V168.08C154.715 178.617 151.235 185.287 144.275 188.09V188.38C148.141 189.54 150.848 191.908 152.395 195.485C154.038 199.062 154.86 203.847 154.86 209.84V227.675C154.86 230.575 154.956 232.943 155.15 234.78C155.343 236.52 155.826 238.26 156.6 240H140.36C139.78 238.357 139.393 236.81 139.2 235.36C139.006 233.91 138.91 231.3 138.91 227.53V208.97C138.91 204.33 138.136 201.092 136.59 199.255C135.14 197.418 132.578 196.5 128.905 196.5H123.395V240H107.445V138.5ZM129.195 182C132.385 182 134.753 181.178 136.3 179.535C137.943 177.892 138.765 175.137 138.765 171.27V163.44C138.765 159.767 138.088 157.108 136.735 155.465C135.478 153.822 133.448 153 130.645 153H123.395V182H129.195ZM180.942 138.5H224.442V153H196.892V179.825H218.787V194.325H196.892V225.5H224.442V240H180.942V138.5ZM225.31 138.5H241.405L251.845 217.235H252.135L262.575 138.5H277.22L261.85 240H240.68L225.31 138.5ZM280.778 138.5H324.278V153H296.728V179.825H318.623V194.325H296.728V225.5H324.278V240H280.778V138.5ZM329.351 138.5H352.986C361.202 138.5 367.196 140.433 370.966 144.3C374.736 148.07 376.621 153.918 376.621 161.845V168.08C376.621 178.617 373.141 185.287 366.181 188.09V188.38C370.047 189.54 372.754 191.908 374.301 195.485C375.944 199.062 376.766 203.847 376.766 209.84V227.675C376.766 230.575 376.862 232.943 377.056 234.78C377.249 236.52 377.732 238.26 378.506 240H362.266C361.686 238.357 361.299 236.81 361.106 235.36C360.912 233.91 360.816 231.3 360.816 227.53V208.97C360.816 204.33 360.042 201.092 358.496 199.255C357.046 197.418 354.484 196.5 350.811 196.5H345.301V240H329.351V138.5ZM351.101 182C354.291 182 356.659 181.178 358.206 179.535C359.849 177.892 360.671 175.137 360.671 171.27V163.44C360.671 159.767 359.994 157.108 358.641 155.465C357.384 153.822 355.354 153 352.551 153H345.301V182H351.101ZM396.108 196.79L376.823 138.5H393.788L404.663 175.765H404.953L415.828 138.5H431.343L412.058 196.79V240H396.108V196.79ZM453.545 138.5H476.31L486.46 211.145H486.75L496.9 138.5H519.665V240H504.585V163.15H504.295L492.695 240H479.355L467.755 163.15H467.465V240H453.545V138.5ZM550.519 241.45C542.689 241.45 536.696 239.227 532.539 234.78C528.383 230.333 526.304 224.05 526.304 215.93V162.57C526.304 154.45 528.383 148.167 532.539 143.72C536.696 139.273 542.689 137.05 550.519 137.05C558.349 137.05 564.343 139.273 568.499 143.72C572.656 148.167 574.734 154.45 574.734 162.57V215.93C574.734 224.05 572.656 230.333 568.499 234.78C564.343 239.227 558.349 241.45 550.519 241.45ZM550.519 226.95C556.029 226.95 558.784 223.615 558.784 216.945V161.555C558.784 154.885 556.029 151.55 550.519 151.55C545.009 151.55 542.254 154.885 542.254 161.555V216.945C542.254 223.615 545.009 226.95 550.519 226.95ZM581.418 138.5H601.428L616.943 199.255H617.233V138.5H631.443V240H615.058L595.918 165.905H595.628V240H581.418V138.5ZM651.664 153H634.989V138.5H684.289V153H667.614V240H651.664V153ZM687.909 138.5H703.859V179.825H720.969V138.5H736.919V240H720.969V194.325H703.859V240H687.909V138.5ZM744.694 224.63H760.064V240H744.694V224.63Z" fill="white"/>
</svg>
