<svg width="264" height="26" viewBox="0 0 264 26" fill="none" xmlns="http://www.w3.org/2000/svg">
<path d="M10.832 1.2H16.034V25H12.498V7.932L9.914 25H6.378L3.59 8.17V25H0.326V1.2H5.528L8.282 18.098L10.832 1.2ZM26.9205 25L26.2745 20.682H21.6845L21.0385 25H17.6045L21.4125 1.2H26.8865L30.6945 25H26.9205ZM25.7645 17.452L23.9625 5.416L22.1605 17.452H25.7645ZM36.0122 1.2V25H32.2722V1.2H36.0122ZM41.9148 25H38.5488V1.2H43.2408L47.0828 15.446V1.2H50.4148V25H46.5728L41.9148 7.762V25ZM63.4006 1.2V4.6H59.4906V25H55.7506V4.6H51.8406V1.2H63.4006ZM73.7578 11.23V14.63H68.6238V21.6H75.0838V25H64.8838V1.2H75.0838V4.6H68.6238V11.23H73.7578ZM80.5693 25H77.2033V1.2H81.8953L85.7373 15.446V1.2H89.0693V25H85.2273L80.5693 7.762V25ZM99.9131 25L99.2671 20.682H94.6771L94.0311 25H90.5971L94.4051 1.2H99.8791L103.687 25H99.9131ZM98.7571 17.452L96.9551 5.416L95.1531 17.452H98.7571ZM108.597 25H105.231V1.2H109.923L113.765 15.446V1.2H117.097V25H113.255L108.597 7.762V25ZM130.457 19.288C130.457 21.2147 129.981 22.6993 129.029 23.742C128.077 24.762 126.694 25.272 124.881 25.272C123.067 25.272 121.685 24.762 120.733 23.742C119.781 22.6993 119.305 21.2147 119.305 19.288V6.912C119.305 4.98533 119.781 3.512 120.733 2.492C121.685 1.44933 123.067 0.928 124.881 0.928C126.694 0.928 128.077 1.44933 129.029 2.492C129.981 3.512 130.457 4.98533 130.457 6.912V9.224H126.921V6.674C126.921 5.11 126.275 4.328 124.983 4.328C123.691 4.328 123.045 5.11 123.045 6.674V19.526C123.045 21.0673 123.691 21.838 124.983 21.838C126.275 21.838 126.921 21.0673 126.921 19.526V16.126H130.457V19.288ZM141.436 11.23V14.63H136.302V21.6H142.762V25H132.562V1.2H142.762V4.6H136.302V11.23H141.436ZM153.771 1.2V25H150.031V1.2H153.771ZM155.865 6.912C155.865 4.98533 156.33 3.512 157.259 2.492C158.189 1.44933 159.56 0.928 161.373 0.928C163.187 0.928 164.558 1.44933 165.487 2.492C166.417 3.512 166.881 4.98533 166.881 6.912V7.66H163.345V6.674C163.345 5.858 163.187 5.26867 162.869 4.906C162.552 4.52067 162.087 4.328 161.475 4.328C160.863 4.328 160.399 4.52067 160.081 4.906C159.764 5.26867 159.605 5.858 159.605 6.674C159.605 7.67133 159.866 8.544 160.387 9.292C160.931 10.04 161.736 10.89 162.801 11.842C163.685 12.658 164.399 13.3833 164.943 14.018C165.487 14.63 165.952 15.378 166.337 16.262C166.723 17.146 166.915 18.1547 166.915 19.288C166.915 21.2147 166.439 22.6993 165.487 23.742C164.535 24.762 163.153 25.272 161.339 25.272C159.526 25.272 158.143 24.762 157.191 23.742C156.239 22.6993 155.763 21.2147 155.763 19.288V17.826H159.299V19.526C159.299 21.0673 159.945 21.838 161.237 21.838C162.529 21.838 163.175 21.0673 163.175 19.526C163.175 18.5287 162.903 17.656 162.359 16.908C161.838 16.16 161.045 15.31 159.979 14.358C159.095 13.542 158.381 12.828 157.837 12.216C157.293 11.5813 156.829 10.822 156.443 9.938C156.058 9.054 155.865 8.04533 155.865 6.912ZM184.855 19.288C184.855 21.2147 184.379 22.6993 183.427 23.742C182.475 24.762 181.093 25.272 179.279 25.272C177.466 25.272 176.083 24.762 175.131 23.742C174.179 22.6993 173.703 21.2147 173.703 19.288V6.912C173.703 4.98533 174.179 3.512 175.131 2.492C176.083 1.44933 177.466 0.928 179.279 0.928C181.093 0.928 182.475 1.44933 183.427 2.492C184.379 3.512 184.855 4.98533 184.855 6.912V9.224H181.319V6.674C181.319 5.11 180.673 4.328 179.381 4.328C178.089 4.328 177.443 5.11 177.443 6.674V19.526C177.443 21.0673 178.089 21.838 179.381 21.838C180.673 21.838 181.319 21.0673 181.319 19.526V16.126H184.855V19.288ZM186.655 6.912C186.655 5.008 187.142 3.53466 188.117 2.492C189.091 1.44933 190.497 0.928 192.333 0.928C194.169 0.928 195.574 1.44933 196.549 2.492C197.523 3.53466 198.011 5.008 198.011 6.912V19.288C198.011 21.192 197.523 22.6653 196.549 23.708C195.574 24.7507 194.169 25.272 192.333 25.272C190.497 25.272 189.091 24.7507 188.117 23.708C187.142 22.6653 186.655 21.192 186.655 19.288V6.912ZM190.395 19.526C190.395 21.09 191.041 21.872 192.333 21.872C193.625 21.872 194.271 21.09 194.271 19.526V6.674C194.271 5.11 193.625 4.328 192.333 4.328C191.041 4.328 190.395 5.11 190.395 6.674V19.526ZM208.744 1.2H212.178L208.506 25H202.93L199.258 1.2H203.032L205.888 20.614L208.744 1.2ZM222.634 11.23V14.63H217.5V21.6H223.96V25H213.76V1.2H223.96V4.6H217.5V11.23H222.634ZM233.933 25C233.797 24.6147 233.706 24.252 233.661 23.912C233.616 23.572 233.593 22.96 233.593 22.076V18.336C233.593 17.248 233.4 16.4773 233.015 16.024C232.63 15.548 232.006 15.31 231.145 15.31H229.853V25H226.113V1.2H231.757C233.684 1.2 235.089 1.65333 235.973 2.56C236.857 3.444 237.299 4.81533 237.299 6.674V8.544C237.299 10.992 236.483 12.6013 234.851 13.372C235.735 13.7347 236.37 14.3467 236.755 15.208C237.14 16.0467 237.333 17.1233 237.333 18.438V22.11C237.333 22.79 237.356 23.3453 237.401 23.776C237.446 24.184 237.56 24.592 237.741 25H233.933ZM229.853 11.91H231.315C232.063 11.91 232.618 11.7173 232.981 11.332C233.366 10.9467 233.559 10.3007 233.559 9.394V7.048C233.559 6.18667 233.4 5.56333 233.083 5.178C232.788 4.79267 232.312 4.6 231.655 4.6H229.853V11.91ZM248.503 11.23V14.63H243.369V21.6H249.829V25H239.629V1.2H249.829V4.6H243.369V11.23H248.503ZM257.898 1.2C259.757 1.2 261.151 1.69867 262.08 2.696C263.01 3.69333 263.474 5.15533 263.474 7.082V19.118C263.474 21.0447 263.01 22.5067 262.08 23.504C261.151 24.5013 259.757 25 257.898 25H251.982V1.2H257.898ZM255.722 21.6H257.83C258.442 21.6 258.907 21.4187 259.224 21.056C259.564 20.6933 259.734 20.104 259.734 19.288V6.912C259.734 6.096 259.564 5.50667 259.224 5.144C258.907 4.78133 258.442 4.6 257.83 4.6H255.722V21.6Z" fill="#2B3144"/>
</svg>
