<svg width="316" height="118" viewBox="0 0 316 118" fill="none" xmlns="http://www.w3.org/2000/svg">
<path d="M7.504 82.06H0.126V83.04H3.304V92H4.326V83.04H7.504V82.06ZM9.42914 81.5H8.43514V92H9.42914V87.786C9.42914 86.33 10.3671 85.574 11.5711 85.574C12.8451 85.574 13.4471 86.358 13.4471 87.646V92H14.4411V87.45C14.4411 85.868 13.5031 84.706 11.7391 84.706C10.4091 84.706 9.68114 85.434 9.42914 85.868V81.5ZM22.8726 84.874H21.9206V86.19C21.4306 85.28 20.5206 84.706 19.2186 84.706C17.0346 84.706 15.8586 86.484 15.8586 88.444C15.8586 90.404 17.0346 92.168 19.2186 92.168C20.5206 92.168 21.4306 91.594 21.9206 90.684V92H22.8726V84.874ZM16.8666 88.444C16.8666 86.89 17.8186 85.602 19.4146 85.602C21.0106 85.602 21.9206 86.89 21.9206 88.444C21.9206 89.998 21.0106 91.272 19.4146 91.272C17.8186 91.272 16.8666 89.998 16.8666 88.444ZM26.1945 85.714H27.6505V84.874H26.1945V82.844H25.2005V84.874H23.8425V85.714H25.2005V92H26.1945V85.714ZM28.625 82.06L27.953 84.846H28.807L29.759 82.06H28.625ZM33.447 92.168C35.379 92.168 36.289 91.146 36.289 90.068C36.289 87.072 31.879 88.738 31.879 86.764C31.879 86.12 32.425 85.574 33.531 85.574C34.665 85.574 35.197 86.19 35.281 86.96H36.275C36.191 85.994 35.533 84.706 33.559 84.706C31.865 84.706 30.913 85.714 30.913 86.806C30.913 89.732 35.323 88.052 35.323 90.096C35.323 90.81 34.651 91.3 33.447 91.3C32.215 91.3 31.599 90.684 31.529 89.774H30.521C30.605 91.02 31.389 92.168 33.447 92.168ZM44.5049 84.818C44.5049 84.818 44.3369 84.804 44.2669 84.804C42.9509 84.804 42.2509 85.49 41.9849 85.98V84.874H41.0329V92H42.0269V87.954C42.0269 86.47 42.9369 85.742 44.1549 85.742C44.3369 85.742 44.5049 85.756 44.5049 85.756V84.818ZM46.0333 83.11C46.4393 83.11 46.7473 82.83 46.7473 82.424C46.7473 82.004 46.4393 81.71 46.0333 81.71C45.6133 81.71 45.3193 82.004 45.3193 82.424C45.3193 82.83 45.6133 83.11 46.0333 83.11ZM45.5293 92H46.5233V84.874H45.5293V92ZM54.0789 86.176C53.5749 85.28 52.6789 84.706 51.3909 84.706C49.2489 84.706 48.0309 86.428 48.0309 88.346C48.0309 90.264 49.2489 91.986 51.3909 91.986C52.6789 91.986 53.5469 91.398 54.0369 90.544V91.874C54.0369 93.204 53.1829 94.17 51.7269 94.17C50.5649 94.17 49.7529 93.624 49.4729 92.798H48.4509C48.6889 93.876 49.6829 95.066 51.6989 95.066C53.9389 95.066 55.0309 93.568 55.0309 91.65V84.874H54.0789V86.176ZM54.0789 88.346C54.0789 89.886 53.1409 91.104 51.5729 91.104C50.0189 91.104 49.0389 89.886 49.0389 88.346C49.0389 86.806 50.0189 85.602 51.5729 85.602C53.1409 85.602 54.0789 86.806 54.0789 88.346ZM57.9908 81.5H56.9968V92H57.9908V87.786C57.9908 86.33 58.9288 85.574 60.1328 85.574C61.4068 85.574 62.0088 86.358 62.0088 87.646V92H63.0028V87.45C63.0028 85.868 62.0648 84.706 60.3008 84.706C58.9708 84.706 58.2428 85.434 57.9908 85.868V81.5ZM66.2403 85.714H67.6963V84.874H66.2403V82.844H65.2463V84.874H63.8883V85.714H65.2463V92H66.2403V85.714ZM68.5027 90.684L67.7747 93.526H68.6567L69.6787 90.684H68.5027ZM75.2194 94.912H76.2274L80.4554 84.874H79.4054L76.9554 90.852L74.5334 84.874H73.4554L76.4374 92L75.2194 94.912ZM84.3367 92.168C86.5907 92.168 87.9767 90.404 87.9767 88.444C87.9767 86.484 86.5907 84.706 84.3367 84.706C82.0967 84.706 80.7107 86.484 80.7107 88.444C80.7107 90.404 82.0967 92.168 84.3367 92.168ZM81.7187 88.444C81.7187 86.834 82.7547 85.602 84.3367 85.602C85.9327 85.602 86.9687 86.834 86.9687 88.444C86.9687 90.04 85.9327 91.272 84.3367 91.272C82.7547 91.272 81.7187 90.04 81.7187 88.444ZM92.3556 92.168C94.3716 92.168 95.3096 90.88 95.3096 89.298V84.874H94.3156V89.228C94.3156 90.516 93.6296 91.3 92.3556 91.3C91.0816 91.3 90.3956 90.516 90.3956 89.228V84.874H89.4016V89.298C89.4016 90.88 90.3396 92.168 92.3556 92.168ZM97.3189 82.06L96.6469 84.846H97.5009L98.4529 82.06H97.3189ZM103.331 84.818C103.331 84.818 103.163 84.804 103.093 84.804C101.777 84.804 101.077 85.49 100.811 85.98V84.874H99.859V92H100.853V87.954C100.853 86.47 101.763 85.742 102.981 85.742C103.163 85.742 103.331 85.756 103.331 85.756V84.818ZM110.425 88.724C110.425 88.724 110.439 88.5 110.439 88.346C110.439 86.33 109.137 84.706 107.009 84.706C104.867 84.706 103.509 86.456 103.509 88.43C103.509 90.432 104.769 92.168 107.023 92.168C108.717 92.168 109.893 91.132 110.313 89.774H109.277C108.969 90.642 108.129 91.272 107.037 91.272C105.539 91.272 104.601 90.166 104.503 88.724H110.425ZM107.009 85.602C108.409 85.602 109.319 86.54 109.445 87.912H104.531C104.699 86.596 105.623 85.602 107.009 85.602ZM114.621 88.444C114.621 90.39 115.965 92.168 118.135 92.168C120.067 92.168 121.187 90.88 121.467 89.466H120.459C120.165 90.572 119.353 91.272 118.135 91.272C116.637 91.272 115.629 90.082 115.629 88.444C115.629 86.792 116.637 85.602 118.135 85.602C119.353 85.602 120.165 86.302 120.459 87.408H121.467C121.187 85.994 120.067 84.706 118.135 84.706C115.965 84.706 114.621 86.484 114.621 88.444ZM125.833 92.168C128.087 92.168 129.473 90.404 129.473 88.444C129.473 86.484 128.087 84.706 125.833 84.706C123.593 84.706 122.207 86.484 122.207 88.444C122.207 90.404 123.593 92.168 125.833 92.168ZM123.215 88.444C123.215 86.834 124.251 85.602 125.833 85.602C127.429 85.602 128.465 86.834 128.465 88.444C128.465 90.04 127.429 91.272 125.833 91.272C124.251 91.272 123.215 90.04 123.215 88.444ZM133.228 90.852L130.806 84.874H129.728L132.71 92H133.718L136.728 84.874H135.692L133.228 90.852ZM143.831 88.724C143.831 88.724 143.845 88.5 143.845 88.346C143.845 86.33 142.543 84.706 140.415 84.706C138.273 84.706 136.915 86.456 136.915 88.43C136.915 90.432 138.175 92.168 140.429 92.168C142.123 92.168 143.299 91.132 143.719 89.774H142.683C142.375 90.642 141.535 91.272 140.443 91.272C138.945 91.272 138.007 90.166 137.909 88.724H143.831ZM140.415 85.602C141.815 85.602 142.725 86.54 142.851 87.912H137.937C138.105 86.596 139.029 85.602 140.415 85.602ZM148.806 84.818C148.806 84.818 148.638 84.804 148.568 84.804C147.252 84.804 146.552 85.49 146.286 85.98V84.874H145.334V92H146.328V87.954C146.328 86.47 147.238 85.742 148.456 85.742C148.638 85.742 148.806 85.756 148.806 85.756V84.818ZM155.9 88.724C155.9 88.724 155.914 88.5 155.914 88.346C155.914 86.33 154.612 84.706 152.484 84.706C150.342 84.706 148.984 86.456 148.984 88.43C148.984 90.432 150.244 92.168 152.498 92.168C154.192 92.168 155.368 91.132 155.788 89.774H154.752C154.444 90.642 153.604 91.272 152.512 91.272C151.014 91.272 150.076 90.166 149.978 88.724H155.9ZM152.484 85.602C153.884 85.602 154.794 86.54 154.92 87.912H150.006C150.174 86.596 151.098 85.602 152.484 85.602ZM162.891 86.162C162.415 85.308 161.533 84.706 160.231 84.706C158.047 84.706 156.871 86.47 156.871 88.444C156.871 90.404 158.047 92.168 160.231 92.168C161.533 92.168 162.443 91.594 162.933 90.684V92H163.885V81.5H162.891V86.162ZM162.933 88.444C162.933 89.998 162.023 91.272 160.427 91.272C158.831 91.272 157.879 89.998 157.879 88.444C157.879 86.862 158.831 85.602 160.427 85.602C162.023 85.602 162.933 86.862 162.933 88.444ZM166.213 92.112C166.647 92.112 166.983 91.804 166.983 91.356C166.983 90.922 166.647 90.6 166.213 90.6C165.765 90.6 165.443 90.922 165.443 91.356C165.443 91.804 165.765 92.112 166.213 92.112ZM174.594 92L175.546 89.676H180.726L181.664 92H182.798L178.696 82.06H177.59L173.502 92H174.594ZM178.15 83.306L180.348 88.724H175.91L178.122 83.306H178.15ZM184.653 92V81.5H183.659V92H184.653ZM187.686 92V81.5H186.692V92H187.686ZM199.825 91.034H194.169V87.436H199.531V86.47H194.169V83.026H199.825V82.06H193.147V92H199.825V91.034ZM202.433 92V81.5H201.439V92H202.433ZM210.857 88.724C210.857 88.724 210.871 88.5 210.871 88.346C210.871 86.33 209.569 84.706 207.441 84.706C205.299 84.706 203.941 86.456 203.941 88.43C203.941 90.432 205.201 92.168 207.455 92.168C209.149 92.168 210.325 91.132 210.745 89.774H209.709C209.401 90.642 208.561 91.272 207.469 91.272C205.971 91.272 205.033 90.166 204.935 88.724H210.857ZM207.441 85.602C208.841 85.602 209.751 86.54 209.877 87.912H204.963C205.131 86.596 206.055 85.602 207.441 85.602ZM218.842 84.874H217.89V86.19C217.4 85.28 216.49 84.706 215.188 84.706C213.004 84.706 211.828 86.484 211.828 88.444C211.828 90.404 213.004 92.168 215.188 92.168C216.49 92.168 217.4 91.594 217.89 90.684V92H218.842V84.874ZM212.836 88.444C212.836 86.89 213.788 85.602 215.384 85.602C216.98 85.602 217.89 86.89 217.89 88.444C217.89 89.998 216.98 91.272 215.384 91.272C213.788 91.272 212.836 89.998 212.836 88.444ZM221.828 84.874H220.876V92H221.87V87.758C221.87 86.33 222.808 85.574 224.012 85.574C225.286 85.574 225.888 86.358 225.888 87.646V92H226.882V87.45C226.882 85.868 225.944 84.706 224.18 84.706C222.794 84.706 222.08 85.504 221.828 85.966V84.874ZM231.925 92.168C234.179 92.168 235.565 90.404 235.565 88.444C235.565 86.484 234.179 84.706 231.925 84.706C229.685 84.706 228.299 86.484 228.299 88.444C228.299 90.404 229.685 92.168 231.925 92.168ZM229.307 88.444C229.307 86.834 230.343 85.602 231.925 85.602C233.521 85.602 234.557 86.834 234.557 88.444C234.557 90.04 233.521 91.272 231.925 91.272C230.343 91.272 229.307 90.04 229.307 88.444ZM240.532 84.818C240.532 84.818 240.364 84.804 240.294 84.804C238.978 84.804 238.278 85.49 238.012 85.98V84.874H237.06V92H238.054V87.954C238.054 86.47 238.964 85.742 240.182 85.742C240.364 85.742 240.532 85.756 240.532 85.756V84.818ZM245.776 90.712C246.252 91.58 247.148 92.168 248.436 92.168C250.634 92.168 251.81 90.404 251.81 88.444C251.81 86.47 250.634 84.706 248.436 84.706C247.148 84.706 246.238 85.294 245.734 86.19V84.874H244.782V94.912H245.776V90.712ZM245.748 88.444C245.748 86.862 246.658 85.602 248.254 85.602C249.85 85.602 250.802 86.862 250.802 88.444C250.802 89.998 249.85 91.272 248.254 91.272C246.658 91.272 245.748 89.998 245.748 88.444ZM254.292 92V81.5H253.298V92H254.292ZM262.813 84.874H261.861V86.19C261.371 85.28 260.461 84.706 259.159 84.706C256.975 84.706 255.799 86.484 255.799 88.444C255.799 90.404 256.975 92.168 259.159 92.168C260.461 92.168 261.371 91.594 261.861 90.684V92H262.813V84.874ZM256.807 88.444C256.807 86.89 257.759 85.602 259.355 85.602C260.951 85.602 261.861 86.89 261.861 88.444C261.861 89.998 260.951 91.272 259.355 91.272C257.759 91.272 256.807 89.998 256.807 88.444ZM265.799 84.874H264.847V92H265.841V87.758C265.841 86.33 266.779 85.574 267.983 85.574C269.257 85.574 269.859 86.358 269.859 87.646V92H270.853V87.45C270.853 85.868 269.915 84.706 268.151 84.706C266.765 84.706 266.051 85.504 265.799 85.966V84.874ZM275.085 92.168C277.017 92.168 277.927 91.146 277.927 90.068C277.927 87.072 273.517 88.738 273.517 86.764C273.517 86.12 274.063 85.574 275.169 85.574C276.303 85.574 276.835 86.19 276.919 86.96H277.913C277.829 85.994 277.171 84.706 275.197 84.706C273.503 84.706 272.551 85.714 272.551 86.806C272.551 89.732 276.961 88.052 276.961 90.096C276.961 90.81 276.289 91.3 275.085 91.3C273.853 91.3 273.237 90.684 273.167 89.774H272.159C272.243 91.02 273.027 92.168 275.085 92.168ZM1.722 104.11C2.128 104.11 2.436 103.83 2.436 103.424C2.436 103.004 2.128 102.71 1.722 102.71C1.302 102.71 1.008 103.004 1.008 103.424C1.008 103.83 1.302 104.11 1.722 104.11ZM1.218 113H2.212V105.874H1.218V113ZM5.20355 105.874H4.25155V113H5.24555V108.758C5.24555 107.33 6.18355 106.574 7.38755 106.574C8.66155 106.574 9.26355 107.358 9.26355 108.646V113H10.2575V108.45C10.2575 106.868 9.31955 105.706 7.55555 105.706C6.16955 105.706 5.45555 106.504 5.20355 106.966V105.874ZM11.675 109.444C11.675 111.39 13.019 113.168 15.189 113.168C17.121 113.168 18.241 111.88 18.521 110.466H17.513C17.219 111.572 16.407 112.272 15.189 112.272C13.691 112.272 12.683 111.082 12.683 109.444C12.683 107.792 13.691 106.602 15.189 106.602C16.407 106.602 17.219 107.302 17.513 108.408H18.521C18.241 106.994 17.121 105.706 15.189 105.706C13.019 105.706 11.675 107.484 11.675 109.444ZM20.8693 113V102.5H19.8753V113H20.8693ZM25.7928 113.168C27.8088 113.168 28.7468 111.88 28.7468 110.298V105.874H27.7528V110.228C27.7528 111.516 27.0668 112.3 25.7928 112.3C24.5188 112.3 23.8328 111.516 23.8328 110.228V105.874H22.8388V110.298C22.8388 111.88 23.7768 113.168 25.7928 113.168ZM36.1882 107.162C35.7122 106.308 34.8302 105.706 33.5282 105.706C31.3442 105.706 30.1682 107.47 30.1682 109.444C30.1682 111.404 31.3442 113.168 33.5282 113.168C34.8302 113.168 35.7402 112.594 36.2302 111.684V113H37.1822V102.5H36.1882V107.162ZM36.2302 109.444C36.2302 110.998 35.3202 112.272 33.7242 112.272C32.1282 112.272 31.1762 110.998 31.1762 109.444C31.1762 107.862 32.1282 106.602 33.7242 106.602C35.3202 106.602 36.2302 107.862 36.2302 109.444ZM45.6002 109.724C45.6002 109.724 45.6142 109.5 45.6142 109.346C45.6142 107.33 44.3122 105.706 42.1842 105.706C40.0422 105.706 38.6842 107.456 38.6842 109.43C38.6842 111.432 39.9442 113.168 42.1982 113.168C43.8922 113.168 45.0682 112.132 45.4882 110.774H44.4522C44.1442 111.642 43.3042 112.272 42.2122 112.272C40.7142 112.272 39.7762 111.166 39.6782 109.724H45.6002ZM42.1842 106.602C43.5842 106.602 44.4942 107.54 44.6202 108.912H39.7062C39.8742 107.596 40.7982 106.602 42.1842 106.602ZM50.8322 104.11C51.2382 104.11 51.5462 103.83 51.5462 103.424C51.5462 103.004 51.2382 102.71 50.8322 102.71C50.4122 102.71 50.1182 103.004 50.1182 103.424C50.1182 103.83 50.4122 104.11 50.8322 104.11ZM50.3282 113H51.3222V105.874H50.3282V113ZM54.3137 105.874H53.3617V113H54.3557V108.758C54.3557 107.33 55.2937 106.574 56.4977 106.574C57.7717 106.574 58.3737 107.358 58.3737 108.646V113H59.3677V108.45C59.3677 106.868 58.4297 105.706 56.6657 105.706C55.2797 105.706 54.5657 106.504 54.3137 106.966V105.874ZM63.5991 113.168C65.5311 113.168 66.4411 112.146 66.4411 111.068C66.4411 108.072 62.0311 109.738 62.0311 107.764C62.0311 107.12 62.5771 106.574 63.6831 106.574C64.8171 106.574 65.3491 107.19 65.4331 107.96H66.4271C66.3431 106.994 65.6851 105.706 63.7111 105.706C62.0171 105.706 61.0651 106.714 61.0651 107.806C61.0651 110.732 65.4751 109.052 65.4751 111.096C65.4751 111.81 64.8031 112.3 63.5991 112.3C62.3671 112.3 61.7511 111.684 61.6811 110.774H60.6731C60.7571 112.02 61.5411 113.168 63.5991 113.168ZM70.8441 113.168C72.8601 113.168 73.7981 111.88 73.7981 110.298V105.874H72.8041V110.228C72.8041 111.516 72.1181 112.3 70.8441 112.3C69.5701 112.3 68.8841 111.516 68.8841 110.228V105.874H67.8901V110.298C67.8901 111.88 68.8281 113.168 70.8441 113.168ZM79.2234 105.818C79.2234 105.818 79.0554 105.804 78.9854 105.804C77.6694 105.804 76.9694 106.49 76.7034 106.98V105.874H75.7514V113H76.7454V108.954C76.7454 107.47 77.6554 106.742 78.8734 106.742C79.0554 106.742 79.2234 106.756 79.2234 106.756V105.818ZM86.4154 105.874H85.4634V107.19C84.9734 106.28 84.0634 105.706 82.7614 105.706C80.5774 105.706 79.4014 107.484 79.4014 109.444C79.4014 111.404 80.5774 113.168 82.7614 113.168C84.0634 113.168 84.9734 112.594 85.4634 111.684V113H86.4154V105.874ZM80.4094 109.444C80.4094 107.89 81.3614 106.602 82.9574 106.602C84.5534 106.602 85.4634 107.89 85.4634 109.444C85.4634 110.998 84.5534 112.272 82.9574 112.272C81.3614 112.272 80.4094 110.998 80.4094 109.444ZM89.4014 105.874H88.4494V113H89.4434V108.758C89.4434 107.33 90.3814 106.574 91.5854 106.574C92.8594 106.574 93.4614 107.358 93.4614 108.646V113H94.4554V108.45C94.4554 106.868 93.5174 105.706 91.7534 105.706C90.3674 105.706 89.6534 106.504 89.4014 106.966V105.874ZM95.8728 109.444C95.8728 111.39 97.2168 113.168 99.3868 113.168C101.319 113.168 102.439 111.88 102.719 110.466H101.711C101.417 111.572 100.605 112.272 99.3868 112.272C97.8888 112.272 96.8808 111.082 96.8808 109.444C96.8808 107.792 97.8888 106.602 99.3868 106.602C100.605 106.602 101.417 107.302 101.711 108.408H102.719C102.439 106.994 101.319 105.706 99.3868 105.706C97.2168 105.706 95.8728 107.484 95.8728 109.444ZM110.375 109.724C110.375 109.724 110.389 109.5 110.389 109.346C110.389 107.33 109.087 105.706 106.959 105.706C104.817 105.706 103.459 107.456 103.459 109.43C103.459 111.432 104.719 113.168 106.973 113.168C108.667 113.168 109.843 112.132 110.263 110.774H109.227C108.919 111.642 108.079 112.272 106.987 112.272C105.489 112.272 104.551 111.166 104.453 109.724H110.375ZM106.959 106.602C108.359 106.602 109.269 107.54 109.395 108.912H104.481C104.649 107.596 105.573 106.602 106.959 106.602ZM114.571 109.444C114.571 111.39 115.915 113.168 118.085 113.168C120.017 113.168 121.137 111.88 121.417 110.466H120.409C120.115 111.572 119.303 112.272 118.085 112.272C116.587 112.272 115.579 111.082 115.579 109.444C115.579 107.792 116.587 106.602 118.085 106.602C119.303 106.602 120.115 107.302 120.409 108.408H121.417C121.137 106.994 120.017 105.706 118.085 105.706C115.915 105.706 114.571 107.484 114.571 109.444ZM125.783 113.168C128.037 113.168 129.423 111.404 129.423 109.444C129.423 107.484 128.037 105.706 125.783 105.706C123.543 105.706 122.157 107.484 122.157 109.444C122.157 111.404 123.543 113.168 125.783 113.168ZM123.165 109.444C123.165 107.834 124.201 106.602 125.783 106.602C127.379 106.602 128.415 107.834 128.415 109.444C128.415 111.04 127.379 112.272 125.783 112.272C124.201 112.272 123.165 111.04 123.165 109.444ZM133.178 111.852L130.756 105.874H129.678L132.66 113H133.668L136.678 105.874H135.642L133.178 111.852ZM143.781 109.724C143.781 109.724 143.795 109.5 143.795 109.346C143.795 107.33 142.493 105.706 140.365 105.706C138.223 105.706 136.865 107.456 136.865 109.43C136.865 111.432 138.125 113.168 140.379 113.168C142.073 113.168 143.249 112.132 143.669 110.774H142.633C142.325 111.642 141.485 112.272 140.393 112.272C138.895 112.272 137.957 111.166 137.859 109.724H143.781ZM140.365 106.602C141.765 106.602 142.675 107.54 142.801 108.912H137.887C138.055 107.596 138.979 106.602 140.365 106.602ZM148.756 105.818C148.756 105.818 148.588 105.804 148.518 105.804C147.202 105.804 146.502 106.49 146.236 106.98V105.874H145.284V113H146.278V108.954C146.278 107.47 147.188 106.742 148.406 106.742C148.588 106.742 148.756 106.756 148.756 106.756V105.818ZM155.948 105.874H154.996V107.19C154.506 106.28 153.596 105.706 152.294 105.706C150.11 105.706 148.934 107.484 148.934 109.444C148.934 111.404 150.11 113.168 152.294 113.168C153.596 113.168 154.506 112.594 154.996 111.684V113H155.948V105.874ZM149.942 109.444C149.942 107.89 150.894 106.602 152.49 106.602C154.086 106.602 154.996 107.89 154.996 109.444C154.996 110.998 154.086 112.272 152.49 112.272C150.894 112.272 149.942 110.998 149.942 109.444ZM163.498 107.176C162.994 106.28 162.098 105.706 160.81 105.706C158.668 105.706 157.45 107.428 157.45 109.346C157.45 111.264 158.668 112.986 160.81 112.986C162.098 112.986 162.966 112.398 163.456 111.544V112.874C163.456 114.204 162.602 115.17 161.146 115.17C159.984 115.17 159.172 114.624 158.892 113.798H157.87C158.108 114.876 159.102 116.066 161.118 116.066C163.358 116.066 164.45 114.568 164.45 112.65V105.874H163.498V107.176ZM163.498 109.346C163.498 110.886 162.56 112.104 160.992 112.104C159.438 112.104 158.458 110.886 158.458 109.346C158.458 107.806 159.438 106.602 160.992 106.602C162.56 106.602 163.498 107.806 163.498 109.346ZM172.8 109.724C172.8 109.724 172.814 109.5 172.814 109.346C172.814 107.33 171.512 105.706 169.384 105.706C167.242 105.706 165.884 107.456 165.884 109.43C165.884 111.432 167.144 113.168 169.398 113.168C171.092 113.168 172.268 112.132 172.688 110.774H171.652C171.344 111.642 170.504 112.272 169.412 112.272C167.914 112.272 166.976 111.166 166.878 109.724H172.8ZM169.384 106.602C170.784 106.602 171.694 107.54 171.82 108.912H166.906C167.074 107.596 167.998 106.602 169.384 106.602ZM174.597 113.112C175.031 113.112 175.367 112.804 175.367 112.356C175.367 111.922 175.031 111.6 174.597 111.6C174.149 111.6 173.827 111.922 173.827 112.356C173.827 112.804 174.149 113.112 174.597 113.112Z" fill="black"/>
<path d="M9.86 29.2H13.294L9.622 53H4.046L0.374 29.2H4.148L7.004 48.614L9.86 29.2ZM23.7497 39.23V42.63H18.6157V49.6H25.0757V53H14.8757V29.2H25.0757V32.6H18.6157V39.23H23.7497ZM27.2293 53V29.2H30.9693V39.4H35.2193V29.2H39.0273V53H35.2193V42.8H30.9693V53H27.2293ZM45.315 29.2V53H41.575V29.2H45.315ZM58.7316 47.288C58.7316 49.2147 58.2556 50.6993 57.3036 51.742C56.3516 52.762 54.969 53.272 53.1556 53.272C51.3423 53.272 49.9596 52.762 49.0076 51.742C48.0556 50.6993 47.5796 49.2147 47.5796 47.288V34.912C47.5796 32.9853 48.0556 31.512 49.0076 30.492C49.9596 29.4493 51.3423 28.928 53.1556 28.928C54.969 28.928 56.3516 29.4493 57.3036 30.492C58.2556 31.512 58.7316 32.9853 58.7316 34.912V37.224H55.1956V34.674C55.1956 33.11 54.5496 32.328 53.2576 32.328C51.9656 32.328 51.3196 33.11 51.3196 34.674V47.526C51.3196 49.0673 51.9656 49.838 53.2576 49.838C54.5496 49.838 55.1956 49.0673 55.1956 47.526V44.126H58.7316V47.288ZM64.5769 29.2V49.6H70.7309V53H60.8369V29.2H64.5769ZM81.0684 39.23V42.63H75.9344V49.6H82.3944V53H72.1944V29.2H82.3944V32.6H75.9344V39.23H81.0684ZM93.4032 29.2V53H89.6632V29.2H93.4032ZM99.3058 53H95.9398V29.2H100.632L104.474 43.446V29.2H107.806V53H103.964L99.3058 35.762V53ZM109.844 34.912C109.844 32.9853 110.308 31.512 111.238 30.492C112.167 29.4493 113.538 28.928 115.352 28.928C117.165 28.928 118.536 29.4493 119.466 30.492C120.395 31.512 120.86 32.9853 120.86 34.912V35.66H117.324V34.674C117.324 33.858 117.165 33.2687 116.848 32.906C116.53 32.5207 116.066 32.328 115.454 32.328C114.842 32.328 114.377 32.5207 114.06 32.906C113.742 33.2687 113.584 33.858 113.584 34.674C113.584 35.6713 113.844 36.544 114.366 37.292C114.91 38.04 115.714 38.89 116.78 39.842C117.664 40.658 118.378 41.3833 118.922 42.018C119.466 42.63 119.93 43.378 120.316 44.262C120.701 45.146 120.894 46.1547 120.894 47.288C120.894 49.2147 120.418 50.6993 119.466 51.742C118.514 52.762 117.131 53.272 115.318 53.272C113.504 53.272 112.122 52.762 111.17 51.742C110.218 50.6993 109.742 49.2147 109.742 47.288V45.826H113.278V47.526C113.278 49.0673 113.924 49.838 115.216 49.838C116.508 49.838 117.154 49.0673 117.154 47.526C117.154 46.5287 116.882 45.656 116.338 44.908C115.816 44.16 115.023 43.31 113.958 42.358C113.074 41.542 112.36 40.828 111.816 40.216C111.272 39.5813 110.807 38.822 110.422 37.938C110.036 37.054 109.844 36.0453 109.844 34.912ZM126.442 47.56C126.442 49.1013 127.088 49.872 128.38 49.872C129.672 49.872 130.318 49.1013 130.318 47.56V29.2H133.854V47.322C133.854 49.2487 133.378 50.7333 132.426 51.776C131.474 52.796 130.092 53.306 128.278 53.306C126.465 53.306 125.082 52.796 124.13 51.776C123.178 50.7333 122.702 49.2487 122.702 47.322V29.2H126.442V47.56ZM144.075 53C143.939 52.6147 143.849 52.252 143.803 51.912C143.758 51.572 143.735 50.96 143.735 50.076V46.336C143.735 45.248 143.543 44.4773 143.157 44.024C142.772 43.548 142.149 43.31 141.287 43.31H139.995V53H136.255V29.2H141.899C143.826 29.2 145.231 29.6533 146.115 30.56C146.999 31.444 147.441 32.8153 147.441 34.674V36.544C147.441 38.992 146.625 40.6013 144.993 41.372C145.877 41.7347 146.512 42.3467 146.897 43.208C147.283 44.0467 147.475 45.1233 147.475 46.438V50.11C147.475 50.79 147.498 51.3453 147.543 51.776C147.589 52.184 147.702 52.592 147.883 53H144.075ZM139.995 39.91H141.457C142.205 39.91 142.761 39.7173 143.123 39.332C143.509 38.9467 143.701 38.3007 143.701 37.394V35.048C143.701 34.1867 143.543 33.5633 143.225 33.178C142.931 32.7927 142.455 32.6 141.797 32.6H139.995V39.91ZM158.101 53L157.455 48.682H152.865L152.219 53H148.785L152.593 29.2H158.067L161.875 53H158.101ZM156.945 45.452L155.143 33.416L153.341 45.452H156.945ZM166.785 53H163.419V29.2H168.111L171.953 43.446V29.2H175.285V53H171.443L166.785 35.762V53ZM188.644 47.288C188.644 49.2147 188.168 50.6993 187.216 51.742C186.264 52.762 184.882 53.272 183.068 53.272C181.255 53.272 179.872 52.762 178.92 51.742C177.968 50.6993 177.492 49.2147 177.492 47.288V34.912C177.492 32.9853 177.968 31.512 178.92 30.492C179.872 29.4493 181.255 28.928 183.068 28.928C184.882 28.928 186.264 29.4493 187.216 30.492C188.168 31.512 188.644 32.9853 188.644 34.912V37.224H185.108V34.674C185.108 33.11 184.462 32.328 183.17 32.328C181.878 32.328 181.232 33.11 181.232 34.674V47.526C181.232 49.0673 181.878 49.838 183.17 49.838C184.462 49.838 185.108 49.0673 185.108 47.526V44.126H188.644V47.288ZM199.624 39.23V42.63H194.49V49.6H200.95V53H190.75V29.2H200.95V32.6H194.49V39.23H199.624ZM211.959 29.2V53H208.219V29.2H211.959ZM217.861 53H214.495V29.2H219.187L223.029 43.446V29.2H226.361V53H222.519L217.861 35.762V53ZM239.721 47.288C239.721 49.2147 239.245 50.6993 238.293 51.742C237.341 52.762 235.958 53.272 234.145 53.272C232.332 53.272 230.949 52.762 229.997 51.742C229.045 50.6993 228.569 49.2147 228.569 47.288V34.912C228.569 32.9853 229.045 31.512 229.997 30.492C230.949 29.4493 232.332 28.928 234.145 28.928C235.958 28.928 237.341 29.4493 238.293 30.492C239.245 31.512 239.721 32.9853 239.721 34.912V37.224H236.185V34.674C236.185 33.11 235.539 32.328 234.247 32.328C232.955 32.328 232.309 33.11 232.309 34.674V47.526C232.309 49.0673 232.955 49.838 234.247 49.838C235.539 49.838 236.185 49.0673 236.185 47.526V44.126H239.721V47.288ZM245.566 29.2V49.6H251.72V53H241.826V29.2H245.566ZM256.754 47.56C256.754 49.1013 257.4 49.872 258.692 49.872C259.984 49.872 260.63 49.1013 260.63 47.56V29.2H264.166V47.322C264.166 49.2487 263.69 50.7333 262.738 51.776C261.786 52.796 260.403 53.306 258.59 53.306C256.776 53.306 255.394 52.796 254.442 51.776C253.49 50.7333 253.014 49.2487 253.014 47.322V29.2H256.754V47.56ZM272.483 29.2C274.341 29.2 275.735 29.6987 276.665 30.696C277.594 31.6933 278.059 33.1553 278.059 35.082V47.118C278.059 49.0447 277.594 50.5067 276.665 51.504C275.735 52.5013 274.341 53 272.483 53H266.567V29.2H272.483ZM270.307 49.6H272.415C273.027 49.6 273.491 49.4187 273.809 49.056C274.149 48.6933 274.319 48.104 274.319 47.288V34.912C274.319 34.096 274.149 33.5067 273.809 33.144C273.491 32.7813 273.027 32.6 272.415 32.6H270.307V49.6ZM289.155 39.23V42.63H284.021V49.6H290.481V53H280.281V29.2H290.481V32.6H284.021V39.23H289.155ZM298.551 29.2C300.41 29.2 301.804 29.6987 302.733 30.696C303.662 31.6933 304.127 33.1553 304.127 35.082V47.118C304.127 49.0447 303.662 50.5067 302.733 51.504C301.804 52.5013 300.41 53 298.551 53H292.635V29.2H298.551ZM296.375 49.6H298.483C299.095 49.6 299.56 49.4187 299.877 49.056C300.217 48.6933 300.387 48.104 300.387 47.288V34.912C300.387 34.096 300.217 33.5067 299.877 33.144C299.56 32.7813 299.095 32.6 298.483 32.6H296.375V49.6Z" fill="#2B3144"/>
</svg>
