<svg width="258" height="26" viewBox="0 0 258 26" fill="none" xmlns="http://www.w3.org/2000/svg">
<path d="M0.884 6.912C0.884 4.98533 1.34867 3.512 2.278 2.492C3.20733 1.44933 4.57867 0.928 6.392 0.928C8.20533 0.928 9.57667 1.44933 10.506 2.492C11.4353 3.512 11.9 4.98533 11.9 6.912V7.66H8.364V6.674C8.364 5.858 8.20533 5.26867 7.888 4.906C7.57067 4.52067 7.106 4.328 6.494 4.328C5.882 4.328 5.41733 4.52067 5.1 4.906C4.78267 5.26867 4.624 5.858 4.624 6.674C4.624 7.67133 4.88467 8.544 5.406 9.292C5.95 10.04 6.75467 10.89 7.82 11.842C8.704 12.658 9.418 13.3833 9.962 14.018C10.506 14.63 10.9707 15.378 11.356 16.262C11.7413 17.146 11.934 18.1547 11.934 19.288C11.934 21.2147 11.458 22.6993 10.506 23.742C9.554 24.762 8.17133 25.272 6.358 25.272C4.54467 25.272 3.162 24.762 2.21 23.742C1.258 22.6993 0.782 21.2147 0.782 19.288V17.826H4.318V19.526C4.318 21.0673 4.964 21.838 6.256 21.838C7.548 21.838 8.194 21.0673 8.194 19.526C8.194 18.5287 7.922 17.656 7.378 16.908C6.85667 16.16 6.06333 15.31 4.998 14.358C4.114 13.542 3.4 12.828 2.856 12.216C2.312 11.5813 1.84733 10.822 1.462 9.938C1.07667 9.054 0.884 8.04533 0.884 6.912ZM17.6528 1.2V25H13.9128V1.2H17.6528ZM30.6954 1.2H35.8974V25H32.3614V7.932L29.7774 25H26.2414L23.4534 8.17V25H20.1894V1.2H25.3914L28.1454 18.098L30.6954 1.2ZM43.9619 1.2C45.8206 1.2 47.2146 1.69867 48.1439 2.696C49.0733 3.69333 49.5379 5.15533 49.5379 7.082V10.176C49.5379 12.1027 49.0733 13.5647 48.1439 14.562C47.2146 15.5593 45.8206 16.058 43.9619 16.058H42.1939V25H38.4539V1.2H43.9619ZM42.1939 12.658H43.9619C44.5739 12.658 45.0273 12.488 45.3219 12.148C45.6393 11.808 45.7979 11.23 45.7979 10.414V6.844C45.7979 6.028 45.6393 5.45 45.3219 5.11C45.0273 4.77 44.5739 4.6 43.9619 4.6H42.1939V12.658ZM55.0124 1.2V21.6H61.1664V25H51.2724V1.2H55.0124ZM71.5038 11.23V14.63H66.3698V21.6H72.8298V25H62.6298V1.2H72.8298V4.6H66.3698V11.23H71.5038ZM90.5707 1.2H95.7727V25H92.2367V7.932L89.6527 25H86.1167L83.3287 8.17V25H80.0647V1.2H85.2667L88.0207 18.098L90.5707 1.2ZM98.0232 6.912C98.0232 5.008 98.5106 3.53466 99.4852 2.492C100.46 1.44933 101.865 0.928 103.701 0.928C105.537 0.928 106.943 1.44933 107.917 2.492C108.892 3.53466 109.379 5.008 109.379 6.912V19.288C109.379 21.192 108.892 22.6653 107.917 23.708C106.943 24.7507 105.537 25.272 103.701 25.272C101.865 25.272 100.46 24.7507 99.4852 23.708C98.5106 22.6653 98.0232 21.192 98.0232 19.288V6.912ZM101.763 19.526C101.763 21.09 102.409 21.872 103.701 21.872C104.993 21.872 105.639 21.09 105.639 19.526V6.674C105.639 5.11 104.993 4.328 103.701 4.328C102.409 4.328 101.763 5.11 101.763 6.674V19.526ZM114.978 25H111.612V1.2H116.304L120.146 15.446V1.2H123.478V25H119.636L114.978 7.762V25ZM136.463 1.2V4.6H132.553V25H128.813V4.6H124.903V1.2H136.463ZM137.947 25V1.2H141.687V11.4H145.937V1.2H149.745V25H145.937V14.8H141.687V25H137.947ZM156.032 1.2V21.6H162.186V25H152.292V1.2H156.032ZM160.334 1.2H164.244L167.1 12.046L169.956 1.2H173.526L168.8 17.112V25H165.06V17.112L160.334 1.2ZM185.498 1.2C187.357 1.2 188.751 1.69867 189.68 2.696C190.609 3.69333 191.074 5.15533 191.074 7.082V10.176C191.074 12.1027 190.609 13.5647 189.68 14.562C188.751 15.5593 187.357 16.058 185.498 16.058H183.73V25H179.99V1.2H185.498ZM183.73 12.658H185.498C186.11 12.658 186.563 12.488 186.858 12.148C187.175 11.808 187.334 11.23 187.334 10.414V6.844C187.334 6.028 187.175 5.45 186.858 5.11C186.563 4.77 186.11 4.6 185.498 4.6H183.73V12.658ZM200.628 25C200.492 24.6147 200.402 24.252 200.356 23.912C200.311 23.572 200.288 22.96 200.288 22.076V18.336C200.288 17.248 200.096 16.4773 199.71 16.024C199.325 15.548 198.702 15.31 197.84 15.31H196.548V25H192.808V1.2H198.452C200.379 1.2 201.784 1.65333 202.668 2.56C203.552 3.444 203.994 4.81533 203.994 6.674V8.544C203.994 10.992 203.178 12.6013 201.546 13.372C202.43 13.7347 203.065 14.3467 203.45 15.208C203.836 16.0467 204.028 17.1233 204.028 18.438V22.11C204.028 22.79 204.051 23.3453 204.096 23.776C204.142 24.184 204.255 24.592 204.436 25H200.628ZM196.548 11.91H198.01C198.758 11.91 199.314 11.7173 199.676 11.332C200.062 10.9467 200.254 10.3007 200.254 9.394V7.048C200.254 6.18667 200.096 5.56333 199.778 5.178C199.484 4.79267 199.008 4.6 198.35 4.6H196.548V11.91ZM210.064 1.2V25H206.324V1.2H210.064ZM223.481 19.288C223.481 21.2147 223.005 22.6993 222.053 23.742C221.101 24.762 219.718 25.272 217.905 25.272C216.091 25.272 214.709 24.762 213.757 23.742C212.805 22.6993 212.329 21.2147 212.329 19.288V6.912C212.329 4.98533 212.805 3.512 213.757 2.492C214.709 1.44933 216.091 0.928 217.905 0.928C219.718 0.928 221.101 1.44933 222.053 2.492C223.005 3.512 223.481 4.98533 223.481 6.912V9.224H219.945V6.674C219.945 5.11 219.299 4.328 218.007 4.328C216.715 4.328 216.069 5.11 216.069 6.674V19.526C216.069 21.0673 216.715 21.838 218.007 21.838C219.299 21.838 219.945 21.0673 219.945 19.526V16.126H223.481V19.288ZM229.326 1.2V25H225.586V1.2H229.326ZM235.228 25H231.862V1.2H236.554L240.396 15.446V1.2H243.728V25H239.886L235.228 7.762V25ZM257.088 11.74V19.288C257.088 21.2147 256.612 22.6993 255.66 23.742C254.708 24.762 253.326 25.272 251.512 25.272C249.699 25.272 248.316 24.762 247.364 23.742C246.412 22.6993 245.936 21.2147 245.936 19.288V6.912C245.936 4.98533 246.412 3.512 247.364 2.492C248.316 1.44933 249.699 0.928 251.512 0.928C253.326 0.928 254.708 1.44933 255.66 2.492C256.612 3.512 257.088 4.98533 257.088 6.912V9.224H253.552V6.674C253.552 5.11 252.906 4.328 251.614 4.328C250.322 4.328 249.676 5.11 249.676 6.674V19.526C249.676 21.0673 250.322 21.838 251.614 21.838C252.906 21.838 253.552 21.0673 253.552 19.526V15.14H251.852V11.74H257.088Z" fill="#2B3144"/>
</svg>
