<svg width="263" height="35" viewBox="0 0 263 35" fill="none" xmlns="http://www.w3.org/2000/svg">
<path d="M7.42 10.034H2.436V1.06H1.414V11H7.42V10.034ZM14.45 7.724C14.45 7.724 14.464 7.5 14.464 7.346C14.464 5.33 13.162 3.706 11.034 3.706C8.892 3.706 7.534 5.456 7.534 7.43C7.534 9.432 8.794 11.168 11.048 11.168C12.742 11.168 13.918 10.132 14.338 8.774H13.302C12.994 9.642 12.154 10.272 11.062 10.272C9.564 10.272 8.626 9.166 8.528 7.724H14.45ZM11.034 4.602C12.434 4.602 13.344 5.54 13.47 6.912H8.556C8.724 5.596 9.648 4.602 11.034 4.602ZM22.4351 3.874H21.4831V5.19C20.9931 4.28 20.0831 3.706 18.7811 3.706C16.5971 3.706 15.4211 5.484 15.4211 7.444C15.4211 9.404 16.5971 11.168 18.7811 11.168C20.0831 11.168 20.9931 10.594 21.4831 9.684V11H22.4351V3.874ZM16.4291 7.444C16.4291 5.89 17.3811 4.602 18.9771 4.602C20.5731 4.602 21.4831 5.89 21.4831 7.444C21.4831 8.998 20.5731 10.272 18.9771 10.272C17.3811 10.272 16.4291 8.998 16.4291 7.444ZM26.975 9.852L24.553 3.874H23.475L26.457 11H27.465L30.475 3.874H29.439L26.975 9.852ZM37.578 7.724C37.578 7.724 37.592 7.5 37.592 7.346C37.592 5.33 36.29 3.706 34.162 3.706C32.02 3.706 30.662 5.456 30.662 7.43C30.662 9.432 31.922 11.168 34.176 11.168C35.87 11.168 37.046 10.132 37.466 8.774H36.43C36.122 9.642 35.282 10.272 34.19 10.272C32.692 10.272 31.754 9.166 31.656 7.724H37.578ZM34.162 4.602C35.562 4.602 36.472 5.54 36.598 6.912H31.684C31.852 5.596 32.776 4.602 34.162 4.602ZM42.81 2.11C43.216 2.11 43.524 1.83 43.524 1.424C43.524 1.004 43.216 0.71 42.81 0.71C42.39 0.71 42.096 1.004 42.096 1.424C42.096 1.83 42.39 2.11 42.81 2.11ZM42.306 11H43.3V3.874H42.306V11ZM46.6276 4.714H48.0836V3.874H46.6276V1.844H45.6336V3.874H44.2756V4.714H45.6336V11H46.6276V4.714ZM55.111 11.168C57.127 11.168 58.065 9.88 58.065 8.298V3.874H57.071V8.228C57.071 9.516 56.385 10.3 55.111 10.3C53.837 10.3 53.151 9.516 53.151 8.228V3.874H52.157V8.298C52.157 9.88 53.095 11.168 55.111 11.168ZM62.3003 11.168C64.2323 11.168 65.1423 10.146 65.1423 9.068C65.1423 6.072 60.7323 7.738 60.7323 5.764C60.7323 5.12 61.2783 4.574 62.3843 4.574C63.5183 4.574 64.0503 5.19 64.1343 5.96H65.1283C65.0443 4.994 64.3863 3.706 62.4123 3.706C60.7183 3.706 59.7663 4.714 59.7663 5.806C59.7663 8.732 64.1763 7.052 64.1763 9.096C64.1763 9.81 63.5043 10.3 62.3003 10.3C61.0683 10.3 60.4523 9.684 60.3823 8.774H59.3743C59.4583 10.02 60.2423 11.168 62.3003 11.168ZM66.9552 11.112C67.3892 11.112 67.7252 10.804 67.7252 10.356C67.7252 9.922 67.3892 9.6 66.9552 9.6C66.5072 9.6 66.1852 9.922 66.1852 10.356C66.1852 10.804 66.5072 11.112 66.9552 11.112ZM78.9269 11C82.4409 11 84.4569 9.04 84.4569 6.03C84.4569 3.02 82.4409 1.06 78.9269 1.06H75.9169V11H78.9269ZM83.3929 6.03C83.3929 8.494 81.8809 10.02 78.8709 10.02H76.9389V2.04H78.8709C81.8809 2.04 83.3929 3.566 83.3929 6.03ZM89.0808 11.168C91.3348 11.168 92.7208 9.404 92.7208 7.444C92.7208 5.484 91.3348 3.706 89.0808 3.706C86.8408 3.706 85.4548 5.484 85.4548 7.444C85.4548 9.404 86.8408 11.168 89.0808 11.168ZM86.4628 7.444C86.4628 5.834 87.4988 4.602 89.0808 4.602C90.6768 4.602 91.7128 5.834 91.7128 7.444C91.7128 9.04 90.6768 10.272 89.0808 10.272C87.4988 10.272 86.4628 9.04 86.4628 7.444ZM95.1677 3.874H94.2157V11H95.2097V6.758C95.2097 5.33 96.1477 4.574 97.3517 4.574C98.6257 4.574 99.2277 5.358 99.2277 6.646V11H100.222V6.45C100.222 4.868 99.2837 3.706 97.5197 3.706C96.1337 3.706 95.4197 4.504 95.1677 4.966V3.874ZM102.227 1.06L101.555 3.846H102.409L103.361 1.06H102.227ZM106.055 4.714H107.511V3.874H106.055V1.844H105.061V3.874H103.703V4.714H105.061V11H106.055V4.714ZM118.151 11H119.187L121.679 3.874H120.629L118.683 9.824L116.751 3.874H115.715L113.755 9.824L111.837 3.874H110.773L113.237 11H114.273L116.219 5.134H116.233L118.151 11ZM125.698 11.168C127.952 11.168 129.338 9.404 129.338 7.444C129.338 5.484 127.952 3.706 125.698 3.706C123.458 3.706 122.072 5.484 122.072 7.444C122.072 9.404 123.458 11.168 125.698 11.168ZM123.08 7.444C123.08 5.834 124.116 4.602 125.698 4.602C127.294 4.602 128.33 5.834 128.33 7.444C128.33 9.04 127.294 10.272 125.698 10.272C124.116 10.272 123.08 9.04 123.08 7.444ZM134.305 3.818C134.305 3.818 134.137 3.804 134.067 3.804C132.751 3.804 132.051 4.49 131.785 4.98V3.874H130.833V11H131.827V6.954C131.827 5.47 132.737 4.742 133.955 4.742C134.137 4.742 134.305 4.756 134.305 4.756V3.818ZM138.801 3.818C138.801 3.818 138.633 3.804 138.563 3.804C137.247 3.804 136.547 4.49 136.281 4.98V3.874H135.329V11H136.323V6.954C136.323 5.47 137.233 4.742 138.451 4.742C138.633 4.742 138.801 4.756 138.801 4.756V3.818ZM140.596 13.912H141.604L145.832 3.874H144.782L142.332 9.852L139.91 3.874H138.832L141.814 11L140.596 13.912ZM156.572 3.874H155.62V5.19C155.13 4.28 154.22 3.706 152.918 3.706C150.734 3.706 149.558 5.484 149.558 7.444C149.558 9.404 150.734 11.168 152.918 11.168C154.22 11.168 155.13 10.594 155.62 9.684V11H156.572V3.874ZM150.566 7.444C150.566 5.89 151.518 4.602 153.114 4.602C154.71 4.602 155.62 5.89 155.62 7.444C155.62 8.998 154.71 10.272 153.114 10.272C151.518 10.272 150.566 8.998 150.566 7.444ZM159.6 5.162V0.499999H158.606V11H159.558V9.684C160.062 10.594 160.972 11.168 162.26 11.168C164.458 11.168 165.634 9.404 165.634 7.444C165.634 5.47 164.458 3.706 162.26 3.706C160.972 3.706 160.076 4.308 159.6 5.162ZM159.572 7.444C159.572 5.862 160.482 4.602 162.078 4.602C163.674 4.602 164.626 5.862 164.626 7.444C164.626 8.998 163.674 10.272 162.078 10.272C160.482 10.272 159.572 8.998 159.572 7.444ZM170.216 11.168C172.47 11.168 173.856 9.404 173.856 7.444C173.856 5.484 172.47 3.706 170.216 3.706C167.976 3.706 166.59 5.484 166.59 7.444C166.59 9.404 167.976 11.168 170.216 11.168ZM167.598 7.444C167.598 5.834 168.634 4.602 170.216 4.602C171.812 4.602 172.848 5.834 172.848 7.444C172.848 9.04 171.812 10.272 170.216 10.272C168.634 10.272 167.598 9.04 167.598 7.444ZM178.235 11.168C180.251 11.168 181.189 9.88 181.189 8.298V3.874H180.195V8.228C180.195 9.516 179.509 10.3 178.235 10.3C176.961 10.3 176.275 9.516 176.275 8.228V3.874H175.281V8.298C175.281 9.88 176.219 11.168 178.235 11.168ZM184.43 4.714H185.886V3.874H184.43V1.844H183.436V3.874H182.078V4.714H183.436V11H184.43V4.714ZM195.854 6.842C195.854 5.33 196.778 4.574 197.898 4.574C199.144 4.574 199.676 5.442 199.676 6.646V11H200.67V6.45C200.67 4.938 199.802 3.706 198.066 3.706C196.792 3.706 195.952 4.392 195.56 5.078C195.182 4.252 194.398 3.706 193.236 3.706C191.85 3.706 191.234 4.504 190.982 4.966V3.874H190.03V11H191.024V6.758C191.024 5.386 191.906 4.574 193.068 4.574C194.314 4.574 194.86 5.4 194.86 6.646V11H195.854V6.842ZM209.116 3.874H208.164V5.19C207.674 4.28 206.764 3.706 205.462 3.706C203.278 3.706 202.102 5.484 202.102 7.444C202.102 9.404 203.278 11.168 205.462 11.168C206.764 11.168 207.674 10.594 208.164 9.684V11H209.116V3.874ZM203.11 7.444C203.11 5.89 204.062 4.602 205.658 4.602C207.254 4.602 208.164 5.89 208.164 7.444C208.164 8.998 207.254 10.272 205.658 10.272C204.062 10.272 203.11 8.998 203.11 7.444ZM211.654 2.11C212.06 2.11 212.368 1.83 212.368 1.424C212.368 1.004 212.06 0.71 211.654 0.71C211.234 0.71 210.94 1.004 210.94 1.424C210.94 1.83 211.234 2.11 211.654 2.11ZM211.15 11H212.144V3.874H211.15V11ZM215.135 3.874H214.183V11H215.177V6.758C215.177 5.33 216.115 4.574 217.319 4.574C218.593 4.574 219.195 5.358 219.195 6.646V11H220.189V6.45C220.189 4.868 219.251 3.706 217.487 3.706C216.101 3.706 215.387 4.504 215.135 4.966V3.874ZM223.427 4.714H224.883V3.874H223.427V1.844H222.433V3.874H221.075V4.714H222.433V11H223.427V4.714ZM232.133 3.874H231.181V5.19C230.691 4.28 229.781 3.706 228.479 3.706C226.295 3.706 225.119 5.484 225.119 7.444C225.119 9.404 226.295 11.168 228.479 11.168C229.781 11.168 230.691 10.594 231.181 9.684V11H232.133V3.874ZM226.127 7.444C226.127 5.89 227.079 4.602 228.675 4.602C230.271 4.602 231.181 5.89 231.181 7.444C231.181 8.998 230.271 10.272 228.675 10.272C227.079 10.272 226.127 8.998 226.127 7.444ZM234.671 2.11C235.077 2.11 235.385 1.83 235.385 1.424C235.385 1.004 235.077 0.71 234.671 0.71C234.251 0.71 233.957 1.004 233.957 1.424C233.957 1.83 234.251 2.11 234.671 2.11ZM234.167 11H235.161V3.874H234.167V11ZM238.152 3.874H237.2V11H238.194V6.758C238.194 5.33 239.132 4.574 240.336 4.574C241.61 4.574 242.212 5.358 242.212 6.646V11H243.206V6.45C243.206 4.868 242.268 3.706 240.504 3.706C239.118 3.706 238.404 4.504 238.152 4.966V3.874ZM245.66 2.11C246.066 2.11 246.374 1.83 246.374 1.424C246.374 1.004 246.066 0.71 245.66 0.71C245.24 0.71 244.946 1.004 244.946 1.424C244.946 1.83 245.24 2.11 245.66 2.11ZM245.156 11H246.15V3.874H245.156V11ZM249.141 3.874H248.189V11H249.183V6.758C249.183 5.33 250.121 4.574 251.325 4.574C252.599 4.574 253.201 5.358 253.201 6.646V11H254.195V6.45C254.195 4.868 253.257 3.706 251.493 3.706C250.107 3.706 249.393 4.504 249.141 4.966V3.874ZM261.661 5.176C261.157 4.28 260.261 3.706 258.973 3.706C256.831 3.706 255.613 5.428 255.613 7.346C255.613 9.264 256.831 10.986 258.973 10.986C260.261 10.986 261.129 10.398 261.619 9.544V10.874C261.619 12.204 260.765 13.17 259.309 13.17C258.147 13.17 257.335 12.624 257.055 11.798H256.033C256.271 12.876 257.265 14.066 259.281 14.066C261.521 14.066 262.613 12.568 262.613 10.65V3.874H261.661V5.176ZM261.661 7.346C261.661 8.886 260.723 10.104 259.155 10.104C257.601 10.104 256.621 8.886 256.621 7.346C256.621 5.806 257.601 4.602 259.155 4.602C260.723 4.602 261.661 5.806 261.661 7.346ZM1.988 34.912H2.996L7.224 24.874H6.174L3.724 30.852L1.302 24.874H0.224L3.206 32L1.988 34.912ZM11.1053 32.168C13.3593 32.168 14.7453 30.404 14.7453 28.444C14.7453 26.484 13.3593 24.706 11.1053 24.706C8.86531 24.706 7.47931 26.484 7.47931 28.444C7.47931 30.404 8.86531 32.168 11.1053 32.168ZM8.48731 28.444C8.48731 26.834 9.52331 25.602 11.1053 25.602C12.7013 25.602 13.7373 26.834 13.7373 28.444C13.7373 30.04 12.7013 31.272 11.1053 31.272C9.52331 31.272 8.48731 30.04 8.48731 28.444ZM19.1242 32.168C21.1402 32.168 22.0782 30.88 22.0782 29.298V24.874H21.0842V29.228C21.0842 30.516 20.3982 31.3 19.1242 31.3C17.8502 31.3 17.1642 30.516 17.1642 29.228V24.874H16.1702V29.298C16.1702 30.88 17.1082 32.168 19.1242 32.168ZM27.5035 24.818C27.5035 24.818 27.3355 24.804 27.2655 24.804C25.9495 24.804 25.2495 25.49 24.9835 25.98V24.874H24.0315V32H25.0255V27.954C25.0255 26.47 25.9355 25.742 27.1535 25.742C27.3355 25.742 27.5035 25.756 27.5035 25.756V24.818ZM34.2589 30.852L31.8369 24.874H30.7589L33.7409 32H34.7489L37.7589 24.874H36.7229L34.2589 30.852ZM44.8619 28.724C44.8619 28.724 44.8759 28.5 44.8759 28.346C44.8759 26.33 43.5739 24.706 41.4459 24.706C39.3039 24.706 37.9459 26.456 37.9459 28.43C37.9459 30.432 39.2059 32.168 41.4599 32.168C43.1539 32.168 44.3299 31.132 44.7499 29.774H43.7139C43.4059 30.642 42.5659 31.272 41.4739 31.272C39.9759 31.272 39.0379 30.166 38.9399 28.724H44.8619ZM41.4459 25.602C42.8459 25.602 43.7559 26.54 43.8819 27.912H38.9679C39.1359 26.596 40.0599 25.602 41.4459 25.602ZM47.3589 21.5H46.3649V32H47.3589V27.786C47.3589 26.33 48.2969 25.574 49.5009 25.574C50.7749 25.574 51.3769 26.358 51.3769 27.646V32H52.3709V27.45C52.3709 25.868 51.4329 24.706 49.6689 24.706C48.3389 24.706 47.6109 25.434 47.3589 25.868V21.5ZM54.8244 23.11C55.2304 23.11 55.5384 22.83 55.5384 22.424C55.5384 22.004 55.2304 21.71 54.8244 21.71C54.4044 21.71 54.1104 22.004 54.1104 22.424C54.1104 22.83 54.4044 23.11 54.8244 23.11ZM54.3204 32H55.3144V24.874H54.3204V32ZM56.8219 28.444C56.8219 30.39 58.1659 32.168 60.3359 32.168C62.2679 32.168 63.3879 30.88 63.6679 29.466H62.6599C62.3659 30.572 61.5539 31.272 60.3359 31.272C58.8379 31.272 57.8299 30.082 57.8299 28.444C57.8299 26.792 58.8379 25.602 60.3359 25.602C61.5539 25.602 62.3659 26.302 62.6599 27.408H63.6679C63.3879 25.994 62.2679 24.706 60.3359 24.706C58.1659 24.706 56.8219 26.484 56.8219 28.444ZM66.0162 32V21.5H65.0222V32H66.0162ZM74.4398 28.724C74.4398 28.724 74.4538 28.5 74.4538 28.346C74.4538 26.33 73.1518 24.706 71.0238 24.706C68.8818 24.706 67.5238 26.456 67.5238 28.43C67.5238 30.432 68.7838 32.168 71.0378 32.168C72.7318 32.168 73.9078 31.132 74.3278 29.774H73.2918C72.9838 30.642 72.1438 31.272 71.0518 31.272C69.5538 31.272 68.6158 30.166 68.5178 28.724H74.4398ZM71.0238 25.602C72.4238 25.602 73.3338 26.54 73.4598 27.912H68.5458C68.7138 26.596 69.6378 25.602 71.0238 25.602ZM76.2368 32.112C76.6708 32.112 77.0068 31.804 77.0068 31.356C77.0068 30.922 76.6708 30.6 76.2368 30.6C75.7888 30.6 75.4668 30.922 75.4668 31.356C75.4668 31.804 75.7888 32.112 76.2368 32.112ZM91.8765 31.034H86.2205V27.436H91.5825V26.47H86.2205V23.026H91.8765V22.06H85.1985V32H91.8765V31.034ZM94.4851 32V21.5H93.4911V32H94.4851ZM102.909 28.724C102.909 28.724 102.923 28.5 102.923 28.346C102.923 26.33 101.621 24.706 99.4926 24.706C97.3506 24.706 95.9926 26.456 95.9926 28.43C95.9926 30.432 97.2526 32.168 99.5066 32.168C101.201 32.168 102.377 31.132 102.797 29.774H101.761C101.453 30.642 100.613 31.272 99.5206 31.272C98.0226 31.272 97.0846 30.166 96.9866 28.724H102.909ZM99.4926 25.602C100.893 25.602 101.803 26.54 101.929 27.912H97.0146C97.1826 26.596 98.1066 25.602 99.4926 25.602ZM110.894 24.874H109.942V26.19C109.452 25.28 108.542 24.706 107.24 24.706C105.056 24.706 103.88 26.484 103.88 28.444C103.88 30.404 105.056 32.168 107.24 32.168C108.542 32.168 109.452 31.594 109.942 30.684V32H110.894V24.874ZM104.888 28.444C104.888 26.89 105.84 25.602 107.436 25.602C109.032 25.602 109.942 26.89 109.942 28.444C109.942 29.998 109.032 31.272 107.436 31.272C105.84 31.272 104.888 29.998 104.888 28.444ZM113.88 24.874H112.928V32H113.922V27.758C113.922 26.33 114.86 25.574 116.064 25.574C117.338 25.574 117.94 26.358 117.94 27.646V32H118.934V27.45C118.934 25.868 117.996 24.706 116.232 24.706C114.846 24.706 114.132 25.504 113.88 25.966V24.874ZM123.977 32.168C126.231 32.168 127.617 30.404 127.617 28.444C127.617 26.484 126.231 24.706 123.977 24.706C121.737 24.706 120.351 26.484 120.351 28.444C120.351 30.404 121.737 32.168 123.977 32.168ZM121.359 28.444C121.359 26.834 122.395 25.602 123.977 25.602C125.573 25.602 126.609 26.834 126.609 28.444C126.609 30.04 125.573 31.272 123.977 31.272C122.395 31.272 121.359 30.04 121.359 28.444ZM132.584 24.818C132.584 24.818 132.416 24.804 132.346 24.804C131.03 24.804 130.33 25.49 130.064 25.98V24.874H129.112V32H130.106V27.954C130.106 26.47 131.016 25.742 132.234 25.742C132.416 25.742 132.584 25.756 132.584 25.756V24.818ZM136.301 28.444C136.301 30.39 137.645 32.168 139.815 32.168C141.747 32.168 142.867 30.88 143.147 29.466H142.139C141.845 30.572 141.033 31.272 139.815 31.272C138.317 31.272 137.309 30.082 137.309 28.444C137.309 26.792 138.317 25.602 139.815 25.602C141.033 25.602 141.845 26.302 142.139 27.408H143.147C142.867 25.994 141.747 24.706 139.815 24.706C137.645 24.706 136.301 26.484 136.301 28.444ZM147.514 32.168C149.768 32.168 151.154 30.404 151.154 28.444C151.154 26.484 149.768 24.706 147.514 24.706C145.274 24.706 143.888 26.484 143.888 28.444C143.888 30.404 145.274 32.168 147.514 32.168ZM144.896 28.444C144.896 26.834 145.932 25.602 147.514 25.602C149.11 25.602 150.146 26.834 150.146 28.444C150.146 30.04 149.11 31.272 147.514 31.272C145.932 31.272 144.896 30.04 144.896 28.444ZM154.908 30.852L152.486 24.874H151.408L154.39 32H155.398L158.408 24.874H157.372L154.908 30.852ZM165.511 28.724C165.511 28.724 165.525 28.5 165.525 28.346C165.525 26.33 164.223 24.706 162.095 24.706C159.953 24.706 158.595 26.456 158.595 28.43C158.595 30.432 159.855 32.168 162.109 32.168C163.803 32.168 164.979 31.132 165.399 29.774H164.363C164.055 30.642 163.215 31.272 162.123 31.272C160.625 31.272 159.687 30.166 159.589 28.724H165.511ZM162.095 25.602C163.495 25.602 164.405 26.54 164.531 27.912H159.617C159.785 26.596 160.709 25.602 162.095 25.602ZM170.486 24.818C170.486 24.818 170.318 24.804 170.248 24.804C168.932 24.804 168.232 25.49 167.966 25.98V24.874H167.014V32H168.008V27.954C168.008 26.47 168.918 25.742 170.136 25.742C170.318 25.742 170.486 25.756 170.486 25.756V24.818ZM173.724 32.168C175.656 32.168 176.566 31.146 176.566 30.068C176.566 27.072 172.156 28.738 172.156 26.764C172.156 26.12 172.702 25.574 173.808 25.574C174.942 25.574 175.474 26.19 175.558 26.96H176.552C176.468 25.994 175.81 24.706 173.836 24.706C172.142 24.706 171.19 25.714 171.19 26.806C171.19 29.732 175.6 28.052 175.6 30.096C175.6 30.81 174.928 31.3 173.724 31.3C172.492 31.3 171.876 30.684 171.806 29.774H170.798C170.882 31.02 171.666 32.168 173.724 32.168ZM182.598 25.714H184.054V24.874H182.598V22.844H181.604V24.874H180.246V25.714H181.604V32H182.598V25.714ZM185.967 21.5H184.973V32H185.967V27.786C185.967 26.33 186.905 25.574 188.109 25.574C189.383 25.574 189.985 26.358 189.985 27.646V32H190.979V27.45C190.979 25.868 190.041 24.706 188.277 24.706C186.947 24.706 186.219 25.434 185.967 25.868V21.5ZM199.41 24.874H198.458V26.19C197.968 25.28 197.058 24.706 195.756 24.706C193.572 24.706 192.396 26.484 192.396 28.444C192.396 30.404 193.572 32.168 195.756 32.168C197.058 32.168 197.968 31.594 198.458 30.684V32H199.41V24.874ZM193.404 28.444C193.404 26.89 194.356 25.602 195.952 25.602C197.548 25.602 198.458 26.89 198.458 28.444C198.458 29.998 197.548 31.272 195.952 31.272C194.356 31.272 193.404 29.998 193.404 28.444ZM202.732 25.714H204.188V24.874H202.732V22.844H201.738V24.874H200.38V25.714H201.738V32H202.732V25.714ZM214.814 24.874H213.862V26.19C213.372 25.28 212.462 24.706 211.16 24.706C208.976 24.706 207.8 26.484 207.8 28.444C207.8 30.404 208.976 32.168 211.16 32.168C212.462 32.168 213.372 31.594 213.862 30.684V32H214.814V24.874ZM208.808 28.444C208.808 26.89 209.76 25.602 211.356 25.602C212.952 25.602 213.862 26.89 213.862 28.444C213.862 29.998 212.952 31.272 211.356 31.272C209.76 31.272 208.808 29.998 208.808 28.444ZM219.13 32.168C221.062 32.168 221.972 31.146 221.972 30.068C221.972 27.072 217.562 28.738 217.562 26.764C217.562 26.12 218.108 25.574 219.214 25.574C220.348 25.574 220.88 26.19 220.964 26.96H221.958C221.874 25.994 221.216 24.706 219.242 24.706C217.548 24.706 216.596 25.714 216.596 26.806C216.596 29.732 221.006 28.052 221.006 30.096C221.006 30.81 220.334 31.3 219.13 31.3C217.898 31.3 217.282 30.684 217.212 29.774H216.204C216.288 31.02 217.072 32.168 219.13 32.168ZM233.211 32H234.247L236.739 24.874H235.689L233.743 30.824L231.811 24.874H230.775L228.815 30.824L226.897 24.874H225.833L228.297 32H229.333L231.279 26.134H231.293L233.211 32ZM243.953 28.724C243.953 28.724 243.967 28.5 243.967 28.346C243.967 26.33 242.665 24.706 240.537 24.706C238.395 24.706 237.037 26.456 237.037 28.43C237.037 30.432 238.297 32.168 240.551 32.168C242.245 32.168 243.421 31.132 243.841 29.774H242.805C242.497 30.642 241.657 31.272 240.565 31.272C239.067 31.272 238.129 30.166 238.031 28.724H243.953ZM240.537 25.602C241.937 25.602 242.847 26.54 242.973 27.912H238.059C238.227 26.596 239.151 25.602 240.537 25.602ZM246.45 32V21.5H245.456V32H246.45ZM249.484 32V21.5H248.49V32H249.484ZM251.817 32.112C252.251 32.112 252.587 31.804 252.587 31.356C252.587 30.922 252.251 30.6 251.817 30.6C251.369 30.6 251.047 30.922 251.047 31.356C251.047 31.804 251.369 32.112 251.817 32.112Z" fill="black"/>
</svg>
