<svg width="232" height="33" viewBox="0 0 232 33" fill="none" xmlns="http://www.w3.org/2000/svg">
<path d="M2.436 5.834V2.04H5.32C6.748 2.04 7.42 2.754 7.42 3.93C7.42 5.12 6.748 5.834 5.32 5.834H2.436ZM2.436 6.814H5.278C7.56 6.814 8.484 5.54 8.484 3.93C8.484 2.334 7.588 1.06 5.278 1.06H1.414V11H2.436V6.814ZM10.0055 2.11C10.4115 2.11 10.7195 1.83 10.7195 1.424C10.7195 1.004 10.4115 0.71 10.0055 0.71C9.58555 0.71 9.29155 1.004 9.29155 1.424C9.29155 1.83 9.58555 2.11 10.0055 2.11ZM9.50155 11H10.4955V3.874H9.50155V11ZM12.0031 7.444C12.0031 9.39 13.3471 11.168 15.5171 11.168C17.4491 11.168 18.5691 9.88 18.8491 8.466H17.8411C17.5471 9.572 16.7351 10.272 15.5171 10.272C14.0191 10.272 13.0111 9.082 13.0111 7.444C13.0111 5.792 14.0191 4.602 15.5171 4.602C16.7351 4.602 17.5471 5.302 17.8411 6.408H18.8491C18.5691 4.994 17.4491 3.706 15.5171 3.706C13.3471 3.706 12.0031 5.484 12.0031 7.444ZM25.1314 3.874L21.1974 7.836V0.499999H20.2034V11H21.1974V9.054L22.8074 7.486L25.4534 11H26.6854L23.5074 6.814L26.4614 3.874H25.1314ZM31.5249 13.912H32.5329L36.7609 3.874H35.7109L33.2609 9.852L30.8389 3.874H29.7609L32.7429 11L31.5249 13.912ZM40.6422 11.168C42.8962 11.168 44.2822 9.404 44.2822 7.444C44.2822 5.484 42.8962 3.706 40.6422 3.706C38.4022 3.706 37.0162 5.484 37.0162 7.444C37.0162 9.404 38.4022 11.168 40.6422 11.168ZM38.0242 7.444C38.0242 5.834 39.0602 4.602 40.6422 4.602C42.2382 4.602 43.2742 5.834 43.2742 7.444C43.2742 9.04 42.2382 10.272 40.6422 10.272C39.0602 10.272 38.0242 9.04 38.0242 7.444ZM48.6611 11.168C50.6771 11.168 51.6151 9.88 51.6151 8.298V3.874H50.6211V8.228C50.6211 9.516 49.9351 10.3 48.6611 10.3C47.3871 10.3 46.7011 9.516 46.7011 8.228V3.874H45.7071V8.298C45.7071 9.88 46.6451 11.168 48.6611 11.168ZM57.0404 3.818C57.0404 3.818 56.8724 3.804 56.8024 3.804C55.4864 3.804 54.7864 4.49 54.5204 4.98V3.874H53.5684V11H54.5624V6.954C54.5624 5.47 55.4724 4.742 56.6904 4.742C56.8724 4.742 57.0404 4.756 57.0404 4.756V3.818ZM62.2838 9.712C62.7598 10.58 63.6558 11.168 64.9438 11.168C67.1418 11.168 68.3178 9.404 68.3178 7.444C68.3178 5.47 67.1418 3.706 64.9438 3.706C63.6558 3.706 62.7458 4.294 62.2418 5.19V3.874H61.2898V13.912H62.2838V9.712ZM62.2558 7.444C62.2558 5.862 63.1658 4.602 64.7618 4.602C66.3578 4.602 67.3098 5.862 67.3098 7.444C67.3098 8.998 66.3578 10.272 64.7618 10.272C63.1658 10.272 62.2558 8.998 62.2558 7.444ZM70.7998 11V0.499999H69.8058V11H70.7998ZM79.3213 3.874H78.3693V5.19C77.8793 4.28 76.9693 3.706 75.6673 3.706C73.4833 3.706 72.3073 5.484 72.3073 7.444C72.3073 9.404 73.4833 11.168 75.6673 11.168C76.9693 11.168 77.8793 10.594 78.3693 9.684V11H79.3213V3.874ZM73.3153 7.444C73.3153 5.89 74.2673 4.602 75.8633 4.602C77.4593 4.602 78.3693 5.89 78.3693 7.444C78.3693 8.998 77.4593 10.272 75.8633 10.272C74.2673 10.272 73.3153 8.998 73.3153 7.444ZM82.3073 3.874H81.3553V11H82.3493V6.758C82.3493 5.33 83.2873 4.574 84.4913 4.574C85.7653 4.574 86.3673 5.358 86.3673 6.646V11H87.3613V6.45C87.3613 4.868 86.4233 3.706 84.6593 3.706C83.2733 3.706 82.5593 4.504 82.3073 4.966V3.874ZM89.1987 9.684L88.4707 12.526H89.3527L90.3747 9.684H89.1987ZM96.1394 9.712C96.6154 10.58 97.5114 11.168 98.7994 11.168C100.997 11.168 102.173 9.404 102.173 7.444C102.173 5.47 100.997 3.706 98.7994 3.706C97.5114 3.706 96.6014 4.294 96.0974 5.19V3.874H95.1454V13.912H96.1394V9.712ZM96.1114 7.444C96.1114 5.862 97.0214 4.602 98.6174 4.602C100.213 4.602 101.165 5.862 101.165 7.444C101.165 8.998 100.213 10.272 98.6174 10.272C97.0214 10.272 96.1114 8.998 96.1114 7.444ZM110.143 3.874H109.191V5.19C108.701 4.28 107.791 3.706 106.489 3.706C104.305 3.706 103.129 5.484 103.129 7.444C103.129 9.404 104.305 11.168 106.489 11.168C107.791 11.168 108.701 10.594 109.191 9.684V11H110.143V3.874ZM104.137 7.444C104.137 5.89 105.089 4.602 106.685 4.602C108.281 4.602 109.191 5.89 109.191 7.444C109.191 8.998 108.281 10.272 106.685 10.272C105.089 10.272 104.137 8.998 104.137 7.444ZM112.947 13.912H113.955L118.183 3.874H117.133L114.683 9.852L112.261 3.874H111.183L114.165 11L112.947 13.912ZM123.73 4.714H125.186V3.874H123.73V1.844H122.736V3.874H121.378V4.714H122.736V11H123.73V4.714ZM127.098 0.499999H126.104V11H127.098V6.786C127.098 5.33 128.036 4.574 129.24 4.574C130.514 4.574 131.116 5.358 131.116 6.646V11H132.11V6.45C132.11 4.868 131.172 3.706 129.408 3.706C128.078 3.706 127.35 4.434 127.098 4.868V0.499999ZM140.444 7.724C140.444 7.724 140.458 7.5 140.458 7.346C140.458 5.33 139.156 3.706 137.028 3.706C134.886 3.706 133.528 5.456 133.528 7.43C133.528 9.432 134.788 11.168 137.042 11.168C138.736 11.168 139.912 10.132 140.332 8.774H139.296C138.988 9.642 138.148 10.272 137.056 10.272C135.558 10.272 134.62 9.166 134.522 7.724H140.444ZM137.028 4.602C138.428 4.602 139.338 5.54 139.464 6.912H134.55C134.718 5.596 135.642 4.602 137.028 4.602ZM150.996 6.842C150.996 5.33 151.92 4.574 153.04 4.574C154.286 4.574 154.818 5.442 154.818 6.646V11H155.812V6.45C155.812 4.938 154.944 3.706 153.208 3.706C151.934 3.706 151.094 4.392 150.702 5.078C150.324 4.252 149.54 3.706 148.378 3.706C146.992 3.706 146.376 4.504 146.124 4.966V3.874H145.172V11H146.166V6.758C146.166 5.386 147.048 4.574 148.21 4.574C149.456 4.574 150.002 5.4 150.002 6.646V11H150.996V6.842ZM160.869 11.168C163.123 11.168 164.509 9.404 164.509 7.444C164.509 5.484 163.123 3.706 160.869 3.706C158.629 3.706 157.243 5.484 157.243 7.444C157.243 9.404 158.629 11.168 160.869 11.168ZM158.251 7.444C158.251 5.834 159.287 4.602 160.869 4.602C162.465 4.602 163.501 5.834 163.501 7.444C163.501 9.04 162.465 10.272 160.869 10.272C159.287 10.272 158.251 9.04 158.251 7.444ZM166.956 3.874H166.004V11H166.998V6.758C166.998 5.33 167.936 4.574 169.14 4.574C170.414 4.574 171.016 5.358 171.016 6.646V11H172.01V6.45C172.01 4.868 171.072 3.706 169.308 3.706C167.922 3.706 167.208 4.504 166.956 4.966V3.874ZM175.248 4.714H176.704V3.874H175.248V1.844H174.254V3.874H172.896V4.714H174.254V11H175.248V4.714ZM178.616 0.499999H177.622V11H178.616V6.786C178.616 5.33 179.554 4.574 180.758 4.574C182.032 4.574 182.634 5.358 182.634 6.646V11H183.628V6.45C183.628 4.868 182.69 3.706 180.926 3.706C179.596 3.706 178.868 4.434 178.616 4.868V0.499999ZM186.572 11V0.499999H185.578V11H186.572ZM189.381 13.912H190.389L194.617 3.874H193.567L191.117 9.852L188.695 3.874H187.617L190.599 11L189.381 13.912ZM199.87 9.712C200.346 10.58 201.242 11.168 202.53 11.168C204.728 11.168 205.904 9.404 205.904 7.444C205.904 5.47 204.728 3.706 202.53 3.706C201.242 3.706 200.332 4.294 199.828 5.19V3.874H198.876V13.912H199.87V9.712ZM199.842 7.444C199.842 5.862 200.752 4.602 202.348 4.602C203.944 4.602 204.896 5.862 204.896 7.444C204.896 8.998 203.944 10.272 202.348 10.272C200.752 10.272 199.842 8.998 199.842 7.444ZM210.863 3.818C210.863 3.818 210.695 3.804 210.625 3.804C209.309 3.804 208.609 4.49 208.343 4.98V3.874H207.391V11H208.385V6.954C208.385 5.47 209.295 4.742 210.513 4.742C210.695 4.742 210.863 4.756 210.863 4.756V3.818ZM212.392 2.11C212.798 2.11 213.106 1.83 213.106 1.424C213.106 1.004 212.798 0.71 212.392 0.71C211.972 0.71 211.678 1.004 211.678 1.424C211.678 1.83 211.972 2.11 212.392 2.11ZM211.888 11H212.882V3.874H211.888V11ZM214.389 7.444C214.389 9.39 215.733 11.168 217.903 11.168C219.835 11.168 220.955 9.88 221.235 8.466H220.227C219.933 9.572 219.121 10.272 217.903 10.272C216.405 10.272 215.397 9.082 215.397 7.444C215.397 5.792 216.405 4.602 217.903 4.602C219.121 4.602 219.933 5.302 220.227 6.408H221.235C220.955 4.994 219.835 3.706 217.903 3.706C215.733 3.706 214.389 5.484 214.389 7.444ZM228.892 7.724C228.892 7.724 228.906 7.5 228.906 7.346C228.906 5.33 227.604 3.706 225.476 3.706C223.334 3.706 221.976 5.456 221.976 7.43C221.976 9.432 223.236 11.168 225.49 11.168C227.184 11.168 228.36 10.132 228.78 8.774H227.744C227.436 9.642 226.596 10.272 225.504 10.272C224.006 10.272 223.068 9.166 222.97 7.724H228.892ZM225.476 4.602C226.876 4.602 227.786 5.54 227.912 6.912H222.998C223.166 5.596 224.09 4.602 225.476 4.602ZM230.689 11.112C231.123 11.112 231.459 10.804 231.459 10.356C231.459 9.922 231.123 9.6 230.689 9.6C230.241 9.6 229.919 9.922 229.919 10.356C229.919 10.804 230.241 11.112 230.689 11.112ZM7.504 22.06H0.126V23.04H3.304V32H4.326V23.04H7.504V22.06ZM9.42914 21.5H8.43514V32H9.42914V27.786C9.42914 26.33 10.3671 25.574 11.5711 25.574C12.8451 25.574 13.4471 26.358 13.4471 27.646V32H14.4411V27.45C14.4411 25.868 13.5031 24.706 11.7391 24.706C10.4091 24.706 9.68114 25.434 9.42914 25.868V21.5ZM22.8726 24.874H21.9206V26.19C21.4306 25.28 20.5206 24.706 19.2186 24.706C17.0346 24.706 15.8586 26.484 15.8586 28.444C15.8586 30.404 17.0346 32.168 19.2186 32.168C20.5206 32.168 21.4306 31.594 21.9206 30.684V32H22.8726V24.874ZM16.8666 28.444C16.8666 26.89 17.8186 25.602 19.4146 25.602C21.0106 25.602 21.9206 26.89 21.9206 28.444C21.9206 29.998 21.0106 31.272 19.4146 31.272C17.8186 31.272 16.8666 29.998 16.8666 28.444ZM26.1945 25.714H27.6505V24.874H26.1945V22.844H25.2005V24.874H23.8425V25.714H25.2005V32H26.1945V25.714ZM30.851 32.168C32.783 32.168 33.693 31.146 33.693 30.068C33.693 27.072 29.283 28.738 29.283 26.764C29.283 26.12 29.829 25.574 30.935 25.574C32.069 25.574 32.601 26.19 32.685 26.96H33.679C33.595 25.994 32.937 24.706 30.963 24.706C29.269 24.706 28.317 25.714 28.317 26.806C28.317 29.732 32.727 28.052 32.727 30.096C32.727 30.81 32.055 31.3 30.851 31.3C29.619 31.3 29.003 30.684 28.933 29.774H27.925C28.009 31.02 28.793 32.168 30.851 32.168ZM38.9409 23.11C39.3469 23.11 39.6549 22.83 39.6549 22.424C39.6549 22.004 39.3469 21.71 38.9409 21.71C38.5209 21.71 38.2269 22.004 38.2269 22.424C38.2269 22.83 38.5209 23.11 38.9409 23.11ZM38.4369 32H39.4309V24.874H38.4369V32ZM42.7584 25.714H44.2144V24.874H42.7584V22.844H41.7644V24.874H40.4064V25.714H41.7644V32H42.7584V25.714ZM45.4269 32.112C45.8609 32.112 46.1969 31.804 46.1969 31.356C46.1969 30.922 45.8609 30.6 45.4269 30.6C44.9789 30.6 44.6569 30.922 44.6569 31.356C44.6569 31.804 44.9789 32.112 45.4269 32.112ZM55.4105 23.698L61.2065 32H62.2845V22.06H61.2625V30.376L55.4665 22.06H54.3885V32H55.4105V23.698ZM67.5935 32.168C69.8475 32.168 71.2335 30.404 71.2335 28.444C71.2335 26.484 69.8475 24.706 67.5935 24.706C65.3535 24.706 63.9675 26.484 63.9675 28.444C63.9675 30.404 65.3535 32.168 67.5935 32.168ZM64.9755 28.444C64.9755 26.834 66.0115 25.602 67.5935 25.602C69.1895 25.602 70.2255 26.834 70.2255 28.444C70.2255 30.04 69.1895 31.272 67.5935 31.272C66.0115 31.272 64.9755 30.04 64.9755 28.444ZM76.9473 21.5H75.9533V32H76.9473V27.786C76.9473 26.33 77.8853 25.574 79.0893 25.574C80.3633 25.574 80.9653 26.358 80.9653 27.646V32H81.9593V27.45C81.9593 25.868 81.0213 24.706 79.2573 24.706C77.9273 24.706 77.1993 25.434 76.9473 25.868V21.5ZM84.4127 23.11C84.8187 23.11 85.1267 22.83 85.1267 22.424C85.1267 22.004 84.8187 21.71 84.4127 21.71C83.9927 21.71 83.6987 22.004 83.6987 22.424C83.6987 22.83 83.9927 23.11 84.4127 23.11ZM83.9087 32H84.9027V24.874H83.9087V32ZM92.4303 26.162C91.9543 25.308 91.0723 24.706 89.7703 24.706C87.5863 24.706 86.4103 26.47 86.4103 28.444C86.4103 30.404 87.5863 32.168 89.7703 32.168C91.0723 32.168 91.9823 31.594 92.4723 30.684V32H93.4243V21.5H92.4303V26.162ZM92.4723 28.444C92.4723 29.998 91.5623 31.272 89.9663 31.272C88.3703 31.272 87.4183 29.998 87.4183 28.444C87.4183 26.862 88.3703 25.602 89.9663 25.602C91.5623 25.602 92.4723 26.862 92.4723 28.444ZM100.796 26.162C100.32 25.308 99.4378 24.706 98.1358 24.706C95.9518 24.706 94.7758 26.47 94.7758 28.444C94.7758 30.404 95.9518 32.168 98.1358 32.168C99.4378 32.168 100.348 31.594 100.838 30.684V32H101.79V21.5H100.796V26.162ZM100.838 28.444C100.838 29.998 99.9278 31.272 98.3318 31.272C96.7358 31.272 95.7838 29.998 95.7838 28.444C95.7838 26.862 96.7358 25.602 98.3318 25.602C99.9278 25.602 100.838 26.862 100.838 28.444ZM110.208 28.724C110.208 28.724 110.222 28.5 110.222 28.346C110.222 26.33 108.92 24.706 106.792 24.706C104.65 24.706 103.292 26.456 103.292 28.43C103.292 30.432 104.552 32.168 106.806 32.168C108.5 32.168 109.676 31.132 110.096 29.774H109.06C108.752 30.642 107.912 31.272 106.82 31.272C105.322 31.272 104.384 30.166 104.286 28.724H110.208ZM106.792 25.602C108.192 25.602 109.102 26.54 109.228 27.912H104.314C104.482 26.596 105.406 25.602 106.792 25.602ZM112.663 24.874H111.711V32H112.705V27.758C112.705 26.33 113.643 25.574 114.847 25.574C116.121 25.574 116.723 26.358 116.723 27.646V32H117.717V27.45C117.717 25.868 116.779 24.706 115.015 24.706C113.629 24.706 112.915 25.504 112.663 25.966V24.874ZM123.213 24.874H121.827V25.714H123.213V32H124.207V25.714H125.817V24.874H124.207V23.656C124.207 22.746 124.641 22.41 125.411 22.41C125.663 22.41 125.803 22.438 125.803 22.438V21.528C125.803 21.528 125.621 21.5 125.327 21.5C124.081 21.5 123.213 22.2 123.213 23.698V24.874ZM133.061 28.724C133.061 28.724 133.075 28.5 133.075 28.346C133.075 26.33 131.773 24.706 129.645 24.706C127.503 24.706 126.145 26.456 126.145 28.43C126.145 30.432 127.405 32.168 129.659 32.168C131.353 32.168 132.529 31.132 132.949 29.774H131.913C131.605 30.642 130.765 31.272 129.673 31.272C128.175 31.272 127.237 30.166 127.139 28.724H133.061ZM129.645 25.602C131.045 25.602 131.955 26.54 132.081 27.912H127.167C127.335 26.596 128.259 25.602 129.645 25.602ZM140.948 28.724C140.948 28.724 140.962 28.5 140.962 28.346C140.962 26.33 139.66 24.706 137.532 24.706C135.39 24.706 134.032 26.456 134.032 28.43C134.032 30.432 135.292 32.168 137.546 32.168C139.24 32.168 140.416 31.132 140.836 29.774H139.8C139.492 30.642 138.652 31.272 137.56 31.272C136.062 31.272 135.124 30.166 135.026 28.724H140.948ZM137.532 25.602C138.932 25.602 139.842 26.54 139.968 27.912H135.054C135.222 26.596 136.146 25.602 137.532 25.602ZM144.733 32.168C146.665 32.168 147.575 31.146 147.575 30.068C147.575 27.072 143.165 28.738 143.165 26.764C143.165 26.12 143.711 25.574 144.817 25.574C145.951 25.574 146.483 26.19 146.567 26.96H147.561C147.477 25.994 146.819 24.706 144.845 24.706C143.151 24.706 142.199 25.714 142.199 26.806C142.199 29.732 146.609 28.052 146.609 30.096C146.609 30.81 145.937 31.3 144.733 31.3C143.501 31.3 142.885 30.684 142.815 29.774H141.807C141.891 31.02 142.675 32.168 144.733 32.168ZM149.192 29.704H150.018L150.186 22.06H149.024L149.192 29.704ZM149.612 32.112C150.032 32.112 150.354 31.804 150.354 31.384C150.354 30.95 150.032 30.642 149.612 30.642C149.178 30.642 148.856 30.95 148.856 31.384C148.856 31.804 149.178 32.112 149.612 32.112Z" fill="black"/>
</svg>
